<svg width="225" height="206" viewBox="0 0 225 206" fill="none" xmlns="http://www.w3.org/2000/svg">
<rect x="0.5" y="70.5" width="138" height="81" rx="9.5" fill="white" stroke="black"/>
<rect x="17.5" y="121.5" width="102" height="6" stroke="black"/>
<rect x="17.5" y="139.5" width="43" height="3" stroke="black"/>
<rect x="17.5" y="81.5" width="48" height="11" stroke="black"/>
<path d="M93.1329 69.328C93.1329 69.328 95.4117 90.1929 102.362 100.225C109.312 110.257 128.624 111.604 143.174 128.033C157.137 143.801 158.921 176.129 158.921 176.129" stroke="black"/>
<mask id="path-6-inside-1" fill="white">
<path fill-rule="evenodd" clip-rule="evenodd" d="M138.934 123.129C144.747 118.43 148.538 110.547 148.38 101.938C148.222 93.3297 144.154 86.1257 138.187 82.443C132.374 87.1421 128.583 95.0244 128.741 103.633C128.899 112.242 132.967 119.446 138.934 123.129Z"/>
</mask>
<path fill-rule="evenodd" clip-rule="evenodd" d="M138.934 123.129C144.747 118.43 148.538 110.547 148.38 101.938C148.222 93.3297 144.154 86.1257 138.187 82.443C132.374 87.1421 128.583 95.0244 128.741 103.633C128.899 112.242 132.967 119.446 138.934 123.129Z" fill="white"/>
<path d="M138.934 123.129L138.475 124.089L138.957 124.386L139.427 124.006L138.934 123.129ZM138.187 82.443L138.646 81.4832L138.164 81.1856L137.694 81.5653L138.187 82.443ZM128.741 103.633L127.823 103.712L128.741 103.633ZM147.463 102.018C147.614 110.233 143.997 117.76 138.441 122.251L139.427 124.006C145.497 119.1 149.463 110.862 149.297 101.859L147.463 102.018ZM137.728 83.4027C143.431 86.9228 147.312 93.8029 147.463 102.018L149.297 101.859C149.132 92.8565 144.877 85.3286 138.646 81.4832L137.728 83.4027ZM129.658 103.554C129.507 95.3393 133.123 87.8122 138.68 83.3206L137.694 81.5653C131.624 86.472 127.658 94.7095 127.823 103.712L129.658 103.554ZM139.393 122.169C133.689 118.649 129.809 111.769 129.658 103.554L127.823 103.712C127.989 112.715 132.244 120.243 138.475 124.089L139.393 122.169Z" fill="black" mask="url(#path-6-inside-1)"/>
<path d="M138.526 84.2227C138.526 84.2227 139.973 95.1108 140.083 102.194C140.198 109.66 138.958 121.358 138.958 121.358" stroke="black"/>
<path d="M134.215 93.3982L139.732 99.9304" stroke="black" stroke-linecap="round"/>
<path d="M133.652 102.98L139.885 108.849" stroke="black" stroke-linecap="round"/>
<path d="M134.34 112.698L138.973 116.167" stroke="black" stroke-linecap="round"/>
<path d="M139.871 114.039L143.634 109.254" stroke="black" stroke-linecap="round"/>
<path d="M141.15 103.793L144.197 99.673" stroke="black" stroke-linecap="round"/>
<path d="M140.813 96.3392L142.61 92.0835" stroke="black" stroke-linecap="round"/>
<mask id="path-15-inside-2" fill="white">
<path fill-rule="evenodd" clip-rule="evenodd" d="M153.545 151.006C160.137 150.948 166.72 146.743 170.681 139.189C174.642 131.635 175.001 122.601 172.266 115.305C165.674 115.363 159.091 119.568 155.13 127.122C151.169 134.676 150.809 143.71 153.545 151.006Z"/>
</mask>
<path fill-rule="evenodd" clip-rule="evenodd" d="M153.545 151.006C160.137 150.948 166.72 146.743 170.681 139.189C174.642 131.635 175.001 122.601 172.266 115.305C165.674 115.363 159.091 119.568 155.13 127.122C151.169 134.676 150.809 143.71 153.545 151.006Z" fill="white"/>
<path d="M153.545 151.006L152.727 151.448L152.972 152.099L153.56 152.094L153.545 151.006ZM172.266 115.305L173.083 114.863L172.839 114.211L172.251 114.217L172.266 115.305ZM155.13 127.122L155.89 127.712L155.13 127.122ZM169.921 138.599C166.119 145.85 159.814 149.862 153.53 149.918L153.56 152.094C160.46 152.033 167.32 147.636 171.441 139.778L169.921 138.599ZM171.448 115.747C174.056 122.702 173.723 131.348 169.921 138.599L171.441 139.778C175.561 131.921 175.947 122.5 173.083 114.863L171.448 115.747ZM155.89 127.712C159.692 120.461 165.997 116.449 172.281 116.393L172.251 114.217C165.351 114.278 158.49 118.675 154.37 126.533L155.89 127.712ZM154.362 150.564C151.755 143.608 152.087 134.962 155.89 127.712L154.37 126.533C150.25 134.39 149.864 143.811 152.727 151.448L154.362 150.564Z" fill="black" mask="url(#path-15-inside-2)"/>
<path d="M171.677 117.079C171.677 117.079 167.604 127.493 164.33 133.694C160.878 140.23 154.403 149.492 154.403 149.492" stroke="black"/>
<path d="M164.092 122.044L165.139 131.494" stroke="black" stroke-linecap="round"/>
<path d="M159.128 129.943L161.027 139.313" stroke="black" stroke-linecap="round"/>
<path d="M155.039 138.82L156.874 145.013" stroke="black" stroke-linecap="round"/>
<path d="M158.558 143.792L163.651 142.247" stroke="black" stroke-linecap="round"/>
<path d="M164.373 135.811L168.614 134.348" stroke="black" stroke-linecap="round"/>
<path d="M167.654 129.133L171.02 126.691" stroke="black" stroke-linecap="round"/>
<mask id="path-24-inside-3" fill="white">
<path fill-rule="evenodd" clip-rule="evenodd" d="M111.591 66.3093C116.789 70.8356 119.895 78.4144 119.238 86.6821C118.581 94.9498 114.324 101.86 108.486 105.383C103.287 100.857 100.182 93.2779 100.839 85.0102C101.496 76.7425 105.753 69.8328 111.591 66.3093Z"/>
</mask>
<path fill-rule="evenodd" clip-rule="evenodd" d="M111.591 66.3093C116.789 70.8356 119.895 78.4144 119.238 86.6821C118.581 94.9498 114.324 101.86 108.486 105.383C103.287 100.857 100.182 93.2779 100.839 85.0102C101.496 76.7425 105.753 69.8328 111.591 66.3093Z" fill="white"/>
<path d="M111.591 66.3093L112.147 65.4456L111.691 65.0484L111.179 65.3576L111.591 66.3093ZM108.486 105.383L107.929 106.247L108.385 106.644L108.898 106.335L108.486 105.383ZM100.839 85.0102L101.754 85.0933L100.839 85.0102ZM111.035 67.1731C115.987 71.4852 118.95 78.7099 118.323 86.599L120.153 86.7653C120.84 78.1189 117.592 70.1859 112.147 65.4456L111.035 67.1731ZM118.323 86.599C117.696 94.4881 113.635 101.074 108.074 104.431L108.898 106.335C115.012 102.645 119.466 95.4116 120.153 86.7653L118.323 86.599ZM109.042 104.519C104.089 100.207 101.127 92.9824 101.754 85.0933L99.9239 84.927C99.2366 93.5734 102.485 101.506 107.929 106.247L109.042 104.519ZM101.754 85.0933C102.381 77.2042 106.441 70.6179 112.003 67.2611L111.179 65.3576C105.065 69.0477 100.611 76.2807 99.9239 84.927L101.754 85.0933Z" fill="black" mask="url(#path-24-inside-3)"/>
<path d="M111.74 68.0697C111.74 68.0697 112.067 78.7356 111.507 85.5344C110.917 92.701 108.673 103.691 108.673 103.691" stroke="black"/>
<path d="M106.879 76.1304L111.393 83.3089" stroke="black" stroke-linecap="round"/>
<path d="M105.462 85.2085L110.703 91.8714" stroke="black" stroke-linecap="round"/>
<path d="M105.192 94.6265L109.171 98.7246" stroke="black" stroke-linecap="round"/>
<path d="M110.205 96.8383L114.147 92.8894" stroke="black" stroke-linecap="round"/>
<path d="M112.349 87.2441L115.564 83.8108" stroke="black" stroke-linecap="round"/>
<path d="M112.733 80.0524L114.8 76.2799" stroke="black" stroke-linecap="round"/>
<mask id="path-33-inside-4" fill="white">
<path fill-rule="evenodd" clip-rule="evenodd" d="M92.4718 72.3157C97.5652 67.8847 100.745 60.6764 100.35 52.9653C99.9554 45.2542 96.0829 38.9496 90.605 35.8729C85.5116 40.304 82.3314 47.5123 82.7264 55.2234C83.1214 62.9344 86.9939 69.2391 92.4718 72.3157Z"/>
</mask>
<path fill-rule="evenodd" clip-rule="evenodd" d="M92.4718 72.3157C97.5652 67.8847 100.745 60.6764 100.35 52.9653C99.9554 45.2542 96.0829 38.9496 90.605 35.8729C85.5116 40.304 82.3314 47.5123 82.7264 55.2234C83.1214 62.9344 86.9939 69.2391 92.4718 72.3157Z" fill="white"/>
<path d="M92.4718 72.3157L92.0454 73.2942L92.5361 73.5698L92.9924 73.1729L92.4718 72.3157ZM90.605 35.8729L91.0315 34.8944L90.5408 34.6188L90.0845 35.0158L90.605 35.8729ZM82.7264 55.2234L81.812 55.3405L82.7264 55.2234ZM99.4361 53.0824C99.8108 60.3986 96.795 67.2448 91.9513 71.4586L92.9924 73.1729C98.3354 68.5246 101.68 60.9541 101.265 52.8481L99.4361 53.0824ZM90.1785 36.8514C95.3879 39.7772 99.0613 45.7663 99.4361 53.0824L101.265 52.8481C100.85 44.7422 96.778 38.1219 91.0315 34.8944L90.1785 36.8514ZM83.6408 55.1062C83.266 47.79 86.2819 40.9439 91.1255 36.7301L90.0845 35.0158C84.7414 39.6641 81.3968 47.2346 81.812 55.3405L83.6408 55.1062ZM92.8983 71.3373C87.689 68.4115 84.0156 62.4224 83.6408 55.1062L81.812 55.3405C82.2272 63.4465 86.2988 70.0668 92.0454 73.2942L92.8983 71.3373Z" fill="black" mask="url(#path-33-inside-4)"/>
<path d="M90.9627 37.4552C90.9627 37.4552 92.5848 47.1608 92.8914 53.5059C93.2145 60.1942 92.4419 70.7267 92.4419 70.7267" stroke="black"/>
<path d="M87.3525 45.842L92.5091 51.4899" stroke="black" stroke-linecap="round"/>
<path d="M87.1279 54.4526L92.9094 59.4782" stroke="black" stroke-linecap="round"/>
<path d="M88.0312 63.1377L92.3022 66.0732" stroke="black" stroke-linecap="round"/>
<path d="M93.0484 64.1317L96.2943 59.7014" stroke="black" stroke-linecap="round"/>
<path d="M93.898 54.8991L96.519 51.091" stroke="black" stroke-linecap="round"/>
<path d="M93.3772 48.2298L94.8697 44.3473" stroke="black" stroke-linecap="round"/>
<mask id="path-42-inside-5" fill="white">
<path fill-rule="evenodd" clip-rule="evenodd" d="M98.4859 86.721C94.2415 92.131 87.8702 95.0087 81.4512 93.6819C75.0323 92.3551 70.1549 87.1524 68.1496 80.4508C72.3939 75.0408 78.7652 72.1631 85.1842 73.4899C91.6031 74.8167 96.4805 80.0193 98.4859 86.721Z"/>
</mask>
<path fill-rule="evenodd" clip-rule="evenodd" d="M98.4859 86.721C94.2415 92.131 87.8702 95.0087 81.4512 93.6819C75.0323 92.3551 70.1549 87.1524 68.1496 80.4508C72.3939 75.0408 78.7652 72.1631 85.1842 73.4899C91.6031 74.8167 96.4805 80.0193 98.4859 86.721Z" fill="white"/>
<path d="M98.4859 86.721L99.1604 87.4224L99.5398 86.9388L99.3605 86.3398L98.4859 86.721ZM81.4512 93.6819L81.6456 92.6304L81.4512 93.6819ZM68.1496 80.4508L67.475 79.7494L67.0957 80.233L67.2749 80.832L68.1496 80.4508ZM97.8113 86.0196C93.7754 91.1639 87.7286 93.8878 81.6456 92.6304L81.2569 94.7333C88.0119 96.1296 94.7076 93.098 99.1604 87.4224L97.8113 86.0196ZM81.6456 92.6304C75.5627 91.3731 70.9311 86.4422 69.0242 80.0696L67.2749 80.832C69.3788 87.8627 74.502 93.3371 81.2569 94.7333L81.6456 92.6304ZM68.8241 81.1522C72.8601 76.0078 78.9069 73.284 84.9898 74.5413L85.3786 72.4384C78.6236 71.0422 71.9278 74.0738 67.475 79.7494L68.8241 81.1522ZM84.9898 74.5413C91.0727 75.7987 95.7043 80.7296 97.6112 87.1022L99.3605 86.3398C97.2567 79.3091 92.1335 73.8347 85.3786 72.4384L84.9898 74.5413Z" fill="black" mask="url(#path-42-inside-5)"/>
<path d="M69.5549 80.4137C69.5549 80.4137 77.9901 80.8278 83.2661 81.9402C88.8275 83.1128 97.1801 86.3899 97.1801 86.3899" stroke="black"/>
<path d="M75.2578 86.3665L81.4992 81.9047" stroke="black" stroke-linecap="round"/>
<path d="M82.2148 88.5913L88.146 83.2893" stroke="black" stroke-linecap="round"/>
<path d="M89.5898 89.5735L93.3372 85.4787" stroke="black" stroke-linecap="round"/>
<path d="M91.9887 84.2006L89.3995 79.5615" stroke="black" stroke-linecap="round"/>
<path d="M84.7211 81.1355L82.4421 77.3366" stroke="black" stroke-linecap="round"/>
<path d="M79.1131 80.1891L76.4164 77.6329" stroke="black" stroke-linecap="round"/>
<mask id="path-51-inside-6" fill="white">
<path fill-rule="evenodd" clip-rule="evenodd" d="M131.44 116.909C126.816 113.034 120.425 112.198 114.431 115.369C108.436 118.539 104.322 124.933 103.11 131.894C107.734 135.769 114.125 136.606 120.119 133.435C126.113 130.264 130.228 123.871 131.44 116.909Z"/>
</mask>
<path fill-rule="evenodd" clip-rule="evenodd" d="M131.44 116.909C126.816 113.034 120.425 112.198 114.431 115.369C108.436 118.539 104.322 124.933 103.11 131.894C107.734 135.769 114.125 136.606 120.119 133.435C126.113 130.264 130.228 123.871 131.44 116.909Z" fill="white"/>
<path d="M131.44 116.909L132.316 117.082L132.438 116.381L131.972 115.991L131.44 116.909ZM103.11 131.894L102.234 131.721L102.112 132.422L102.577 132.812L103.11 131.894ZM120.119 133.435L119.802 132.429L120.119 133.435ZM114.747 116.374C120.458 113.353 126.529 114.158 130.907 117.827L131.972 115.991C127.102 111.91 120.392 111.042 114.114 114.363L114.747 116.374ZM103.986 132.067C105.134 125.476 109.036 119.395 114.747 116.374L114.114 114.363C107.836 117.684 103.511 124.39 102.234 131.721L103.986 132.067ZM119.802 132.429C114.091 135.45 108.021 134.645 103.642 130.976L102.577 132.812C107.447 136.893 114.158 137.761 120.436 134.44L119.802 132.429ZM130.564 116.736C129.416 123.327 125.514 129.408 119.802 132.429L120.436 134.44C126.713 131.119 131.039 124.414 132.316 117.082L130.564 116.736Z" fill="black" mask="url(#path-51-inside-6)"/>
<path d="M104.277 130.948C104.277 130.948 111.572 125.752 116.509 123.163C121.713 120.433 130.191 117.507 130.191 117.507" stroke="black"/>
<path d="M111.693 131.824L115.005 124.29" stroke="black" stroke-linecap="round"/>
<path d="M118.534 128.996L121.216 121.015" stroke="black" stroke-linecap="round"/>
<path d="M125.184 124.934L126.552 119.315" stroke="black" stroke-linecap="round"/>
<path d="M124.856 119.208L120.642 117.311" stroke="black" stroke-linecap="round"/>
<path d="M117.385 121.588L113.801 120.139" stroke="black" stroke-linecap="round"/>
<path d="M112.241 124.523L108.848 124.308" stroke="black" stroke-linecap="round"/>
<mask id="path-60-inside-7" fill="white">
<path fill-rule="evenodd" clip-rule="evenodd" d="M149.668 138.08C144.535 133.789 137.468 132.821 130.864 136.258C124.259 139.695 119.752 146.685 118.454 154.323C123.587 158.614 130.653 159.582 137.258 156.145C143.863 152.708 148.37 145.718 149.668 138.08Z"/>
</mask>
<path fill-rule="evenodd" clip-rule="evenodd" d="M149.668 138.08C144.535 133.789 137.468 132.821 130.864 136.258C124.259 139.695 119.752 146.685 118.454 154.323C123.587 158.614 130.653 159.582 137.258 156.145C143.863 152.708 148.37 145.718 149.668 138.08Z" fill="white"/>
<path d="M149.668 138.08L150.55 138.255L150.668 137.56L150.201 137.17L149.668 138.08ZM118.454 154.323L117.572 154.148L117.454 154.843L117.921 155.233L118.454 154.323ZM137.258 156.145L137.581 157.149L137.258 156.145ZM131.186 137.261C137.505 133.973 144.249 134.906 149.135 138.991L150.201 137.17C144.821 132.671 137.432 131.669 130.541 135.254L131.186 137.261ZM119.336 154.497C120.571 147.228 124.868 140.549 131.186 137.261L130.541 135.254C123.651 138.84 118.932 146.143 117.572 154.148L119.336 154.497ZM136.936 155.142C130.617 158.43 123.873 157.497 118.987 153.412L117.921 155.233C123.301 159.732 130.69 160.734 137.581 157.149L136.936 155.142ZM148.786 137.906C147.551 145.175 143.254 151.854 136.936 155.142L137.581 157.149C144.471 153.563 149.189 146.26 150.55 138.255L148.786 137.906Z" fill="black" mask="url(#path-60-inside-7)"/>
<path d="M119.74 153.292C119.74 153.292 127.77 147.641 133.21 144.835C138.943 141.877 148.294 138.728 148.294 138.728" stroke="black"/>
<path d="M127.939 154.312L131.553 146.062" stroke="black" stroke-linecap="round"/>
<path d="M135.481 151.258L138.397 142.512" stroke="black" stroke-linecap="round"/>
<path d="M142.805 146.847L144.283 140.686" stroke="black" stroke-linecap="round"/>
<path d="M142.408 140.555L137.74 138.439" stroke="black" stroke-linecap="round"/>
<path d="M134.168 143.112L130.198 141.493" stroke="black" stroke-linecap="round"/>
<path d="M128.501 146.296L124.751 146.034" stroke="black" stroke-linecap="round"/>
</svg>
