<?xml version="1.0" encoding="utf-8"?>
<!-- Generator: Adobe Illustrator 23.1.0, SVG Export Plug-In . SVG Version: 6.00 Build 0)  -->
<svg version="1.1" id="Слой_1" xmlns="http://www.w3.org/2000/svg" xmlns:xlink="http://www.w3.org/1999/xlink" x="0px" y="0px"
	 viewBox="0 0 190 190" style="enable-background:new 0 0 190 190;" xml:space="preserve">
<style type="text/css">
	.st0{fill:#FFFFFF;stroke:#000000;}
	.st1{fill:none;stroke:#000000;}
	.st2{fill-rule:evenodd;clip-rule:evenodd;fill:#FFFFFF;}
	.st3{fill-rule:evenodd;clip-rule:evenodd;fill:#FFFFFF;filter:url(#Adobe_OpacityMaskFilter);}
	.st4{mask:url(#path-6-inside-1_1_);}
	.st5{fill:none;stroke:#000000;stroke-linecap:round;}
	.st6{fill-rule:evenodd;clip-rule:evenodd;fill:#FFFFFF;filter:url(#Adobe_OpacityMaskFilter_1_);}
	.st7{mask:url(#path-15-inside-2_1_);}
	.st8{fill-rule:evenodd;clip-rule:evenodd;fill:#FFFFFF;filter:url(#Adobe_OpacityMaskFilter_2_);}
	.st9{mask:url(#path-24-inside-3_1_);}
	.st10{fill-rule:evenodd;clip-rule:evenodd;fill:#FFFFFF;filter:url(#Adobe_OpacityMaskFilter_3_);}
	.st11{mask:url(#path-33-inside-4_1_);}
	.st12{fill-rule:evenodd;clip-rule:evenodd;fill:#FFFFFF;filter:url(#Adobe_OpacityMaskFilter_4_);}
	.st13{mask:url(#path-42-inside-5_1_);}
	.st14{fill-rule:evenodd;clip-rule:evenodd;fill:#FFFFFF;filter:url(#Adobe_OpacityMaskFilter_5_);}
	.st15{mask:url(#path-51-inside-6_1_);}
	.st16{fill-rule:evenodd;clip-rule:evenodd;fill:#FFFFFF;filter:url(#Adobe_OpacityMaskFilter_6_);}
	.st17{mask:url(#path-60-inside-7_1_);}
</style>
<path class="st0" d="M14,62.5h119c5.2,0,9.5,4.3,9.5,9.5v62c0,5.2-4.3,9.5-9.5,9.5H14c-5.2,0-9.5-4.3-9.5-9.5V72
	C4.5,66.8,8.8,62.5,14,62.5z"/>
<rect x="21.5" y="113.5" class="st1" width="102" height="6"/>
<rect x="21.5" y="131.5" class="st1" width="43" height="3"/>
<rect x="21.5" y="73.5" class="st1" width="48" height="11"/>
<path class="st1" d="M97.1,61.3c0,0,2.3,20.9,9.2,30.9c6.9,10,26.3,11.4,40.8,27.8c14,15.8,15.7,48.1,15.7,48.1"/>
<path class="st2" d="M142.9,115.1c5.8-4.7,9.6-12.6,9.4-21.2c-0.2-8.6-4.2-15.8-10.2-19.5c-5.8,4.7-9.6,12.6-9.4,21.2
	C132.9,104.2,137,111.4,142.9,115.1z"/>
<defs>
	<filter id="Adobe_OpacityMaskFilter" filterUnits="userSpaceOnUse" x="131.8" y="73.2" width="21.5" height="43.2">
		<feColorMatrix  type="matrix" values="1 0 0 0 0  0 1 0 0 0  0 0 1 0 0  0 0 0 1 0"/>
	</filter>
</defs>
<mask maskUnits="userSpaceOnUse" x="131.8" y="73.2" width="21.5" height="43.2" id="path-6-inside-1_1_">
	<path class="st3" d="M142.9,115.1c5.8-4.7,9.6-12.6,9.4-21.2c-0.2-8.6-4.2-15.8-10.2-19.5c-5.8,4.7-9.6,12.6-9.4,21.2
		C132.9,104.2,137,111.4,142.9,115.1z"/>
</mask>
<path class="st4" d="M142.9,115.1l-0.5,1l0.5,0.3l0.5-0.4L142.9,115.1z M142.2,74.4l0.5-1l-0.5-0.3l-0.5,0.4L142.2,74.4z
	 M132.7,95.6l-0.9,0.1L132.7,95.6z M151.5,94c0.2,8.2-3.5,15.7-9,20.2l1,1.8c6.1-4.9,10-13.1,9.9-22.1L151.5,94z M141.7,75.4
	c5.7,3.5,9.6,10.4,9.7,18.6l1.8-0.2c-0.2-9-4.4-16.5-10.7-20.4L141.7,75.4z M133.7,95.6c-0.2-8.2,3.5-15.7,9-20.2l-1-1.8
	c-6.1,4.9-10,13.1-9.9,22.1L133.7,95.6z M143.4,114.2c-5.7-3.5-9.6-10.4-9.7-18.6l-1.8,0.2c0.2,9,4.4,16.5,10.7,20.4L143.4,114.2z"
	/>
<path class="st1" d="M142.5,76.2c0,0,1.4,10.9,1.6,18c0.1,7.5-1.1,19.2-1.1,19.2"/>
<path class="st5" d="M138.2,85.4l5.5,6.5"/>
<path class="st5" d="M137.7,95l6.2,5.9"/>
<path class="st5" d="M138.3,104.7l4.6,3.5"/>
<path class="st5" d="M143.9,106l3.8-4.8"/>
<path class="st5" d="M145.1,95.8l3-4.1"/>
<path class="st5" d="M144.8,88.3l1.8-4.3"/>
<path class="st2" d="M157.5,143c6.6-0.1,13.2-4.3,17.1-11.8s4.3-16.6,1.6-23.9c-6.6,0.1-13.2,4.3-17.1,11.8
	C155.2,126.7,154.8,135.7,157.5,143z"/>
<defs>
	<filter id="Adobe_OpacityMaskFilter_1_" filterUnits="userSpaceOnUse" x="154.9" y="106.2" width="24.1" height="37.9">
		<feColorMatrix  type="matrix" values="1 0 0 0 0  0 1 0 0 0  0 0 1 0 0  0 0 0 1 0"/>
	</filter>
</defs>
<mask maskUnits="userSpaceOnUse" x="154.9" y="106.2" width="24.1" height="37.9" id="path-15-inside-2_1_">
	<path class="st6" d="M157.5,143c6.6-0.1,13.2-4.3,17.1-11.8s4.3-16.6,1.6-23.9c-6.6,0.1-13.2,4.3-17.1,11.8
		C155.2,126.7,154.8,135.7,157.5,143z"/>
</mask>
<path class="st7" d="M157.5,143l-0.8,0.4l0.2,0.7l0.6,0L157.5,143z M176.3,107.3l0.8-0.4l-0.2-0.7l-0.6,0L176.3,107.3z M159.1,119.1
	l0.8,0.6L159.1,119.1z M173.9,130.6c-3.8,7.3-10.1,11.3-16.4,11.3l0,2.2c6.9-0.1,13.8-4.5,17.9-12.3L173.9,130.6z M175.4,107.7
	c2.6,7,2.3,15.6-1.5,22.9l1.5,1.2c4.1-7.9,4.5-17.3,1.6-24.9L175.4,107.7z M159.9,119.7c3.8-7.3,10.1-11.3,16.4-11.3l0-2.2
	c-6.9,0.1-13.8,4.5-17.9,12.3L159.9,119.7z M158.4,142.6c-2.6-7-2.3-15.6,1.5-22.9l-1.5-1.2c-4.1,7.9-4.5,17.3-1.6,24.9L158.4,142.6
	z"/>
<path class="st1" d="M175.7,109.1c0,0-4.1,10.4-7.3,16.6c-3.5,6.5-9.9,15.8-9.9,15.8"/>
<path class="st5" d="M168.1,114l1,9.5"/>
<path class="st5" d="M163.1,121.9l1.9,9.4"/>
<path class="st5" d="M159,130.8l1.8,6.2"/>
<path class="st5" d="M162.6,135.8l5.1-1.5"/>
<path class="st5" d="M168.4,127.8l4.2-1.5"/>
<path class="st5" d="M171.7,121.1l3.4-2.4"/>
<path class="st2" d="M115.6,58.3c5.2,4.5,8.3,12.1,7.6,20.4s-4.9,15.2-10.8,18.7c-5.2-4.5-8.3-12.1-7.6-20.4
	C105.5,68.7,109.8,61.8,115.6,58.3z"/>
<defs>
	<filter id="Adobe_OpacityMaskFilter_2_" filterUnits="userSpaceOnUse" x="103.8" y="57" width="20.4" height="41.6">
		<feColorMatrix  type="matrix" values="1 0 0 0 0  0 1 0 0 0  0 0 1 0 0  0 0 0 1 0"/>
	</filter>
</defs>
<mask maskUnits="userSpaceOnUse" x="103.8" y="57" width="20.4" height="41.6" id="path-24-inside-3_1_">
	<path class="st8" d="M115.6,58.3c5.2,4.5,8.3,12.1,7.6,20.4s-4.9,15.2-10.8,18.7c-5.2-4.5-8.3-12.1-7.6-20.4
		C105.5,68.7,109.8,61.8,115.6,58.3z"/>
</mask>
<path class="st9" d="M115.6,58.3l0.6-0.9l-0.5-0.4l-0.5,0.3L115.6,58.3z M112.5,97.4l-0.6,0.9l0.5,0.4l0.5-0.3L112.5,97.4z
	 M104.8,77l0.9,0.1L104.8,77z M115,59.2c5,4.3,7.9,11.5,7.3,19.4l1.8,0.2c0.7-8.6-2.6-16.6-8-21.3L115,59.2z M122.3,78.6
	c-0.6,7.9-4.7,14.5-10.2,17.8l0.8,1.9c6.1-3.7,10.6-10.9,11.3-19.6L122.3,78.6z M113,96.5c-5-4.3-7.9-11.5-7.3-19.4l-1.8-0.2
	c-0.7,8.6,2.6,16.6,8,21.3L113,96.5z M105.8,77.1c0.6-7.9,4.7-14.5,10.2-17.8l-0.8-1.9c-6.1,3.7-10.6,10.9-11.3,19.6L105.8,77.1z"/>
<path class="st1" d="M115.7,60.1c0,0,0.3,10.7-0.2,17.5c-0.6,7.2-2.8,18.2-2.8,18.2"/>
<path class="st5" d="M110.9,68.1l4.5,7.2"/>
<path class="st5" d="M109.5,77.2l5.2,6.7"/>
<path class="st5" d="M109.2,86.6l4,4.1"/>
<path class="st5" d="M114.2,88.8l3.9-3.9"/>
<path class="st5" d="M116.3,79.2l3.2-3.4"/>
<path class="st5" d="M116.7,72.1l2.1-3.8"/>
<path class="st2" d="M96.5,64.3c5.1-4.4,8.3-11.6,7.9-19.4c-0.4-7.7-4.3-14-9.7-17.1c-5.1,4.4-8.3,11.6-7.9,19.4
	C87.1,54.9,91,61.2,96.5,64.3z"/>
<defs>
	<filter id="Adobe_OpacityMaskFilter_3_" filterUnits="userSpaceOnUse" x="85.8" y="26.6" width="19.5" height="39">
		<feColorMatrix  type="matrix" values="1 0 0 0 0  0 1 0 0 0  0 0 1 0 0  0 0 0 1 0"/>
	</filter>
</defs>
<mask maskUnits="userSpaceOnUse" x="85.8" y="26.6" width="19.5" height="39" id="path-33-inside-4_1_">
	<path class="st10" d="M96.5,64.3c5.1-4.4,8.3-11.6,7.9-19.4c-0.4-7.7-4.3-14-9.7-17.1c-5.1,4.4-8.3,11.6-7.9,19.4
		C87.1,54.9,91,61.2,96.5,64.3z"/>
</mask>
<path class="st11" d="M96.5,64.3l-0.4,1l0.5,0.3l0.5-0.4L96.5,64.3z M94.6,27.9l0.4-1l-0.5-0.3L94.1,27L94.6,27.9z M86.7,47.2
	l-0.9,0.1L86.7,47.2z M103.4,45.1c0.4,7.3-2.6,14.2-7.5,18.4l1,1.7c5.3-4.6,8.7-12.2,8.3-20.3L103.4,45.1z M94.2,28.9
	c5.2,2.9,8.9,8.9,9.3,16.2l1.8-0.2c-0.4-8.1-4.5-14.7-10.2-18L94.2,28.9z M87.6,47.1c-0.4-7.3,2.6-14.2,7.5-18.4l-1-1.7
	c-5.3,4.6-8.7,12.2-8.3,20.3L87.6,47.1z M96.9,63.3c-5.2-2.9-8.9-8.9-9.3-16.2l-1.8,0.2c0.4,8.1,4.5,14.7,10.2,18L96.9,63.3z"/>
<path class="st1" d="M95,29.5c0,0,1.6,9.7,1.9,16.1c0.3,6.7-0.4,17.2-0.4,17.2"/>
<path class="st5" d="M91.4,37.8l5.2,5.6"/>
<path class="st5" d="M91.1,46.5l5.8,5"/>
<path class="st5" d="M92,55.1l4.3,2.9"/>
<path class="st5" d="M97,56.1l3.2-4.4"/>
<path class="st5" d="M97.9,46.9l2.6-3.8"/>
<path class="st5" d="M97.4,40.2l1.5-3.9"/>
<path class="st2" d="M102.5,78.7c-4.2,5.4-10.6,8.3-17,7c-6.4-1.3-11.3-6.5-13.3-13.2c4.2-5.4,10.6-8.3,17-7
	C95.6,66.8,100.5,72,102.5,78.7z"/>
<defs>
	<filter id="Adobe_OpacityMaskFilter_4_" filterUnits="userSpaceOnUse" x="71.1" y="64.1" width="32.4" height="23">
		<feColorMatrix  type="matrix" values="1 0 0 0 0  0 1 0 0 0  0 0 1 0 0  0 0 0 1 0"/>
	</filter>
</defs>
<mask maskUnits="userSpaceOnUse" x="71.1" y="64.1" width="32.4" height="23" id="path-42-inside-5_1_">
	<path class="st12" d="M102.5,78.7c-4.2,5.4-10.6,8.3-17,7c-6.4-1.3-11.3-6.5-13.3-13.2c4.2-5.4,10.6-8.3,17-7
		C95.6,66.8,100.5,72,102.5,78.7z"/>
</mask>
<path class="st13" d="M102.5,78.7l0.7,0.7l0.4-0.5l-0.2-0.6L102.5,78.7z M85.5,85.7l0.2-1.1L85.5,85.7z M72.1,72.5l-0.7-0.7
	l-0.4,0.5l0.2,0.6L72.1,72.5z M101.8,78c-4,5.1-10.1,7.9-16.2,6.6l-0.4,2.1c6.8,1.4,13.5-1.6,17.9-7.3L101.8,78z M85.6,84.6
	c-6.1-1.3-10.7-6.2-12.6-12.6l-1.7,0.8c2.1,7,7.2,12.5,14,13.9L85.6,84.6z M72.8,73.2c4-5.1,10.1-7.9,16.2-6.6l0.4-2.1
	c-6.8-1.4-13.5,1.6-17.9,7.3L72.8,73.2z M89,66.5c6.1,1.3,10.7,6.2,12.6,12.6l1.7-0.8c-2.1-7-7.2-12.5-14-13.9L89,66.5z"/>
<path class="st1" d="M73.6,72.4c0,0,8.4,0.4,13.7,1.5c5.6,1.2,13.9,4.4,13.9,4.4"/>
<path class="st5" d="M79.3,78.4l6.2-4.5"/>
<path class="st5" d="M86.2,80.6l5.9-5.3"/>
<path class="st5" d="M93.6,81.6l3.7-4.1"/>
<path class="st5" d="M96,76.2l-2.6-4.6"/>
<path class="st5" d="M88.7,73.1l-2.3-3.8"/>
<path class="st5" d="M83.1,72.2l-2.7-2.6"/>
<path class="st2" d="M135.4,108.9c-4.6-3.9-11-4.7-17-1.5c-6,3.2-10.1,9.6-11.3,16.5c4.6,3.9,11,4.7,17,1.5
	C130.1,122.3,134.2,115.9,135.4,108.9z"/>
<defs>
	<filter id="Adobe_OpacityMaskFilter_5_" filterUnits="userSpaceOnUse" x="106.1" y="104.3" width="30.3" height="24.2">
		<feColorMatrix  type="matrix" values="1 0 0 0 0  0 1 0 0 0  0 0 1 0 0  0 0 0 1 0"/>
	</filter>
</defs>
<mask maskUnits="userSpaceOnUse" x="106.1" y="104.3" width="30.3" height="24.2" id="path-51-inside-6_1_">
	<path class="st14" d="M135.4,108.9c-4.6-3.9-11-4.7-17-1.5c-6,3.2-10.1,9.6-11.3,16.5c4.6,3.9,11,4.7,17,1.5
		C130.1,122.3,134.2,115.9,135.4,108.9z"/>
</mask>
<path class="st15" d="M135.4,108.9l0.9,0.2l0.1-0.7L136,108L135.4,108.9z M107.1,123.9l-0.9-0.2l-0.1,0.7l0.5,0.4L107.1,123.9z
	 M124.1,125.4l-0.3-1L124.1,125.4z M118.7,108.4c5.7-3,11.8-2.2,16.2,1.5l1.1-1.8c-4.9-4.1-11.6-4.9-17.9-1.6L118.7,108.4z
	 M108,124.1c1.1-6.6,5.1-12.7,10.8-15.7l-0.6-2c-6.3,3.3-10.6,10-11.9,17.4L108,124.1z M123.8,124.4c-5.7,3-11.8,2.2-16.2-1.5
	l-1.1,1.8c4.9,4.1,11.6,4.9,17.9,1.6L123.8,124.4z M134.6,108.7c-1.1,6.6-5,12.7-10.8,15.7l0.6,2c6.3-3.3,10.6-10,11.9-17.4
	L134.6,108.7z"/>
<path class="st1" d="M108.3,122.9c0,0,7.3-5.2,12.2-7.8c5.2-2.7,13.7-5.7,13.7-5.7"/>
<path class="st5" d="M115.7,123.8l3.3-7.5"/>
<path class="st5" d="M122.5,121l2.7-8"/>
<path class="st5" d="M129.2,116.9l1.4-5.6"/>
<path class="st5" d="M128.9,111.2l-4.2-1.9"/>
<path class="st5" d="M121.4,113.6l-3.6-1.4"/>
<path class="st5" d="M116.2,116.5l-3.4-0.2"/>
<path class="st2" d="M153.7,130.1c-5.1-4.3-12.2-5.3-18.8-1.8c-6.6,3.4-11.1,10.4-12.4,18.1c5.1,4.3,12.2,5.3,18.8,1.8
	C147.9,144.7,152.4,137.7,153.7,130.1z"/>
<defs>
	<filter id="Adobe_OpacityMaskFilter_6_" filterUnits="userSpaceOnUse" x="121.5" y="125.1" width="33.2" height="26.2">
		<feColorMatrix  type="matrix" values="1 0 0 0 0  0 1 0 0 0  0 0 1 0 0  0 0 0 1 0"/>
	</filter>
</defs>
<mask maskUnits="userSpaceOnUse" x="121.5" y="125.1" width="33.2" height="26.2" id="path-60-inside-7_1_">
	<path class="st16" d="M153.7,130.1c-5.1-4.3-12.2-5.3-18.8-1.8c-6.6,3.4-11.1,10.4-12.4,18.1c5.1,4.3,12.2,5.3,18.8,1.8
		C147.9,144.7,152.4,137.7,153.7,130.1z"/>
</mask>
<path class="st17" d="M153.7,130.1l0.9,0.2l0.1-0.7l-0.5-0.4L153.7,130.1z M122.5,146.3l-0.9-0.2l-0.1,0.7l0.5,0.4L122.5,146.3z
	 M141.3,148.1l0.3,1L141.3,148.1z M135.2,129.3c6.3-3.3,13.1-2.4,17.9,1.7l1.1-1.8c-5.4-4.5-12.8-5.5-19.7-1.9L135.2,129.3z
	 M123.3,146.5c1.2-7.3,5.5-13.9,11.9-17.2l-0.6-2c-6.9,3.6-11.6,10.9-13,18.9L123.3,146.5z M140.9,147.1c-6.3,3.3-13.1,2.4-17.9-1.7
	l-1.1,1.8c5.4,4.5,12.8,5.5,19.7,1.9L140.9,147.1z M152.8,129.9c-1.2,7.3-5.5,13.9-11.8,17.2l0.6,2c6.9-3.6,11.6-10.9,13-18.9
	L152.8,129.9z"/>
<path class="st1" d="M123.7,145.3c0,0,8-5.7,13.5-8.5c5.7-3,15.1-6.1,15.1-6.1"/>
<path class="st5" d="M131.9,146.3l3.6-8.3"/>
<path class="st5" d="M139.5,143.3l2.9-8.7"/>
<path class="st5" d="M146.8,138.8l1.5-6.2"/>
<path class="st5" d="M146.4,132.6l-4.7-2.1"/>
<path class="st5" d="M138.2,135.1l-4-1.6"/>
<path class="st5" d="M132.5,138.3l-3.8-0.3"/>
</svg>
