<svg width="252" height="252" viewBox="0 0 252 252" fill="none" xmlns="http://www.w3.org/2000/svg">
<path d="M215.394 89.1552C213.975 85.9126 199.305 75.8901 199.305 75.8901C203.457 77.4483 212.487 82.2826 215.394 89.1552Z" stroke="black" stroke-linecap="round" stroke-linejoin="round"/>
<path d="M124.675 72.2262C147.76 73.843 165.156 87.4704 170.969 94.0819C155.088 80.5641 127.374 75.2583 123.741 74.3739C120.835 73.6664 113.881 74.6687 110.767 75.2583C102.671 73.8686 117.929 71.7537 124.675 72.2262Z" stroke="black" stroke-linecap="round" stroke-linejoin="round"/>
<path d="M217.677 103.557C220.75 103.759 224.216 101.788 225.566 100.778L225.773 91.808C225.877 91.5554 225.898 91.2269 225.151 91.9344C224.403 92.6419 219.511 93.4925 217.158 93.8294C217.158 97.1141 216.847 103.502 217.677 103.557Z" stroke="black" stroke-linecap="round" stroke-linejoin="round"/>
<path d="M100.802 112.779V110.126L82.0151 98.3774V101.03L100.802 112.779Z" stroke="black" stroke-linecap="round" stroke-linejoin="round"/>
<path d="M85.025 113.411L97.4806 119.349L84.6099 110.379L85.025 113.411Z" stroke="black" stroke-linecap="round" stroke-linejoin="round"/>
<path d="M160.278 135.14C161.772 131.401 160.9 125.834 160.278 123.518C151.178 122.297 132.605 120.284 131.111 122.002C129.616 123.72 131.734 129.708 132.979 132.487C141.456 134.93 158.783 138.88 160.278 135.14Z" stroke="black" stroke-linecap="round" stroke-linejoin="round"/>
<path d="M169.931 136.151C166.443 135.646 165.225 127.097 165.052 122.886L179.895 121.37V128.445L215.082 122.886L215.705 116.57L220.48 115.812L220.064 122.886C219.898 126.525 217.504 128.108 216.328 128.445C202.315 131.224 173.418 136.657 169.931 136.151Z" stroke="black" stroke-linecap="round" stroke-linejoin="round"/>
<path d="M180.622 126.045L181.141 116.191L215.083 112.274L214.46 121.37L180.622 126.045Z" stroke="black" stroke-linecap="round" stroke-linejoin="round"/>
<path d="M222.452 114.927L226.811 112.4C226.708 114.506 226.396 119.323 225.981 121.749C225.566 124.175 222.763 126.044 221.414 126.676L222.452 114.927Z" stroke="black" stroke-linecap="round" stroke-linejoin="round"/>
<path d="M102.359 94.0822C102.532 94.3769 102.359 96.9878 102.359 96.9878C102.359 97.1563 102.297 97.4932 102.048 97.4932C101.799 97.4932 101.319 96.8446 101.114 96.2298C100.805 95.3057 101.093 94.1074 101.425 93.7032C101.757 93.2989 102.186 93.7874 102.359 94.0822Z" stroke="black" stroke-linecap="round" stroke-linejoin="round"/>
<path d="M88.658 80.4381C89.2305 80.6081 89.6217 81.0514 89.5387 82.1632C89.5387 82.5843 89.696 83.4702 88.5007 83.4265C87.3055 83.3828 87.4687 83.3632 87.1514 82.7948C86.7841 82.1368 87.0979 81.4878 87.359 80.7735C87.6201 80.0592 88.0855 80.2682 88.658 80.4381Z" stroke="black" stroke-linecap="round" stroke-linejoin="round"/>
<path d="M81.081 78.9221C80.9772 78.0378 79.9392 78.0378 79.8355 78.5431C79.7317 79.0484 79.3201 79.7231 79.6279 80.3118C79.8712 80.7771 80.0431 80.9434 80.6658 80.9434C81.2886 80.9435 81.1848 79.8064 81.081 78.9221Z" stroke="black" stroke-linecap="round" stroke-linejoin="round"/>
<path d="M91.8757 55.0449C92.4985 53.2762 97.377 49.4862 97.6883 49.3599L92.6023 63.7619C90.4226 63.6356 89.696 64.7726 89.0732 65.5306C88.1803 66.6173 87.7239 69.5732 87.6201 70.5839L87.6167 70.6171C87.5366 71.3947 87.5278 71.4805 88.3466 72.3526C87.5163 72.0999 87.4125 72.0999 86.3745 72.0999C87.1011 65.6569 91.253 56.8135 91.8757 55.0449Z" stroke="black" stroke-linecap="round" stroke-linejoin="round"/>
<path d="M83.8833 71.3421L85.4403 71.7211C86.3052 68.7312 88.3258 61.8418 89.4883 58.2034C88.1597 59.3151 85.1981 67.4257 83.8833 71.3421Z" stroke="black" stroke-linecap="round" stroke-linejoin="round"/>
<path d="M102.982 51.5077C102.809 50.7497 101.882 49.1579 99.5566 48.8547L94.1592 63.6358H97.4807C100.719 63.6358 100.906 69.1945 100.698 71.2158L102.982 65.2781V51.5077Z" stroke="black" stroke-linecap="round" stroke-linejoin="round"/>
<path d="M106.719 49.1074C106.553 61.6396 108.449 69.7418 109.417 72.2264C121.126 68.8912 162.042 69.405 181.037 70.0787L156.956 50.6234C156.68 48.8547 146.244 46.0753 106.719 49.1074Z" stroke="black" stroke-linecap="round" stroke-linejoin="round"/>
<path d="M157.371 48.981C147.988 44.9383 117.756 45.8647 103.812 46.8333C99.3283 46.2269 93.2943 51.5497 90.8378 54.287C88.5888 58.2875 83.5305 67.2993 81.2885 71.342C78.2991 73.7676 77.2058 77.5745 77.0328 79.1747V88.6497C76.929 90.6711 77.012 96.255 78.1746 102.42C79.0049 114.447 80.5965 116.527 81.2885 116.064H87.7239L105.681 129.582C105.646 130.508 105.971 133.347 107.549 137.288C109.521 142.215 112.635 144.489 113.569 144.995C114.503 145.5 120.627 144.742 124.572 143.858C128.516 142.973 125.817 142.215 127.374 142.847C128.62 143.352 141.733 143.057 148.134 142.847C156.437 142.51 176.636 141.179 191.002 138.551C208.958 135.267 227.227 127.813 228.472 126.55C229.469 125.539 229.164 124.781 228.887 124.528L226.811 120.738L227.746 112.021C228.472 111.011 228.472 111.011 228.472 110L228.887 102.546C225.462 101.157 226.811 101.157 226.811 92.0607C226.811 82.9647 197.368 73.616 183.321 70.8367C178.581 65.2359 166.755 53.0236 157.371 48.981Z" stroke="black" stroke-linecap="round" stroke-linejoin="round"/>
<path d="M183.406 64.5548C182.057 63.1189 179.05 63.9565 177.715 64.5548L183.406 70.8366C183.968 69.341 184.755 65.9906 183.406 64.5548Z" stroke="black" stroke-linecap="round" stroke-linejoin="round"/>
<path d="M80.9967 102.687C81.0829 105.673 81.0218 108.374 80.8553 110.324C80.7718 111.302 80.6631 112.074 80.5388 112.593C80.5381 112.596 80.5374 112.599 80.5367 112.602C80.5358 112.599 80.5349 112.596 80.534 112.593C80.38 112.086 80.2272 111.325 80.0875 110.357C79.809 108.425 79.5924 105.737 79.5062 102.751C79.4201 99.7657 79.4812 97.0652 79.6477 95.1149C79.7312 94.1365 79.8398 93.3649 79.9642 92.8455C79.9649 92.8425 79.9656 92.8396 79.9663 92.8366C79.9672 92.8395 79.9681 92.8424 79.9689 92.8453C80.1229 93.3528 80.2758 94.1132 80.4155 95.0821C80.694 97.0133 80.9106 99.702 80.9967 102.687Z" stroke="black" stroke-linecap="round" stroke-linejoin="round"/>
<path d="M116.806 124.276C116.806 129.596 116.387 133.872 115.597 136.803C115.201 138.271 114.722 139.364 114.184 140.08C113.652 140.788 113.099 141.083 112.531 141.083C112.33 141.083 112.045 140.97 111.676 140.618C111.314 140.271 110.925 139.744 110.524 139.046C109.724 137.652 108.925 135.66 108.216 133.314C106.799 128.624 105.766 122.609 105.766 117.327C105.766 111.999 106.134 108.175 106.868 105.697C107.234 104.458 107.68 103.598 108.181 103.054C108.667 102.525 109.21 102.288 109.833 102.288C110.059 102.288 110.356 102.398 110.724 102.702C111.089 103.004 111.482 103.463 111.89 104.077C112.704 105.303 113.525 107.071 114.258 109.192C115.723 113.432 116.806 118.999 116.806 124.276Z" stroke="black" stroke-linecap="round" stroke-linejoin="round"/>
<path d="M169.308 108.611L172.111 99.0092C172.858 96.4488 144.951 96.679 130.904 97.1142C127.686 99.0092 124.604 105.029 126.752 106.463C129.969 108.611 156.956 109.116 169.308 108.611Z" stroke="black" stroke-linecap="round" stroke-linejoin="round"/>
<path d="M170.761 108.105L193.389 105.958C195.776 104.694 195.05 101.789 195.153 100.525C195.236 99.5145 194.012 98.0827 193.389 97.4932L173.356 99.0092L170.761 108.105Z" stroke="black" stroke-linecap="round" stroke-linejoin="round"/>
<path d="M216.535 103.052L216.12 95.7244H216.12C211.449 95.7244 201.693 95.7244 199.305 97.2404C196.446 99.0556 195.672 104.399 195.776 105.831L216.535 103.052Z" stroke="black" stroke-linecap="round" stroke-linejoin="round"/>
<path d="M81.3248 117.612C81.3248 117.612 95.5872 133.013 107.214 136.849C118.841 140.685 135.374 129.999 156.996 134.351C177.746 138.528 198.422 163.454 198.422 163.454" stroke="black"/>
<mask id="path-25-inside-1" fill="white">
<path fill-rule="evenodd" clip-rule="evenodd" d="M150.626 132.988C152.568 125.663 150.97 117.01 145.722 110.179C140.475 103.348 132.877 100.03 125.827 100.704C123.885 108.028 125.483 116.682 130.731 123.513C135.978 130.344 143.575 133.661 150.626 132.988Z"/>
</mask>
<path fill-rule="evenodd" clip-rule="evenodd" d="M150.626 132.988C152.568 125.663 150.97 117.01 145.722 110.179C140.475 103.348 132.877 100.03 125.827 100.704C123.885 108.028 125.483 116.682 130.731 123.513C135.978 130.344 143.575 133.661 150.626 132.988Z" fill="white"/>
<path d="M150.626 132.988L150.82 134.032L151.386 133.978L151.542 133.39L150.626 132.988ZM125.827 100.704L125.632 99.6598L125.066 99.7139L124.911 100.302L125.827 100.704ZM145.027 110.797C150.037 117.318 151.567 125.583 149.71 132.586L151.542 133.39C153.569 125.744 151.902 116.701 146.417 109.56L145.027 110.797ZM126.021 101.747C132.762 101.103 140.018 104.275 145.027 110.797L146.417 109.56C140.932 102.42 132.992 98.9568 125.632 99.6598L126.021 101.747ZM131.425 122.895C126.416 116.373 124.886 108.109 126.743 101.105L124.911 100.302C122.884 107.948 124.55 116.99 130.036 124.131L131.425 122.895ZM150.432 131.944C143.69 132.588 136.435 129.416 131.425 122.895L130.036 124.131C135.521 131.272 143.461 134.735 150.82 134.032L150.432 131.944Z" fill="black" mask="url(#path-25-inside-1)"/>
<path d="M127.161 101.929C127.161 101.929 134.814 109.809 139.114 115.441C143.648 121.379 149.593 131.548 149.593 131.548" stroke="black"/>
<path d="M129.105 111.94L137.483 113.834" stroke="black" stroke-linecap="round"/>
<path d="M134.344 119.993L142.911 120.916" stroke="black" stroke-linecap="round"/>
<path d="M140.682 127.394L146.518 127.362" stroke="black" stroke-linecap="round"/>
<path d="M145.986 125.102L146.206 118.958" stroke="black" stroke-linecap="round"/>
<path d="M140.935 116.078L140.967 110.906" stroke="black" stroke-linecap="round"/>
<path d="M136.229 110.285L135.163 105.765" stroke="black" stroke-linecap="round"/>
<mask id="path-34-inside-2" fill="white">
<path fill-rule="evenodd" clip-rule="evenodd" d="M179.104 146.515C184.44 142.45 187.303 135.054 186.038 126.561C184.773 118.068 179.695 110.58 173.128 106.376C167.792 110.441 164.93 117.837 166.195 126.33C167.459 134.823 172.538 142.311 179.104 146.515Z"/>
</mask>
<path fill-rule="evenodd" clip-rule="evenodd" d="M179.104 146.515C184.44 142.45 187.303 135.054 186.038 126.561C184.773 118.068 179.695 110.58 173.128 106.376C167.792 110.441 164.93 117.837 166.195 126.33C167.459 134.823 172.538 142.311 179.104 146.515Z" fill="white"/>
<path d="M179.104 146.515L178.707 147.365L179.286 147.736L179.757 147.377L179.104 146.515ZM173.128 106.376L173.525 105.526L172.946 105.155L172.476 105.514L173.128 106.376ZM166.195 126.33L167.155 126.341L166.195 126.33ZM185.077 126.55C186.291 134.703 183.541 141.776 178.452 145.653L179.757 147.377C185.339 143.124 188.314 135.406 186.998 126.572L185.077 126.55ZM172.73 107.226C178.993 111.235 183.863 118.397 185.077 126.55L186.998 126.572C185.683 117.739 180.396 109.925 173.525 105.526L172.73 107.226ZM167.155 126.341C165.941 118.188 168.692 111.115 173.78 107.238L172.476 105.514C166.893 109.767 163.919 117.485 165.234 126.319L167.155 126.341ZM179.502 145.665C173.239 141.656 168.369 134.494 167.155 126.341L165.234 126.319C166.55 135.152 171.836 142.966 178.707 147.365L179.502 145.665Z" fill="black" mask="url(#path-34-inside-2)"/>
<path d="M173.704 108.162C173.704 108.162 176.577 119.024 177.597 126.01C178.672 133.373 178.904 144.773 178.904 144.773" stroke="black"/>
<path d="M170.476 116.78L176.948 123.747" stroke="black" stroke-linecap="round"/>
<path d="M171.129 126.162L178.248 132.544" stroke="black" stroke-linecap="round"/>
<path d="M173.076 135.798L178.253 139.663" stroke="black" stroke-linecap="round"/>
<path d="M178.898 137.654L182.129 133.307" stroke="black" stroke-linecap="round"/>
<path d="M178.891 127.688L181.475 123.925" stroke="black" stroke-linecap="round"/>
<path d="M177.592 120.315L178.883 116.298" stroke="black" stroke-linecap="round"/>
<mask id="path-43-inside-3" fill="white">
<path fill-rule="evenodd" clip-rule="evenodd" d="M94.5666 103.932C101.493 104.406 108.529 108.611 112.909 115.665C117.29 122.718 117.93 130.873 115.269 137.267C108.343 136.793 101.307 132.588 96.9265 125.534C92.546 118.481 91.9057 110.326 94.5666 103.932Z"/>
</mask>
<path fill-rule="evenodd" clip-rule="evenodd" d="M94.5666 103.932C101.493 104.406 108.529 108.611 112.909 115.665C117.29 122.718 117.93 130.873 115.269 137.267C108.343 136.793 101.307 132.588 96.9265 125.534C92.546 118.481 91.9057 110.326 94.5666 103.932Z" fill="white"/>
<path d="M94.5666 103.932L94.5065 102.906L93.9037 102.865L93.6721 103.421L94.5666 103.932ZM115.269 137.267L115.329 138.293L115.932 138.334L116.164 137.778L115.269 137.267ZM94.6267 104.958C101.228 105.41 107.94 109.419 112.121 116.152L113.698 115.178C109.118 107.804 101.757 103.402 94.5065 102.906L94.6267 104.958ZM112.121 116.152C116.302 122.885 116.911 130.663 114.375 136.756L116.164 137.778C118.95 131.084 118.278 122.552 113.698 115.178L112.121 116.152ZM115.209 136.241C108.608 135.789 101.896 131.78 97.7149 125.047L96.1381 126.021C100.718 133.395 108.079 137.797 115.329 138.293L115.209 136.241ZM97.7149 125.047C93.5335 118.315 92.925 110.537 95.461 104.443L93.6721 103.421C90.8864 110.115 91.5585 118.647 96.1381 126.021L97.7149 125.047Z" fill="black" mask="url(#path-43-inside-3)"/>
<path d="M95.7344 105.258C95.7344 105.258 102.343 113.641 105.93 119.453C109.71 125.58 114.416 135.791 114.416 135.791" stroke="black"/>
<path d="M96.5679 114.707L104.514 117.732" stroke="black" stroke-linecap="round"/>
<path d="M100.811 122.876L109.042 125.043" stroke="black" stroke-linecap="round"/>
<path d="M106.191 130.618L111.869 131.491" stroke="black" stroke-linecap="round"/>
<path d="M111.59 129.343L112.453 123.763" stroke="black" stroke-linecap="round"/>
<path d="M107.632 120.316L108.209 115.594" stroke="black" stroke-linecap="round"/>
<path d="M103.669 114.295L103.109 109.999" stroke="black" stroke-linecap="round"/>
<mask id="path-52-inside-4" fill="white">
<path fill-rule="evenodd" clip-rule="evenodd" d="M82.5623 120.419C84.077 113.749 82.3818 106.01 77.475 100.046C72.5684 94.0816 65.665 91.3687 59.3732 92.2318C57.8585 98.9019 59.5537 106.641 64.4604 112.605C69.3671 118.569 76.2704 121.282 82.5623 120.419Z"/>
</mask>
<path fill-rule="evenodd" clip-rule="evenodd" d="M82.5623 120.419C84.077 113.749 82.3818 106.01 77.475 100.046C72.5684 94.0816 65.665 91.3687 59.3732 92.2318C57.8585 98.9019 59.5537 106.641 64.4604 112.605C69.3671 118.569 76.2704 121.282 82.5623 120.419Z" fill="white"/>
<path d="M82.5623 120.419L82.7938 121.458L83.3538 121.381L83.4886 120.788L82.5623 120.419ZM59.3732 92.2318L59.1416 91.1929L58.5817 91.2697L58.4469 91.8633L59.3732 92.2318ZM76.8047 100.693C81.4627 106.355 83.0769 113.705 81.636 120.051L83.4886 120.788C85.077 113.793 83.3009 105.666 78.1453 99.399L76.8047 100.693ZM59.6047 93.2707C65.5903 92.4496 72.1469 95.0309 76.8047 100.693L78.1453 99.399C72.9899 93.1324 65.7398 90.2877 59.1416 91.1929L59.6047 93.2707ZM65.1307 111.958C60.4728 106.296 58.8586 98.9457 60.2995 92.6003L58.4469 91.8633C56.8584 98.8582 58.6346 106.985 63.7901 113.252L65.1307 111.958ZM82.3308 119.38C76.3452 120.201 69.7886 117.62 65.1307 111.958L63.7901 113.252C68.9456 119.519 76.1956 122.363 82.7938 121.458L82.3308 119.38Z" fill="black" mask="url(#path-52-inside-4)"/>
<path d="M60.6055 93.2868C60.6055 93.2868 67.6979 100.108 71.7203 105.027C75.9603 110.212 81.5934 119.158 81.5934 119.158" stroke="black"/>
<path d="M62.6509 102.237L70.2098 103.638" stroke="black" stroke-linecap="round"/>
<path d="M67.5879 109.302L75.2859 109.822" stroke="black" stroke-linecap="round"/>
<path d="M73.4878 115.74L78.7125 115.499" stroke="black" stroke-linecap="round"/>
<path d="M78.1662 113.482L78.1762 107.939" stroke="black" stroke-linecap="round"/>
<path d="M73.3689 105.534L73.2398 100.873" stroke="black" stroke-linecap="round"/>
<path d="M68.9784 100.486L67.8859 96.452" stroke="black" stroke-linecap="round"/>
<mask id="path-61-inside-5" fill="white">
<path fill-rule="evenodd" clip-rule="evenodd" d="M96.0278 128.345C95.7869 135.285 92.3077 141.484 86.2896 144.329C80.2716 147.174 73.2048 145.96 67.5864 141.789C67.8273 134.849 71.3066 128.65 77.3247 125.805C83.3427 122.96 90.4095 124.174 96.0278 128.345Z"/>
</mask>
<path fill-rule="evenodd" clip-rule="evenodd" d="M96.0278 128.345C95.7869 135.285 92.3077 141.484 86.2896 144.329C80.2716 147.174 73.2048 145.96 67.5864 141.789C67.8273 134.849 71.3066 128.65 77.3247 125.805C83.3427 122.96 90.4095 124.174 96.0278 128.345Z" fill="white"/>
<path d="M96.0278 128.345L96.9865 128.498L97.0079 127.881L96.509 127.511L96.0278 128.345ZM67.5864 141.789L66.6277 141.636L66.6063 142.253L67.1053 142.623L67.5864 141.789ZM95.0692 128.192C94.84 134.794 91.5323 140.674 85.8261 143.371L86.753 145.286C93.0831 142.294 96.7339 135.776 96.9865 128.498L95.0692 128.192ZM85.8261 143.371C80.1201 146.069 73.412 144.923 68.0676 140.956L67.1053 142.623C72.9976 146.997 80.423 148.279 86.753 145.286L85.8261 143.371ZM68.5451 141.942C68.7743 135.34 72.082 129.46 77.7881 126.763L76.8613 124.848C70.5312 127.84 66.8804 134.358 66.6277 141.636L68.5451 141.942ZM77.7881 126.763C83.4942 124.065 90.2022 125.211 95.5467 129.178L96.509 127.511C90.6167 123.137 83.1912 121.855 76.8613 124.848L77.7881 126.763Z" fill="black" mask="url(#path-61-inside-5)"/>
<path d="M68.7086 140.904C68.7086 140.904 75.8266 136.096 80.7861 133.775C86.0138 131.329 94.7667 128.875 94.7667 128.875" stroke="black"/>
<path d="M76.8945 142.218L79.3262 134.823" stroke="black" stroke-linecap="round"/>
<path d="M83.8853 139.767L85.5646 131.886" stroke="black" stroke-linecap="round"/>
<path d="M90.4771 136.063L91.095 130.484" stroke="black" stroke-linecap="round"/>
<path d="M89.2361 130.277L84.3684 128.122" stroke="black" stroke-linecap="round"/>
<path d="M81.4934 132.24L77.3781 130.572" stroke="black" stroke-linecap="round"/>
<path d="M76.3618 134.897L72.645 134.484" stroke="black" stroke-linecap="round"/>
<mask id="path-70-inside-6" fill="white">
<path fill-rule="evenodd" clip-rule="evenodd" d="M140.822 132.551C134.751 132.252 129.048 135.474 126.05 141.679C123.052 147.885 123.501 155.537 126.653 161.878C132.724 162.177 138.428 158.955 141.425 152.75C144.423 146.544 143.974 138.892 140.822 132.551Z"/>
</mask>
<path fill-rule="evenodd" clip-rule="evenodd" d="M140.822 132.551C134.751 132.252 129.048 135.474 126.05 141.679C123.052 147.885 123.501 155.537 126.653 161.878C132.724 162.177 138.428 158.955 141.425 152.75C144.423 146.544 143.974 138.892 140.822 132.551Z" fill="white"/>
<path d="M140.822 132.551L141.631 132.157L141.317 131.526L140.713 131.496L140.822 132.551ZM126.653 161.878L125.844 162.272L126.158 162.903L126.762 162.933L126.653 161.878ZM141.425 152.75L140.578 152.139L141.425 152.75ZM126.897 142.29C129.754 136.377 135.179 133.323 140.93 133.607L140.713 131.496C134.323 131.181 128.341 134.571 125.202 141.069L126.897 142.29ZM127.463 161.483C124.477 155.476 124.041 148.202 126.897 142.29L125.202 141.069C122.063 147.567 122.526 155.598 125.844 162.272L127.463 161.483ZM140.578 152.139C137.721 158.052 132.296 161.106 126.545 160.822L126.762 162.933C133.152 163.248 139.134 159.858 142.273 153.36L140.578 152.139ZM140.012 132.946C142.998 138.953 143.434 146.227 140.578 152.139L142.273 153.36C145.412 146.862 144.949 138.832 141.631 132.157L140.012 132.946Z" fill="black" mask="url(#path-70-inside-6)"/>
<path d="M127.042 160.404C127.042 160.404 129.896 151.776 132.378 146.684C134.994 141.316 140.161 133.793 140.161 133.793" stroke="black"/>
<path d="M133.604 156.589L131.822 148.508" stroke="black" stroke-linecap="round"/>
<path d="M137.496 150.144L134.935 142.087" stroke="black" stroke-linecap="round"/>
<path d="M140.497 142.822L138.271 137.466" stroke="black" stroke-linecap="round"/>
<path d="M136.826 138.414L132.265 139.456" stroke="black" stroke-linecap="round"/>
<path d="M132.155 144.883L128.373 145.901" stroke="black" stroke-linecap="round"/>
<path d="M129.709 150.38L126.817 152.275" stroke="black" stroke-linecap="round"/>
<mask id="path-79-inside-7" fill="white">
<path fill-rule="evenodd" clip-rule="evenodd" d="M168.261 138.477C161.528 138.152 155.196 141.68 151.859 148.471C148.522 155.262 149.007 163.635 152.491 170.572C159.224 170.897 165.556 167.368 168.893 160.577C172.23 153.786 171.745 145.414 168.261 138.477Z"/>
</mask>
<path fill-rule="evenodd" clip-rule="evenodd" d="M168.261 138.477C161.528 138.152 155.196 141.68 151.859 148.471C148.522 155.262 149.007 163.635 152.491 170.572C159.224 170.897 165.556 167.368 168.893 160.577C172.23 153.786 171.745 145.414 168.261 138.477Z" fill="white"/>
<path d="M168.261 138.477L169.076 138.08L168.763 137.456L168.157 137.427L168.261 138.477ZM152.491 170.572L151.676 170.969L151.989 171.593L152.595 171.622L152.491 170.572ZM152.71 149.076C155.903 142.578 161.953 139.217 168.365 139.527L168.157 137.427C161.103 137.086 154.488 140.782 151.007 147.866L152.71 149.076ZM153.306 170.175C149.988 163.569 149.517 155.574 152.71 149.076L151.007 147.866C147.527 154.951 148.025 163.701 151.676 170.969L153.306 170.175ZM168.041 159.972C164.849 166.47 158.799 169.831 152.387 169.522L152.595 171.622C159.649 171.962 166.263 168.267 169.744 161.182L168.041 159.972ZM167.446 138.874C170.764 145.479 171.234 153.474 168.041 159.972L169.744 161.182C173.225 154.098 172.726 145.348 169.076 138.08L167.446 138.874Z" fill="black" mask="url(#path-79-inside-7)"/>
<path d="M152.925 168.959C152.925 168.959 156.107 159.517 158.869 153.944C161.781 148.069 167.526 139.836 167.526 139.836" stroke="black"/>
<path d="M160.211 164.782L158.25 155.941" stroke="black" stroke-linecap="round"/>
<path d="M164.54 157.727L161.714 148.912" stroke="black" stroke-linecap="round"/>
<path d="M167.882 149.714L165.423 143.855" stroke="black" stroke-linecap="round"/>
<path d="M163.818 144.893L158.758 146.035" stroke="black" stroke-linecap="round"/>
<path d="M158.625 151.973L154.428 153.09" stroke="black" stroke-linecap="round"/>
<path d="M155.903 157.989L152.692 160.065" stroke="black" stroke-linecap="round"/>
</svg>
