<svg width="253" height="249" viewBox="0 0 253 249" fill="none" xmlns="http://www.w3.org/2000/svg">
<mask id="path-1-inside-1" fill="white">
<path fill-rule="evenodd" clip-rule="evenodd" d="M53.1313 70.865C53.372 68.9898 53.5353 66.6597 53.6215 63.7859C53.6215 52.9401 49.0237 53.203 40.945 53.665C39.1286 53.7689 37.1363 53.8828 34.9807 53.8828C23.2376 53.8828 13.7179 58.3166 13.7179 63.7859C13.7179 63.9189 13.7235 64.0513 13.7347 64.1831C5.70719 65.5988 0 69.2128 0 73.4476C0 78.5994 8.44639 82.8323 19.2414 83.3065C22.571 86.7501 30.0038 89.1474 38.6388 89.1474C50.3819 89.1474 53.1385 89.0614 53.1385 83.592V71.2736C53.1385 71.1349 53.1361 70.9988 53.1313 70.865Z"/>
</mask>
<path d="M53.1313 70.865L52.1394 70.7377L52.129 70.8188L52.1319 70.9006L53.1313 70.865ZM53.6215 63.7859L54.6211 63.8159L54.6215 63.8009V63.7859H53.6215ZM40.945 53.665L41.0021 54.6634L40.945 53.665ZM13.7347 64.1831L13.9084 65.1679L14.8082 65.0092L14.7311 64.0987L13.7347 64.1831ZM19.2414 83.3065L19.9603 82.6114L19.6833 82.3249L19.2853 82.3074L19.2414 83.3065ZM54.1232 70.9923C54.3694 69.0735 54.5343 66.7083 54.6211 63.8159L52.622 63.7559C52.5363 66.611 52.3745 68.9061 52.1394 70.7377L54.1232 70.9923ZM54.6215 63.7859C54.6215 58.301 53.4719 55.1365 50.8084 53.6165C49.5316 52.8878 48.0181 52.6108 46.3848 52.5276C44.7525 52.4444 42.8914 52.5521 40.8879 52.6666L41.0021 54.6634C43.0379 54.547 44.7811 54.4485 46.283 54.525C47.7839 54.6015 48.9347 54.85 49.8171 55.3536C51.4723 56.2981 52.6215 58.425 52.6215 63.7859H54.6215ZM40.8879 52.6666C39.0691 52.7707 37.1038 52.8828 34.9807 52.8828V54.8828C37.1688 54.8828 39.1882 54.7671 41.0021 54.6634L40.8879 52.6666ZM34.9807 52.8828C28.9969 52.8828 23.5309 54.0104 19.5234 55.8769C15.5978 57.7052 12.7179 60.4309 12.7179 63.7859H14.7179C14.7179 61.6716 16.5979 59.4457 20.3678 57.6899C24.0559 55.9721 29.2213 54.8828 34.9807 54.8828V52.8828ZM12.7179 63.7859C12.7179 63.9472 12.7247 64.1077 12.7383 64.2675L14.7311 64.0987C14.7223 63.9949 14.7179 63.8907 14.7179 63.7859H12.7179ZM13.561 63.1983C9.45758 63.9219 5.88262 65.2169 3.3048 66.9245C0.749898 68.6169 -1 70.8439 -1 73.4476H1C1 71.8164 2.1037 70.1191 4.40928 68.5918C6.69192 67.0798 9.98431 65.8599 13.9084 65.1679L13.561 63.1983ZM-1 73.4476C-1 76.6106 1.56527 79.2137 5.11898 81.0223C8.73701 82.8638 13.6949 84.0638 19.1975 84.3055L19.2853 82.3074C13.9929 82.075 9.33007 80.9215 6.02616 79.2399C2.65792 77.5256 1 75.4363 1 73.4476H-1ZM38.6388 88.1474C34.4097 88.1474 30.4927 87.5599 27.2441 86.5623C23.9785 85.5596 21.4639 84.1664 19.9603 82.6114L18.5225 84.0016C20.3485 85.8902 23.2151 87.4174 26.657 88.4743C30.116 89.5363 34.2329 90.1474 38.6388 90.1474V88.1474ZM52.1385 83.592C52.1385 84.9017 51.968 85.7226 51.655 86.2732C51.3679 86.778 50.893 87.1722 49.9816 87.4702C49.0362 87.7793 47.702 87.957 45.8096 88.0497C43.9291 88.1418 41.5814 88.1474 38.6388 88.1474V90.1474C41.5677 90.1474 43.9682 90.1423 45.9074 90.0473C47.8345 89.9529 49.3914 89.7673 50.603 89.3712C51.8486 88.964 52.7968 88.3112 53.3936 87.2617C53.9643 86.2579 54.1385 85.017 54.1385 83.592H52.1385ZM52.1385 71.2736V83.592H54.1385V71.2736H52.1385ZM52.1319 70.9006C52.1363 71.0222 52.1385 71.1465 52.1385 71.2736H54.1385C54.1385 71.1234 54.1359 70.9753 54.1307 70.8294L52.1319 70.9006Z" fill="black" mask="url(#path-1-inside-1)"/>
<rect x="53.1387" y="49.5356" width="70.5292" height="129.465" stroke="black" stroke-linecap="round" stroke-linejoin="round"/>
<path d="M123.426 49.5353L141.3 32.1445" stroke="black" stroke-linecap="round" stroke-linejoin="round"/>
<path d="M123.667 179L141.3 161.368V32.1445" stroke="black" stroke-linecap="round" stroke-linejoin="round"/>
<path d="M53.1387 49.5353L71.0125 32.1445" stroke="black" stroke-linecap="round" stroke-linejoin="round"/>
<path d="M141.058 32.1445H71.0122" stroke="black" stroke-linecap="round" stroke-linejoin="round"/>
<rect x="65.2324" y="59.697" width="9.14462" height="15.4246" stroke="black"/>
<rect x="65.2324" y="85.783" width="9.14462" height="15.4246" stroke="black"/>
<rect x="65.2324" y="111.869" width="9.14462" height="15.4246" stroke="black"/>
<rect x="65.2324" y="137.956" width="9.14462" height="15.4246" stroke="black"/>
<rect x="84.0723" y="59.697" width="9.14462" height="15.4246" stroke="black"/>
<rect x="84.0723" y="85.783" width="9.14462" height="15.4246" stroke="black"/>
<rect x="84.0723" y="111.869" width="9.14462" height="15.4246" stroke="black"/>
<rect x="84.0723" y="137.956" width="9.14462" height="15.4246" stroke="black"/>
<rect x="82.1401" y="158.728" width="13.0092" height="19.7723" stroke="black"/>
<rect x="102.912" y="59.697" width="9.14462" height="15.4246" stroke="black"/>
<path d="M128.999 74.5163V59.1715L135.969 52.6232V68.3905L128.999 74.5163Z" stroke="black"/>
<path d="M128.999 100.603V85.2577L135.969 78.7094V94.4767L128.999 100.603Z" stroke="black"/>
<path d="M128.999 126.689V111.344L135.969 104.796V120.563L128.999 126.689Z" stroke="black"/>
<path d="M128.999 152.775V137.43L135.969 130.882V146.649L128.999 152.775Z" stroke="black"/>
<path d="M130.448 167.648V158.411L134.762 154.521V163.334L130.448 167.648Z" stroke="black"/>
<rect x="102.912" y="85.783" width="9.14462" height="15.4246" stroke="black"/>
<rect x="102.912" y="111.869" width="9.14462" height="15.4246" stroke="black"/>
<rect x="102.912" y="137.956" width="9.14462" height="15.4246" stroke="black"/>
<rect x="102.912" y="158.728" width="9.14462" height="9.62769" stroke="black"/>
<rect x="65.2324" y="158.728" width="9.14462" height="9.62769" stroke="black"/>
<mask id="path-28-inside-2" fill="white">
<path fill-rule="evenodd" clip-rule="evenodd" d="M126.325 22C135.019 22 142.56 24.1776 146.293 27.3632C147.034 27.3307 147.786 27.314 148.546 27.314C160.952 27.314 171.009 31.7478 171.009 37.2171C171.009 42.071 163.088 46.1092 152.634 46.9566C152.646 47.0909 152.652 47.226 152.652 47.3617C152.652 52.831 142.595 57.2647 130.189 57.2647C121.066 57.2647 113.214 54.8672 109.696 51.4235C98.2922 50.9493 89.3691 46.7163 89.3691 41.5646C89.3691 37.3298 95.3985 33.7158 103.879 32.3001C103.867 32.1684 103.861 32.036 103.861 31.9031C103.861 26.4338 113.919 22 126.325 22Z"/>
</mask>
<path fill-rule="evenodd" clip-rule="evenodd" d="M126.325 22C135.019 22 142.56 24.1776 146.293 27.3632C147.034 27.3307 147.786 27.314 148.546 27.314C160.952 27.314 171.009 31.7478 171.009 37.2171C171.009 42.071 163.088 46.1092 152.634 46.9566C152.646 47.0909 152.652 47.226 152.652 47.3617C152.652 52.831 142.595 57.2647 130.189 57.2647C121.066 57.2647 113.214 54.8672 109.696 51.4235C98.2922 50.9493 89.3691 46.7163 89.3691 41.5646C89.3691 37.3298 95.3985 33.7158 103.879 32.3001C103.867 32.1684 103.861 32.036 103.861 31.9031C103.861 26.4338 113.919 22 126.325 22Z" fill="white"/>
<path d="M146.293 27.3632L145.644 28.1239L145.944 28.3795L146.337 28.3622L146.293 27.3632ZM152.634 46.9566L152.553 45.9599L151.546 46.0415L151.638 47.0475L152.634 46.9566ZM109.696 51.4235L110.396 50.7089L110.122 50.4403L109.738 50.4243L109.696 51.4235ZM103.879 32.3001L104.044 33.2864L104.958 33.1339L104.875 32.211L103.879 32.3001ZM146.942 26.6024C142.946 23.1927 135.121 21 126.325 21V23C134.917 23 142.173 25.1625 145.644 28.1239L146.942 26.6024ZM148.546 26.314C147.771 26.314 147.005 26.331 146.25 26.3641L146.337 28.3622C147.063 28.3303 147.8 28.314 148.546 28.314V26.314ZM172.009 37.2171C172.009 35.5216 171.226 33.9834 169.965 32.67C168.71 31.3617 166.942 30.229 164.833 29.2995C160.614 27.4393 154.855 26.314 148.546 26.314V28.314C154.644 28.314 160.116 29.4056 164.026 31.1296C165.983 31.9922 167.504 32.9935 168.522 34.0547C169.536 35.1109 170.009 36.1779 170.009 37.2171H172.009ZM152.715 47.9533C158.035 47.5221 162.768 46.2762 166.206 44.4751C169.579 42.7075 172.009 40.2273 172.009 37.2171H170.009C170.009 39.0607 168.478 41.0266 165.278 42.7035C162.141 44.3468 157.687 45.5437 152.553 45.9599L152.715 47.9533ZM151.638 47.0475C151.647 47.1517 151.652 47.2564 151.652 47.3617H153.652C153.652 47.1955 153.645 47.0302 153.63 46.8657L151.638 47.0475ZM151.652 47.3617C151.652 48.4008 151.179 49.4678 150.165 50.5241C149.147 51.5853 147.626 52.5866 145.67 53.4492C141.759 55.1732 136.287 56.2647 130.189 56.2647V58.2647C136.498 58.2647 142.257 57.1394 146.476 55.2792C148.585 54.3497 150.353 53.2171 151.609 51.9087C152.869 50.5954 153.652 49.0572 153.652 47.3617H151.652ZM130.189 56.2647C125.711 56.2647 121.562 55.6759 118.12 54.6753C114.659 53.6693 111.991 52.2705 110.396 50.7089L108.997 52.138C110.919 54.0202 113.936 55.5421 117.562 56.5958C121.205 57.6549 125.544 58.2647 130.189 58.2647V56.2647ZM88.3691 41.5646C88.3691 44.7563 91.0948 47.3533 94.8222 49.149C98.631 50.984 103.854 52.1814 109.655 52.4226L109.738 50.4243C104.135 50.1913 99.1939 49.0352 95.6902 47.3472C92.105 45.6199 90.3691 43.5246 90.3691 41.5646H88.3691ZM103.715 31.3137C99.3899 32.0356 95.6256 33.3269 92.9127 35.0279C90.2326 36.7084 88.3691 38.9345 88.3691 41.5646H90.3691C90.3691 39.9598 91.5204 38.2616 93.9751 36.7224C96.3971 35.2038 99.8877 33.9802 104.044 33.2864L103.715 31.3137ZM102.861 31.9031C102.861 32.0659 102.869 32.228 102.883 32.3892L104.875 32.211C104.866 32.1088 104.861 32.0062 104.861 31.9031H102.861ZM126.325 21C120.016 21 114.257 22.1253 110.037 23.9855C107.929 24.915 106.16 26.0477 104.905 27.356C103.645 28.6694 102.861 30.2076 102.861 31.9031H104.861C104.861 30.8639 105.335 29.7969 106.348 28.7407C107.366 27.6794 108.888 26.6782 110.844 25.8156C114.755 24.0916 120.227 23 126.325 23V21Z" fill="black" mask="url(#path-28-inside-2)"/>
<path d="M144.47 82.0894C144.47 82.0894 126.799 93.4184 120.976 104.189C115.154 114.959 122.763 133.114 114.673 153.633C106.909 173.324 78.7324 189.289 78.7324 189.289" stroke="black"/>
<mask id="path-31-inside-3" fill="white">
<path fill-rule="evenodd" clip-rule="evenodd" d="M117.136 147.602C124.004 150.803 132.804 150.753 140.452 146.789C148.1 142.826 152.703 135.931 153.281 128.872C146.413 125.672 137.613 125.722 129.965 129.685C122.317 133.648 117.714 140.543 117.136 147.602Z"/>
</mask>
<path fill-rule="evenodd" clip-rule="evenodd" d="M117.136 147.602C124.004 150.803 132.804 150.753 140.452 146.789C148.1 142.826 152.703 135.931 153.281 128.872C146.413 125.672 137.613 125.722 129.965 129.685C122.317 133.648 117.714 140.543 117.136 147.602Z" fill="white"/>
<path d="M117.136 147.602L116.074 147.61L116.028 148.176L116.579 148.433L117.136 147.602ZM153.281 128.872L154.343 128.865L154.389 128.298L153.838 128.041L153.281 128.872ZM139.966 145.997C132.665 149.78 124.26 149.831 117.693 146.771L116.579 148.433C123.749 151.774 132.944 151.725 140.939 147.582L139.966 145.997ZM152.22 128.88C151.667 135.63 147.268 142.213 139.966 145.997L140.939 147.582C148.933 143.439 153.74 136.233 154.343 128.865L152.22 128.88ZM130.451 130.478C137.752 126.694 146.157 126.643 152.725 129.703L153.838 128.041C146.669 124.7 137.474 124.749 129.479 128.892L130.451 130.478ZM118.198 147.595C118.75 140.845 123.15 134.261 130.451 130.478L129.479 128.892C121.484 133.035 116.678 140.241 116.074 147.61L118.198 147.595Z" fill="black" mask="url(#path-31-inside-3)"/>
<path d="M151.84 129.97C151.84 129.97 142.736 136.117 136.435 139.359C129.792 142.776 118.735 146.838 118.735 146.838" stroke="black"/>
<path d="M141.644 130.122L138.305 138.036" stroke="black" stroke-linecap="round"/>
<path d="M132.793 133.862L130.377 142.132" stroke="black" stroke-linecap="round"/>
<path d="M124.393 138.798L123.397 144.549" stroke="black" stroke-linecap="round"/>
<path d="M125.716 144.422L131.725 145.721" stroke="black" stroke-linecap="round"/>
<path d="M135.487 141.038L140.574 141.981" stroke="black" stroke-linecap="round"/>
<path d="M142.019 137.426L146.656 137.172" stroke="black" stroke-linecap="round"/>
<mask id="path-40-inside-4" fill="white">
<path fill-rule="evenodd" clip-rule="evenodd" d="M98.8078 173.255C101.87 179.223 108.646 183.342 117.23 183.592C125.813 183.842 134.078 180.161 139.372 174.437C136.31 168.469 129.533 164.35 120.95 164.1C112.367 163.85 104.102 167.531 98.8078 173.255Z"/>
</mask>
<path fill-rule="evenodd" clip-rule="evenodd" d="M98.8078 173.255C101.87 179.223 108.646 183.342 117.23 183.592C125.813 183.842 134.078 180.161 139.372 174.437C136.31 168.469 129.533 164.35 120.95 164.1C112.367 163.85 104.102 167.531 98.8078 173.255Z" fill="white"/>
<path d="M98.8078 173.255L98.0411 172.714L97.5741 173.219L97.8442 173.746L98.8078 173.255ZM139.372 174.437L140.139 174.978L140.606 174.473L140.336 173.947L139.372 174.437ZM120.95 164.1L120.77 165.043L120.95 164.1ZM117.41 182.649C109.171 182.409 102.692 178.456 99.7714 172.765L97.8442 173.746C101.048 179.99 108.122 184.276 117.05 184.536L117.41 182.649ZM138.605 173.896C133.556 179.355 125.649 182.889 117.41 182.649L117.05 184.536C125.977 184.796 134.6 180.967 140.139 174.978L138.605 173.896ZM120.77 165.043C129.009 165.283 135.488 169.236 138.408 174.928L140.336 173.947C137.132 167.702 130.058 163.416 121.13 163.156L120.77 165.043ZM99.5745 173.796C104.624 168.337 112.531 164.803 120.77 165.043L121.13 163.156C112.203 162.896 103.58 166.725 98.0411 172.714L99.5745 173.796Z" fill="black" mask="url(#path-40-inside-4)"/>
<path d="M137.512 174.689C137.512 174.689 126.314 175.606 119.258 175.38C111.82 175.142 100.557 173.364 100.557 173.364" stroke="black"/>
<path d="M129.597 169.995L121.6 175.14" stroke="black" stroke-linecap="round"/>
<path d="M120.246 168.987L112.711 174.871" stroke="black" stroke-linecap="round"/>
<path d="M110.418 169.208L105.702 173.623" stroke="black" stroke-linecap="round"/>
<path d="M107.566 174.612L111.277 178.557" stroke="black" stroke-linecap="round"/>
<path d="M117.378 176.359L120.628 179.565" stroke="black" stroke-linecap="round"/>
<path d="M124.865 176.379L128.592 178.356" stroke="black" stroke-linecap="round"/>
<mask id="path-49-inside-5" fill="white">
<path fill-rule="evenodd" clip-rule="evenodd" d="M155.605 97.5325C153.92 104.267 148.541 110.453 140.827 113.524C133.113 116.595 124.972 115.789 119.147 112.045C120.832 105.31 126.211 99.124 133.925 96.0533C141.639 92.9827 149.78 93.7878 155.605 97.5325Z"/>
</mask>
<path fill-rule="evenodd" clip-rule="evenodd" d="M155.605 97.5325C153.92 104.267 148.541 110.453 140.827 113.524C133.113 116.595 124.972 115.789 119.147 112.045C120.832 105.31 126.211 99.124 133.925 96.0533C141.639 92.9827 149.78 93.7878 155.605 97.5325Z" fill="white"/>
<path d="M155.605 97.5325L156.626 97.654L156.773 97.0679L156.266 96.742L155.605 97.5325ZM119.147 112.045L118.126 111.923L117.979 112.509L118.486 112.835L119.147 112.045ZM154.585 97.4111C152.978 103.83 147.85 109.731 140.486 112.662L141.167 114.386C149.232 111.175 154.861 104.704 156.626 97.654L154.585 97.4111ZM140.486 112.662C133.123 115.593 125.359 114.823 119.807 111.254L118.486 112.835C124.585 116.756 133.102 117.596 141.167 114.386L140.486 112.662ZM120.167 112.166C121.774 105.748 126.902 99.8462 134.266 96.9151L133.585 95.1916C125.52 98.4018 119.891 104.873 118.126 111.923L120.167 112.166ZM134.266 96.9151C141.629 93.9841 149.393 94.7541 154.945 98.3231L156.266 96.742C150.167 92.8216 141.65 91.9814 133.585 95.1916L134.266 96.9151Z" fill="black" mask="url(#path-49-inside-5)"/>
<path d="M154.094 98.4486C154.094 98.4486 144.679 103.478 138.326 105.986C131.63 108.629 120.749 111.465 120.749 111.465" stroke="black"/>
<path d="M144.646 97.606L140.27 104.895" stroke="black" stroke-linecap="round"/>
<path d="M135.858 100.345L132.276 108.067" stroke="black" stroke-linecap="round"/>
<path d="M127.29 104.279L125.431 109.715" stroke="black" stroke-linecap="round"/>
<path d="M127.595 109.818L132.936 111.649" stroke="black" stroke-linecap="round"/>
<path d="M137.178 107.51L141.725 108.91" stroke="black" stroke-linecap="round"/>
<path d="M143.803 104.669L148.129 104.874" stroke="black" stroke-linecap="round"/>
<mask id="path-58-inside-6" fill="white">
<path fill-rule="evenodd" clip-rule="evenodd" d="M141.489 82.8136C147.788 85.4787 155.704 85.1721 162.439 81.3918C169.174 77.6115 173.06 71.2935 173.317 64.9479C167.018 62.2829 159.102 62.5894 152.367 66.3698C145.632 70.15 141.746 76.4681 141.489 82.8136Z"/>
</mask>
<path fill-rule="evenodd" clip-rule="evenodd" d="M141.489 82.8136C147.788 85.4787 155.704 85.1721 162.439 81.3918C169.174 77.6115 173.06 71.2935 173.317 64.9479C167.018 62.2829 159.102 62.5894 152.367 66.3698C145.632 70.15 141.746 76.4681 141.489 82.8136Z" fill="white"/>
<path d="M141.489 82.8136L140.425 82.8587L140.402 83.4234L140.963 83.6606L141.489 82.8136ZM173.317 64.9479L174.381 64.9029L174.404 64.3381L173.843 64.1009L173.317 64.9479ZM161.92 80.6181C155.527 84.2068 148.007 84.502 142.014 81.9666L140.963 83.6606C147.569 86.4554 155.882 86.1375 162.958 82.1655L161.92 80.6181ZM172.254 64.993C172.009 71.0296 168.314 77.0295 161.92 80.6181L162.958 82.1655C170.034 78.1935 174.111 71.5574 174.381 64.9029L172.254 64.993ZM152.886 67.1435C159.279 63.5548 166.799 63.2596 172.792 65.7949L173.843 64.1009C167.237 61.3061 158.924 61.624 151.848 65.5961L152.886 67.1435ZM142.552 82.7686C142.797 76.7319 146.492 70.7321 152.886 67.1435L151.848 65.5961C144.772 69.568 140.695 76.2042 140.425 82.8587L142.552 82.7686Z" fill="black" mask="url(#path-58-inside-6)"/>
<path d="M172.062 65.9757C172.062 65.9757 164.099 71.7566 158.549 74.8505C152.698 78.1116 142.9 82.0821 142.9 82.0821" stroke="black"/>
<path d="M162.892 66.4138L160.182 73.608" stroke="black" stroke-linecap="round"/>
<path d="M155.068 70.0303L153.201 77.5165" stroke="black" stroke-linecap="round"/>
<path d="M147.692 74.7046L147.009 79.8901" stroke="black" stroke-linecap="round"/>
<path d="M149.091 79.7076L154.547 80.6931" stroke="black" stroke-linecap="round"/>
<path d="M157.759 76.3841L162.371 77.0776" stroke="black" stroke-linecap="round"/>
<path d="M163.501 72.9505L167.665 72.5851" stroke="black" stroke-linecap="round"/>
<mask id="path-67-inside-7" fill="white">
<path fill-rule="evenodd" clip-rule="evenodd" d="M130.991 93.6645C124.26 92.3029 118.841 87.9709 117.158 81.7624C115.476 75.5543 117.946 69.0068 123.039 64.3239C129.77 65.6856 135.189 70.0175 136.872 76.226C138.554 82.4341 136.084 88.9816 130.991 93.6645Z"/>
</mask>
<path fill-rule="evenodd" clip-rule="evenodd" d="M130.991 93.6645C124.26 92.3029 118.841 87.9709 117.158 81.7624C115.476 75.5543 117.946 69.0068 123.039 64.3239C129.77 65.6856 135.189 70.0175 136.872 76.226C138.554 82.4341 136.084 88.9816 130.991 93.6645Z" fill="white"/>
<path d="M130.991 93.6645L130.685 94.584L131.273 94.7029L131.717 94.2939L130.991 93.6645ZM117.158 81.7624L116.134 82.0501L117.158 81.7624ZM123.039 64.3239L123.345 63.4045L122.757 63.2856L122.313 63.6945L123.039 64.3239ZM131.298 92.745C124.893 91.4495 119.771 87.3374 118.182 81.4748L116.134 82.0501C117.91 88.6044 123.626 93.1563 130.685 94.584L131.298 92.745ZM118.182 81.4748C116.594 75.6125 118.919 69.409 123.765 64.9534L122.313 63.6945C116.973 68.6047 114.358 75.4961 116.134 82.0501L118.182 81.4748ZM122.732 65.2434C129.137 66.539 134.259 70.651 135.848 76.5136L137.896 75.9383C136.12 69.384 130.404 64.8321 123.345 63.4045L122.732 65.2434ZM135.848 76.5136C137.436 82.376 135.111 88.5794 130.265 93.0351L131.717 94.2939C137.057 89.3838 139.672 82.4923 137.896 75.9383L135.848 76.5136Z" fill="black" mask="url(#path-67-inside-7)"/>
<path d="M123.763 65.5708C123.763 65.5708 127.243 73.4239 128.655 78.7145C130.143 84.2912 131.018 93.3393 131.018 93.3393" stroke="black"/>
<path d="M121.029 73.3975L127.88 77.0927" stroke="black" stroke-linecap="round"/>
<path d="M122.21 80.71L129.673 83.7503" stroke="black" stroke-linecap="round"/>
<path d="M124.697 87.8511L130.08 89.4414" stroke="black" stroke-linecap="round"/>
<path d="M130.61 87.6479L133.588 83.2355" stroke="black" stroke-linecap="round"/>
<path d="M130.04 79.6806L132.407 75.923" stroke="black" stroke-linecap="round"/>
<path d="M128.329 74.1617L129.39 70.5757" stroke="black" stroke-linecap="round"/>
<mask id="path-76-inside-8" fill="white">
<path fill-rule="evenodd" clip-rule="evenodd" d="M119.291 138.028C120.655 132.105 118.487 125.923 112.906 121.88C107.325 117.837 99.7134 116.932 92.9168 118.919C91.5535 124.842 93.7213 131.024 99.302 135.067C104.883 139.111 112.495 140.015 119.291 138.028Z"/>
</mask>
<path fill-rule="evenodd" clip-rule="evenodd" d="M119.291 138.028C120.655 132.105 118.487 125.923 112.906 121.88C107.325 117.837 99.7134 116.932 92.9168 118.919C91.5535 124.842 93.7213 131.024 99.302 135.067C104.883 139.111 112.495 140.015 119.291 138.028Z" fill="white"/>
<path d="M119.291 138.028L119.537 138.894L120.214 138.696L120.349 138.107L119.291 138.028ZM92.9168 118.919L92.6706 118.053L91.9942 118.251L91.8586 118.84L92.9168 118.919ZM99.302 135.067L100.052 134.34L99.302 135.067ZM112.156 122.607C117.474 126.46 119.525 132.338 118.233 137.949L120.349 138.107C121.785 131.872 119.5 125.387 113.656 121.153L112.156 122.607ZM93.1629 119.785C99.6016 117.903 106.838 118.754 112.156 122.607L113.656 121.153C107.812 116.919 99.8252 115.962 92.6706 118.053L93.1629 119.785ZM100.052 134.34C94.7345 130.487 92.6835 124.609 93.975 118.998L91.8586 118.84C90.4235 125.075 92.7081 131.56 98.552 135.794L100.052 134.34ZM119.045 137.162C112.606 139.044 105.37 138.193 100.052 134.34L98.552 135.794C104.396 140.028 112.383 140.985 119.537 138.894L119.045 137.162Z" fill="black" mask="url(#path-76-inside-8)"/>
<path d="M94.2994 119.561C94.2994 119.561 102.29 123.889 106.866 127.228C111.69 130.749 118.185 137.159 118.185 137.159" stroke="black"/>
<path d="M96.8994 126.692L105.168 126.36" stroke="black" stroke-linecap="round"/>
<path d="M102.559 131.657L110.941 130.555" stroke="black" stroke-linecap="round"/>
<path d="M109.238 135.901L114.902 134.652" stroke="black" stroke-linecap="round"/>
<path d="M114.223 133.062L114 128.389" stroke="black" stroke-linecap="round"/>
<path d="M108.678 127.326L108.341 123.424" stroke="black" stroke-linecap="round"/>
<path d="M103.697 123.951L102.34 120.771" stroke="black" stroke-linecap="round"/>
<mask id="path-85-inside-9" fill="white">
<path fill-rule="evenodd" clip-rule="evenodd" d="M108.629 163.996C110.134 157.425 107.775 150.57 101.678 146.09C95.5798 141.61 87.2526 140.614 79.811 142.822C78.306 149.393 80.6645 156.248 86.7624 160.728C92.8601 165.208 101.187 166.204 108.629 163.996Z"/>
</mask>
<path fill-rule="evenodd" clip-rule="evenodd" d="M108.629 163.996C110.134 157.425 107.775 150.57 101.678 146.09C95.5798 141.61 87.2526 140.614 79.811 142.822C78.306 149.393 80.6645 156.248 86.7624 160.728C92.8601 165.208 101.187 166.204 108.629 163.996Z" fill="white"/>
<path d="M108.629 163.996L108.876 164.868L109.546 164.669L109.681 164.078L108.629 163.996ZM79.811 142.822L79.5636 141.95L78.8943 142.149L78.759 142.74L79.811 142.822ZM100.932 146.822C106.767 151.109 109.01 157.656 107.577 163.913L109.681 164.078C111.258 157.194 108.784 150.032 102.423 145.359L100.932 146.822ZM80.0583 143.694C87.1448 141.591 95.0977 142.535 100.932 146.822L102.423 145.359C96.0619 140.685 87.3604 139.636 79.5636 141.95L80.0583 143.694ZM87.5079 159.996C81.6733 155.709 79.4298 149.162 80.8629 142.905L78.759 142.74C77.1822 149.624 79.6557 156.786 86.017 161.459L87.5079 159.996ZM108.382 163.124C101.295 165.227 93.3422 164.283 87.5079 159.996L86.017 161.459C92.3781 166.133 101.08 167.182 108.876 164.868L108.382 163.124Z" fill="black" mask="url(#path-85-inside-9)"/>
<path d="M81.3221 143.534C81.3221 143.534 90.0563 148.328 95.0564 152.028C100.327 155.929 107.421 163.033 107.421 163.033" stroke="black"/>
<path d="M84.1514 151.441L93.1998 151.067" stroke="black" stroke-linecap="round"/>
<path d="M90.334 156.944L99.5086 155.715" stroke="black" stroke-linecap="round"/>
<path d="M97.6338 161.645L103.834 160.256" stroke="black" stroke-linecap="round"/>
<path d="M103.095 158.493L102.861 153.31" stroke="black" stroke-linecap="round"/>
<path d="M97.0392 152.135L96.679 147.807" stroke="black" stroke-linecap="round"/>
<path d="M91.596 148.396L90.1182 144.869" stroke="black" stroke-linecap="round"/>
</svg>
