<?xml version="1.0" encoding="utf-8"?>
<!-- Generator: Adobe Illustrator 23.1.0, SVG Export Plug-In . SVG Version: 6.00 Build 0)  -->
<svg version="1.1" id="Слой_1" xmlns="http://www.w3.org/2000/svg" xmlns:xlink="http://www.w3.org/1999/xlink" x="0px" y="0px"
	 viewBox="0 0 190 190" style="enable-background:new 0 0 190 190;" xml:space="preserve">
<style type="text/css">
	.st0{fill-rule:evenodd;clip-rule:evenodd;fill:#FFFFFF;filter:url(#Adobe_OpacityMaskFilter);}
	.st1{mask:url(#path-1-inside-1_1_);}
	.st2{fill:none;stroke:#000000;stroke-linecap:round;stroke-linejoin:round;}
	.st3{fill:none;stroke:#000000;}
	.st4{fill-rule:evenodd;clip-rule:evenodd;fill:#FFFFFF;}
	.st5{fill-rule:evenodd;clip-rule:evenodd;fill:#FFFFFF;filter:url(#Adobe_OpacityMaskFilter_1_);}
	.st6{mask:url(#path-28-inside-2_1_);}
	.st7{fill-rule:evenodd;clip-rule:evenodd;fill:#FFFFFF;filter:url(#Adobe_OpacityMaskFilter_2_);}
	.st8{mask:url(#path-31-inside-3_1_);}
	.st9{fill:none;stroke:#000000;stroke-linecap:round;}
	.st10{fill-rule:evenodd;clip-rule:evenodd;fill:#FFFFFF;filter:url(#Adobe_OpacityMaskFilter_3_);}
	.st11{mask:url(#path-40-inside-4_1_);}
	.st12{fill-rule:evenodd;clip-rule:evenodd;fill:#FFFFFF;filter:url(#Adobe_OpacityMaskFilter_4_);}
	.st13{mask:url(#path-49-inside-5_1_);}
	.st14{fill-rule:evenodd;clip-rule:evenodd;fill:#FFFFFF;filter:url(#Adobe_OpacityMaskFilter_5_);}
	.st15{mask:url(#path-58-inside-6_1_);}
	.st16{fill-rule:evenodd;clip-rule:evenodd;fill:#FFFFFF;filter:url(#Adobe_OpacityMaskFilter_6_);}
	.st17{mask:url(#path-67-inside-7_1_);}
	.st18{fill-rule:evenodd;clip-rule:evenodd;fill:#FFFFFF;filter:url(#Adobe_OpacityMaskFilter_7_);}
	.st19{mask:url(#path-76-inside-8_1_);}
	.st20{fill-rule:evenodd;clip-rule:evenodd;fill:#FFFFFF;filter:url(#Adobe_OpacityMaskFilter_8_);}
	.st21{mask:url(#path-85-inside-9_1_);}
</style>
<defs>
	<filter id="Adobe_OpacityMaskFilter" filterUnits="userSpaceOnUse" x="-0.8" y="44.4" width="55.6" height="37.6">
		<feColorMatrix  type="matrix" values="1 0 0 0 0  0 1 0 0 0  0 0 1 0 0  0 0 0 1 0"/>
	</filter>
</defs>
<mask maskUnits="userSpaceOnUse" x="-0.8" y="44.4" width="55.6" height="37.6" id="path-1-inside-1_1_">
	<path class="st0" d="M53.4,62.7c0.2-1.9,0.4-4.2,0.5-7.1c0-10.8-4.6-10.6-12.7-10.1c-1.8,0.1-3.8,0.2-6,0.2
		c-11.7,0-21.3,4.4-21.3,9.9c0,0.1,0,0.3,0,0.4c-8,1.4-13.7,5-13.7,9.3c0,5.2,8.4,9.4,19.2,9.9c3.3,3.4,10.8,5.8,19.4,5.8
		c11.7,0,14.5-0.1,14.5-5.6V63.2C53.4,63,53.4,62.9,53.4,62.7z"/>
</mask>
<path class="st1" d="M53.4,62.7l-1-0.1l0,0.1l0,0.1L53.4,62.7z M53.8,55.7l1,0l0,0v0H53.8z M41.2,45.5l0.1,1L41.2,45.5z M14,56.1
	l0.2,1l0.9-0.2L15,56L14,56.1z M19.5,75.2l0.7-0.7l-0.3-0.3l-0.4,0L19.5,75.2z M54.3,62.9c0.2-1.9,0.4-4.3,0.5-7.2l-2-0.1
	c-0.1,2.9-0.2,5.2-0.5,7L54.3,62.9z M54.8,55.7c0-5.5-1.1-8.6-3.8-10.2c-1.3-0.7-2.8-1-4.4-1.1c-1.6-0.1-3.5,0-5.5,0.1l0.1,2
	c2-0.1,3.8-0.2,5.3-0.1c1.5,0.1,2.7,0.3,3.5,0.8c1.7,0.9,2.8,3.1,2.8,8.4H54.8z M41.1,44.5c-1.8,0.1-3.8,0.2-5.9,0.2v2
	c2.2,0,4.2-0.1,6-0.2L41.1,44.5z M35.2,44.8c-6,0-11.4,1.1-15.5,3c-3.9,1.8-6.8,4.6-6.8,7.9h2c0-2.1,1.9-4.3,5.6-6.1
	c3.7-1.7,8.9-2.8,14.6-2.8V44.8z M12.9,55.7c0,0.2,0,0.3,0,0.5l2-0.2c0-0.1,0-0.2,0-0.3H12.9z M13.8,55.1c-4.1,0.7-7.7,2-10.3,3.7
	c-2.6,1.7-4.3,3.9-4.3,6.5h2c0-1.6,1.1-3.3,3.4-4.9c2.3-1.5,5.6-2.7,9.5-3.4L13.8,55.1z M-0.8,65.3c0,3.2,2.6,5.8,6.1,7.6
	c3.6,1.8,8.6,3,14.1,3.3l0.1-2c-5.3-0.2-10-1.4-13.3-3.1c-3.4-1.7-5-3.8-5-5.8H-0.8z M38.9,80c-4.2,0-8.1-0.6-11.4-1.6
	c-3.3-1-5.8-2.4-7.3-4l-1.4,1.4c1.8,1.9,4.7,3.4,8.1,4.5c3.5,1.1,7.6,1.7,12,1.7V80z M52.4,75.5c0,1.3-0.2,2.1-0.5,2.7
	c-0.3,0.5-0.8,0.9-1.7,1.2c-0.9,0.3-2.3,0.5-4.2,0.6C44.1,80,41.8,80,38.9,80v2c2.9,0,5.3,0,7.3-0.1c1.9-0.1,3.5-0.3,4.7-0.7
	c1.2-0.4,2.2-1.1,2.8-2.1c0.6-1,0.7-2.2,0.7-3.7H52.4z M52.4,63.2v12.3h2V63.2H52.4z M52.4,62.8c0,0.1,0,0.2,0,0.4h2
	c0-0.2,0-0.3,0-0.4L52.4,62.8z"/>
<rect x="53.4" y="41.4" class="st2" width="70.5" height="129.5"/>
<path class="st2" d="M123.6,41.4L141.5,24"/>
<path class="st2" d="M123.9,170.9l17.6-17.6V24"/>
<path class="st2" d="M53.4,41.4L71.2,24"/>
<path class="st2" d="M141.3,24h-70"/>
<rect x="65.5" y="51.6" class="st3" width="9.1" height="15.4"/>
<rect x="65.5" y="77.7" class="st3" width="9.1" height="15.4"/>
<rect x="65.5" y="103.7" class="st3" width="9.1" height="15.4"/>
<rect x="65.5" y="129.8" class="st3" width="9.1" height="15.4"/>
<rect x="84.3" y="51.6" class="st3" width="9.1" height="15.4"/>
<rect x="84.3" y="77.7" class="st3" width="9.1" height="15.4"/>
<rect x="84.3" y="103.7" class="st3" width="9.1" height="15.4"/>
<rect x="84.3" y="129.8" class="st3" width="9.1" height="15.4"/>
<rect x="82.4" y="150.6" class="st3" width="13" height="19.8"/>
<rect x="103.1" y="51.6" class="st3" width="9.1" height="15.4"/>
<path class="st3" d="M129.2,66.4V51.1l7-6.5v15.8L129.2,66.4z"/>
<path class="st3" d="M129.2,92.5V77.1l7-6.5v15.8L129.2,92.5z"/>
<path class="st3" d="M129.2,118.6v-15.3l7-6.5v15.8L129.2,118.6z"/>
<path class="st3" d="M129.2,144.7v-15.3l7-6.5v15.8L129.2,144.7z"/>
<path class="st3" d="M130.7,159.5v-9.2l4.3-3.9v8.8L130.7,159.5z"/>
<rect x="103.1" y="77.7" class="st3" width="9.1" height="15.4"/>
<rect x="103.1" y="103.7" class="st3" width="9.1" height="15.4"/>
<rect x="103.1" y="129.8" class="st3" width="9.1" height="15.4"/>
<rect x="103.1" y="150.6" class="st3" width="9.1" height="9.6"/>
<rect x="65.5" y="150.6" class="st3" width="9.1" height="9.6"/>
<path class="st4" d="M126.5,13.9c8.7,0,16.2,2.2,20,5.4c0.7,0,1.5,0,2.3,0c12.4,0,22.5,4.4,22.5,9.9c0,4.9-7.9,8.9-18.4,9.7
	c0,0.1,0,0.3,0,0.4c0,5.5-10.1,9.9-22.5,9.9c-9.1,0-17-2.4-20.5-5.8c-11.4-0.5-20.3-4.7-20.3-9.9c0-4.2,6-7.8,14.5-9.3
	c0-0.1,0-0.3,0-0.4C104.1,18.3,114.1,13.9,126.5,13.9z"/>
<defs>
	<filter id="Adobe_OpacityMaskFilter_1_" filterUnits="userSpaceOnUse" x="88.6" y="12.9" width="83.6" height="37.3">
		<feColorMatrix  type="matrix" values="1 0 0 0 0  0 1 0 0 0  0 0 1 0 0  0 0 0 1 0"/>
	</filter>
</defs>
<mask maskUnits="userSpaceOnUse" x="88.6" y="12.9" width="83.6" height="37.3" id="path-28-inside-2_1_">
	<path class="st5" d="M126.5,13.9c8.7,0,16.2,2.2,20,5.4c0.7,0,1.5,0,2.3,0c12.4,0,22.5,4.4,22.5,9.9c0,4.9-7.9,8.9-18.4,9.7
		c0,0.1,0,0.3,0,0.4c0,5.5-10.1,9.9-22.5,9.9c-9.1,0-17-2.4-20.5-5.8c-11.4-0.5-20.3-4.7-20.3-9.9c0-4.2,6-7.8,14.5-9.3
		c0-0.1,0-0.3,0-0.4C104.1,18.3,114.1,13.9,126.5,13.9z"/>
</mask>
<path class="st6" d="M146.5,19.2l-0.6,0.8l0.3,0.3l0.4,0L146.5,19.2z M152.9,38.8l-0.1-1l-1,0.1l0.1,1L152.9,38.8z M109.9,43.3
	l0.7-0.7l-0.3-0.3l-0.4,0L109.9,43.3z M104.1,24.2l0.2,1l0.9-0.2l-0.1-0.9L104.1,24.2z M147.2,18.5c-4-3.4-11.8-5.6-20.6-5.6v2
	c8.6,0,15.8,2.2,19.3,5.1L147.2,18.5z M148.8,18.2c-0.8,0-1.5,0-2.3,0.1l0.1,2c0.7,0,1.5,0,2.2,0V18.2z M172.2,29.1
	c0-1.7-0.8-3.2-2-4.5c-1.3-1.3-3-2.4-5.1-3.4c-4.2-1.9-10-3-16.3-3v2c6.1,0,11.6,1.1,15.5,2.8c2,0.9,3.5,1.9,4.5,2.9
	c1,1.1,1.5,2.1,1.5,3.2H172.2z M152.9,39.8c5.3-0.4,10.1-1.7,13.5-3.5c3.4-1.8,5.8-4.2,5.8-7.3h-2c0,1.8-1.5,3.8-4.7,5.5
	c-3.1,1.6-7.6,2.8-12.7,3.3L152.9,39.8z M151.9,38.9c0,0.1,0,0.2,0,0.3h2c0-0.2,0-0.3,0-0.5L151.9,38.9z M151.9,39.2
	c0,1-0.5,2.1-1.5,3.2c-1,1.1-2.5,2.1-4.5,2.9c-3.9,1.7-9.4,2.8-15.5,2.8v2c6.3,0,12.1-1.1,16.3-3c2.1-0.9,3.9-2.1,5.1-3.4
	c1.3-1.3,2-2.9,2-4.5H151.9z M130.4,48.1c-4.5,0-8.6-0.6-12.1-1.6c-3.5-1-6.1-2.4-7.7-4l-1.4,1.4c1.9,1.9,4.9,3.4,8.6,4.5
	c3.6,1.1,8,1.7,12.6,1.7V48.1z M88.6,33.4c0,3.2,2.7,5.8,6.5,7.6c3.8,1.8,9,3,14.8,3.3l0.1-2c-5.6-0.2-10.5-1.4-14-3.1
	c-3.6-1.7-5.3-3.8-5.3-5.8H88.6z M103.9,23.2c-4.3,0.7-8.1,2-10.8,3.7c-2.7,1.7-4.5,3.9-4.5,6.5h2c0-1.6,1.2-3.3,3.6-4.8
	c2.4-1.5,5.9-2.7,10.1-3.4L103.9,23.2z M103.1,23.8c0,0.2,0,0.3,0,0.5l2-0.2c0-0.1,0-0.2,0-0.3H103.1z M126.5,12.9
	c-6.3,0-12.1,1.1-16.3,3c-2.1,0.9-3.9,2.1-5.1,3.4c-1.3,1.3-2,2.9-2,4.5h2c0-1,0.5-2.1,1.5-3.2c1-1.1,2.5-2.1,4.5-2.9
	c3.9-1.7,9.4-2.8,15.5-2.8V12.9z"/>
<path class="st3" d="M144.7,74c0,0-17.7,11.3-23.5,22.1c-5.8,10.8,1.8,28.9-6.3,49.4c-7.8,19.7-35.9,35.7-35.9,35.7"/>
<path class="st4" d="M117.4,139.5c6.9,3.2,15.7,3.2,23.3-0.8c7.6-4,12.3-10.9,12.8-17.9c-6.9-3.2-15.7-3.1-23.3,0.8
	C122.5,125.5,117.9,132.4,117.4,139.5z"/>
<defs>
	<filter id="Adobe_OpacityMaskFilter_2_" filterUnits="userSpaceOnUse" x="116.2" y="117.5" width="38.4" height="25.2">
		<feColorMatrix  type="matrix" values="1 0 0 0 0  0 1 0 0 0  0 0 1 0 0  0 0 0 1 0"/>
	</filter>
</defs>
<mask maskUnits="userSpaceOnUse" x="116.2" y="117.5" width="38.4" height="25.2" id="path-31-inside-3_1_">
	<path class="st7" d="M117.4,139.5c6.9,3.2,15.7,3.2,23.3-0.8c7.6-4,12.3-10.9,12.8-17.9c-6.9-3.2-15.7-3.1-23.3,0.8
		C122.5,125.5,117.9,132.4,117.4,139.5z"/>
</mask>
<path class="st8" d="M117.4,139.5l-1.1,0l0,0.6l0.6,0.3L117.4,139.5z M153.5,120.8l1.1,0l0-0.6l-0.6-0.3L153.5,120.8z M140.2,137.9
	c-7.3,3.8-15.7,3.8-22.3,0.8l-1.1,1.7c7.2,3.3,16.4,3.3,24.4-0.9L140.2,137.9z M152.4,120.8c-0.6,6.8-5,13.3-12.3,17.1l1,1.6
	c8-4.1,12.8-11.3,13.4-18.7L152.4,120.8z M130.7,122.4c7.3-3.8,15.7-3.8,22.3-0.8l1.1-1.7c-7.2-3.3-16.4-3.3-24.4,0.9L130.7,122.4z
	 M118.4,139.5c0.6-6.8,5-13.3,12.3-17.1l-1-1.6c-8,4.1-12.8,11.3-13.4,18.7L118.4,139.5z"/>
<path class="st3" d="M152.1,121.8c0,0-9.1,6.1-15.4,9.4c-6.6,3.4-17.7,7.5-17.7,7.5"/>
<path class="st9" d="M141.9,122l-3.3,7.9"/>
<path class="st9" d="M133,125.7l-2.4,8.3"/>
<path class="st9" d="M124.6,130.7l-1,5.8"/>
<path class="st9" d="M125.9,136.3l6,1.3"/>
<path class="st9" d="M135.7,132.9l5.1,0.9"/>
<path class="st9" d="M142.2,129.3l4.6-0.3"/>
<path class="st4" d="M99,165.1c3.1,6,9.8,10.1,18.4,10.3c8.6,0.3,16.8-3.4,22.1-9.2c-3.1-6-9.8-10.1-18.4-10.3S104.3,159.4,99,165.1
	z"/>
<defs>
	<filter id="Adobe_OpacityMaskFilter_3_" filterUnits="userSpaceOnUse" x="97.8" y="155" width="43" height="21.4">
		<feColorMatrix  type="matrix" values="1 0 0 0 0  0 1 0 0 0  0 0 1 0 0  0 0 0 1 0"/>
	</filter>
</defs>
<mask maskUnits="userSpaceOnUse" x="97.8" y="155" width="43" height="21.4" id="path-40-inside-4_1_">
	<path class="st10" d="M99,165.1c3.1,6,9.8,10.1,18.4,10.3c8.6,0.3,16.8-3.4,22.1-9.2c-3.1-6-9.8-10.1-18.4-10.3
		S104.3,159.4,99,165.1z"/>
</mask>
<path class="st11" d="M99,165.1l-0.8-0.5l-0.5,0.5l0.3,0.5L99,165.1z M139.6,166.3l0.8,0.5l0.5-0.5l-0.3-0.5L139.6,166.3z
	 M121.2,156l-0.2,0.9L121.2,156z M117.6,174.5c-8.2-0.2-14.7-4.2-17.6-9.9l-1.9,1c3.2,6.2,10.3,10.5,19.2,10.8L117.6,174.5z
	 M138.8,165.8c-5,5.5-13,9-21.2,8.8l-0.4,1.9c8.9,0.3,17.6-3.6,23.1-9.6L138.8,165.8z M121,156.9c8.2,0.2,14.7,4.2,17.6,9.9l1.9-1
	c-3.2-6.2-10.3-10.5-19.2-10.8L121,156.9z M99.8,165.7c5-5.5,13-9,21.2-8.8l0.4-1.9c-8.9-0.3-17.5,3.6-23.1,9.6L99.8,165.7z"/>
<path class="st3" d="M137.7,166.6c0,0-11.2,0.9-18.3,0.7c-7.4-0.2-18.7-2-18.7-2"/>
<path class="st9" d="M129.8,161.9l-8,5.1"/>
<path class="st9" d="M120.5,160.9l-7.5,5.9"/>
<path class="st9" d="M110.6,161.1l-4.7,4.4"/>
<path class="st9" d="M107.8,166.5l3.7,3.9"/>
<path class="st9" d="M117.6,168.2l3.3,3.2"/>
<path class="st9" d="M125.1,168.3l3.7,2"/>
<path class="st4" d="M155.8,89.4c-1.7,6.7-7.1,12.9-14.8,16c-7.7,3.1-15.9,2.3-21.7-1.5c1.7-6.7,7.1-12.9,14.8-16
	C141.9,84.9,150,85.7,155.8,89.4z"/>
<defs>
	<filter id="Adobe_OpacityMaskFilter_4_" filterUnits="userSpaceOnUse" x="118.2" y="85.1" width="38.8" height="23.1">
		<feColorMatrix  type="matrix" values="1 0 0 0 0  0 1 0 0 0  0 0 1 0 0  0 0 0 1 0"/>
	</filter>
</defs>
<mask maskUnits="userSpaceOnUse" x="118.2" y="85.1" width="38.8" height="23.1" id="path-49-inside-5_1_">
	<path class="st12" d="M155.8,89.4c-1.7,6.7-7.1,12.9-14.8,16c-7.7,3.1-15.9,2.3-21.7-1.5c1.7-6.7,7.1-12.9,14.8-16
		C141.9,84.9,150,85.7,155.8,89.4z"/>
</mask>
<path class="st13" d="M155.8,89.4l1,0.1l0.1-0.6l-0.5-0.3L155.8,89.4z M119.4,103.9l-1-0.1l-0.1,0.6l0.5,0.3L119.4,103.9z
	 M154.8,89.3c-1.6,6.4-6.7,12.3-14.1,15.3l0.7,1.7c8.1-3.2,13.7-9.7,15.5-16.7L154.8,89.3z M140.7,104.5c-7.4,2.9-15.1,2.2-20.7-1.4
	l-1.3,1.6c6.1,3.9,14.6,4.8,22.7,1.6L140.7,104.5z M120.4,104c1.6-6.4,6.7-12.3,14.1-15.3l-0.7-1.7c-8.1,3.2-13.7,9.7-15.5,16.7
	L120.4,104z M134.5,88.8c7.4-2.9,15.1-2.2,20.7,1.4l1.3-1.6c-6.1-3.9-14.6-4.8-22.7-1.6L134.5,88.8z"/>
<path class="st3" d="M154.3,90.3c0,0-9.4,5-15.8,7.5c-6.7,2.6-17.6,5.5-17.6,5.5"/>
<path class="st9" d="M144.9,89.5l-4.4,7.3"/>
<path class="st9" d="M136.1,92.2l-3.6,7.7"/>
<path class="st9" d="M127.5,96.2l-1.9,5.4"/>
<path class="st9" d="M127.8,101.7l5.3,1.8"/>
<path class="st9" d="M137.4,99.4l4.5,1.4"/>
<path class="st9" d="M144,96.5l4.3,0.2"/>
<path class="st4" d="M141.7,74.7c6.3,2.7,14.2,2.4,20.9-1.4s10.6-10.1,10.9-16.4c-6.3-2.7-14.2-2.4-20.9,1.4
	C145.9,62,142,68.3,141.7,74.7z"/>
<defs>
	<filter id="Adobe_OpacityMaskFilter_5_" filterUnits="userSpaceOnUse" x="140.6" y="54.1" width="34" height="23.2">
		<feColorMatrix  type="matrix" values="1 0 0 0 0  0 1 0 0 0  0 0 1 0 0  0 0 0 1 0"/>
	</filter>
</defs>
<mask maskUnits="userSpaceOnUse" x="140.6" y="54.1" width="34" height="23.2" id="path-58-inside-6_1_">
	<path class="st14" d="M141.7,74.7c6.3,2.7,14.2,2.4,20.9-1.4s10.6-10.1,10.9-16.4c-6.3-2.7-14.2-2.4-20.9,1.4
		C145.9,62,142,68.3,141.7,74.7z"/>
</mask>
<path class="st15" d="M141.7,74.7l-1.1,0l0,0.6l0.6,0.2L141.7,74.7z M173.5,56.8l1.1,0l0-0.6l-0.6-0.2L173.5,56.8z M162.1,72.5
	c-6.4,3.6-13.9,3.9-19.9,1.3l-1.1,1.7c6.6,2.8,14.9,2.5,22-1.5L162.1,72.5z M172.5,56.9c-0.2,6-3.9,12-10.3,15.6l1,1.5
	c7.1-4,11.2-10.6,11.4-17.3L172.5,56.9z M153.1,59c6.4-3.6,13.9-3.9,19.9-1.3l1.1-1.7c-6.6-2.8-14.9-2.5-22,1.5L153.1,59z
	 M142.8,74.6c0.2-6,3.9-12,10.3-15.6l-1-1.5c-7.1,4-11.2,10.6-11.4,17.3L142.8,74.6z"/>
<path class="st3" d="M172.3,57.9c0,0-8,5.8-13.5,8.9c-5.9,3.3-15.6,7.2-15.6,7.2"/>
<path class="st9" d="M163.1,58.3l-2.7,7.2"/>
<path class="st9" d="M155.3,61.9l-1.9,7.5"/>
<path class="st9" d="M147.9,66.6l-0.7,5.2"/>
<path class="st9" d="M149.3,71.6l5.5,1"/>
<path class="st9" d="M158,68.3l4.6,0.7"/>
<path class="st9" d="M163.7,64.8l4.2-0.4"/>
<path class="st4" d="M131.2,85.5c-6.7-1.4-12.1-5.7-13.8-11.9c-1.7-6.2,0.8-12.8,5.9-17.4c6.7,1.4,12.1,5.7,13.8,11.9
	C138.8,74.3,136.3,80.9,131.2,85.5z"/>
<defs>
	<filter id="Adobe_OpacityMaskFilter_6_" filterUnits="userSpaceOnUse" x="115.8" y="55.2" width="22.9" height="31.4">
		<feColorMatrix  type="matrix" values="1 0 0 0 0  0 1 0 0 0  0 0 1 0 0  0 0 0 1 0"/>
	</filter>
</defs>
<mask maskUnits="userSpaceOnUse" x="115.8" y="55.2" width="22.9" height="31.4" id="path-67-inside-7_1_">
	<path class="st16" d="M131.2,85.5c-6.7-1.4-12.1-5.7-13.8-11.9c-1.7-6.2,0.8-12.8,5.9-17.4c6.7,1.4,12.1,5.7,13.8,11.9
		C138.8,74.3,136.3,80.9,131.2,85.5z"/>
</mask>
<path class="st17" d="M131.2,85.5l-0.3,0.9l0.6,0.1l0.4-0.4L131.2,85.5z M117.4,73.6l-1,0.3L117.4,73.6z M123.3,56.2l0.3-0.9
	l-0.6-0.1l-0.4,0.4L123.3,56.2z M131.5,84.6c-6.4-1.3-11.5-5.4-13.1-11.3l-2,0.6c1.8,6.6,7.5,11.1,14.6,12.5L131.5,84.6z
	 M118.4,73.4c-1.6-5.9,0.7-12.1,5.6-16.5l-1.5-1.3c-5.3,4.9-8,11.8-6.2,18.4L118.4,73.4z M123,57.1c6.4,1.3,11.5,5.4,13.1,11.3
	l2-0.6c-1.8-6.6-7.5-11.1-14.6-12.5L123,57.1z M136.1,68.4c1.6,5.9-0.7,12.1-5.6,16.5l1.5,1.3c5.3-4.9,8-11.8,6.2-18.4L136.1,68.4z"
	/>
<path class="st3" d="M124,57.5c0,0,3.5,7.9,4.9,13.1c1.5,5.6,2.4,14.6,2.4,14.6"/>
<path class="st9" d="M121.2,65.3l6.9,3.7"/>
<path class="st9" d="M122.4,72.6l7.5,3"/>
<path class="st9" d="M124.9,79.7l5.4,1.6"/>
<path class="st9" d="M130.8,79.5l3-4.4"/>
<path class="st9" d="M130.3,71.6l2.4-3.8"/>
<path class="st9" d="M128.5,66l1.1-3.6"/>
<path class="st4" d="M119.5,129.9c1.4-5.9-0.8-12.1-6.4-16.1s-13.2-4.9-20-3c-1.4,5.9,0.8,12.1,6.4,16.1
	C105.1,131,112.7,131.9,119.5,129.9z"/>
<defs>
	<filter id="Adobe_OpacityMaskFilter_7_" filterUnits="userSpaceOnUse" x="91.7" y="108.9" width="29.3" height="23">
		<feColorMatrix  type="matrix" values="1 0 0 0 0  0 1 0 0 0  0 0 1 0 0  0 0 0 1 0"/>
	</filter>
</defs>
<mask maskUnits="userSpaceOnUse" x="91.7" y="108.9" width="29.3" height="23" id="path-76-inside-8_1_">
	<path class="st18" d="M119.5,129.9c1.4-5.9-0.8-12.1-6.4-16.1s-13.2-4.9-20-3c-1.4,5.9,0.8,12.1,6.4,16.1
		C105.1,131,112.7,131.9,119.5,129.9z"/>
</mask>
<path class="st19" d="M119.5,129.9l0.2,0.9l0.7-0.2l0.1-0.6L119.5,129.9z M93.1,110.8l-0.2-0.9l-0.7,0.2l-0.1,0.6L93.1,110.8z
	 M99.5,126.9l0.8-0.7L99.5,126.9z M112.4,114.5c5.3,3.9,7.4,9.7,6.1,15.3l2.1,0.2c1.4-6.2-0.8-12.7-6.7-17L112.4,114.5z M93.4,111.7
	c6.4-1.9,13.7-1,19,2.8l1.5-1.5c-5.8-4.2-13.8-5.2-21-3.1L93.4,111.7z M100.3,126.2c-5.3-3.9-7.4-9.7-6.1-15.3l-2.1-0.2
	c-1.4,6.2,0.8,12.7,6.7,17L100.3,126.2z M119.3,129c-6.4,1.9-13.7,1-19-2.8l-1.5,1.5c5.8,4.2,13.8,5.2,21,3.1L119.3,129z"/>
<path class="st3" d="M94.5,111.4c0,0,8,4.3,12.6,7.7c4.8,3.5,11.3,9.9,11.3,9.9"/>
<path class="st9" d="M97.1,118.6l8.3-0.3"/>
<path class="st9" d="M102.8,123.5l8.4-1.1"/>
<path class="st9" d="M109.5,127.8l5.7-1.2"/>
<path class="st9" d="M114.4,124.9l-0.2-4.7"/>
<path class="st9" d="M108.9,119.2l-0.3-3.9"/>
<path class="st9" d="M103.9,115.8l-1.4-3.2"/>
<path class="st4" d="M108.8,155.9c1.5-6.6-0.9-13.4-7-17.9c-6.1-4.5-14.4-5.5-21.9-3.3c-1.5,6.6,0.9,13.4,7,17.9
	C93.1,157.1,101.4,158.1,108.8,155.9z"/>
<defs>
	<filter id="Adobe_OpacityMaskFilter_8_" filterUnits="userSpaceOnUse" x="78.5" y="132.6" width="31.8" height="25.3">
		<feColorMatrix  type="matrix" values="1 0 0 0 0  0 1 0 0 0  0 0 1 0 0  0 0 0 1 0"/>
	</filter>
</defs>
<mask maskUnits="userSpaceOnUse" x="78.5" y="132.6" width="31.8" height="25.3" id="path-85-inside-9_1_">
	<path class="st20" d="M108.8,155.9c1.5-6.6-0.9-13.4-7-17.9c-6.1-4.5-14.4-5.5-21.9-3.3c-1.5,6.6,0.9,13.4,7,17.9
		C93.1,157.1,101.4,158.1,108.8,155.9z"/>
</mask>
<path class="st21" d="M108.8,155.9l0.2,0.9l0.7-0.2l0.1-0.6L108.8,155.9z M80,134.7l-0.2-0.9l-0.7,0.2l-0.1,0.6L80,134.7z
	 M101.2,138.7c5.8,4.3,8.1,10.8,6.6,17.1l2.1,0.2c1.6-6.9-0.9-14-7.3-18.7L101.2,138.7z M80.3,135.6c7.1-2.1,15-1.2,20.9,3.1
	l1.5-1.5c-6.4-4.7-15.1-5.7-22.9-3.4L80.3,135.6z M87.7,151.9c-5.8-4.3-8.1-10.8-6.6-17.1l-2.1-0.2c-1.6,6.9,0.9,14,7.3,18.7
	L87.7,151.9z M108.6,155c-7.1,2.1-15,1.2-20.9-3.1l-1.5,1.5c6.4,4.7,15.1,5.7,22.9,3.4L108.6,155z"/>
<path class="st3" d="M81.5,135.4c0,0,8.7,4.8,13.7,8.5c5.3,3.9,12.4,11,12.4,11"/>
<path class="st9" d="M84.4,143.3l9-0.4"/>
<path class="st9" d="M90.6,148.8l9.2-1.2"/>
<path class="st9" d="M97.9,153.5l6.2-1.4"/>
<path class="st9" d="M103.3,150.4l-0.2-5.2"/>
<path class="st9" d="M97.3,144l-0.4-4.3"/>
<path class="st9" d="M91.8,140.3l-1.5-3.5"/>
</svg>
