<?xml version="1.0" encoding="utf-8"?>
<!-- Generator: Adobe Illustrator 23.1.0, SVG Export Plug-In . SVG Version: 6.00 Build 0)  -->
<svg version="1.1" id="Слой_1" xmlns="http://www.w3.org/2000/svg" xmlns:xlink="http://www.w3.org/1999/xlink" x="0px" y="0px"
	 viewBox="0 0 190 190" style="enable-background:new 0 0 190 190;" xml:space="preserve">
<style type="text/css">
	.st0{fill:none;stroke:#000000;}
	.st1{fill-rule:evenodd;clip-rule:evenodd;fill:#FFFFFF;filter:url(#Adobe_OpacityMaskFilter);}
	.st2{mask:url(#path-2-inside-1_1_);}
	.st3{fill:none;stroke:#000000;stroke-linecap:round;}
	.st4{fill-rule:evenodd;clip-rule:evenodd;fill:#FFFFFF;filter:url(#Adobe_OpacityMaskFilter_1_);}
	.st5{mask:url(#path-11-inside-2_1_);}
	.st6{fill-rule:evenodd;clip-rule:evenodd;fill:#FFFFFF;filter:url(#Adobe_OpacityMaskFilter_2_);}
	.st7{mask:url(#path-20-inside-3_1_);}
	.st8{fill-rule:evenodd;clip-rule:evenodd;fill:#FFFFFF;filter:url(#Adobe_OpacityMaskFilter_3_);}
	.st9{mask:url(#path-29-inside-4_1_);}
	.st10{fill-rule:evenodd;clip-rule:evenodd;fill:#FFFFFF;filter:url(#Adobe_OpacityMaskFilter_4_);}
	.st11{mask:url(#path-38-inside-5_1_);}
	.st12{fill-rule:evenodd;clip-rule:evenodd;fill:#FFFFFF;filter:url(#Adobe_OpacityMaskFilter_5_);}
	.st13{mask:url(#path-47-inside-6_1_);}
	.st14{fill-rule:evenodd;clip-rule:evenodd;fill:#FFFFFF;filter:url(#Adobe_OpacityMaskFilter_6_);}
	.st15{mask:url(#path-56-inside-7_1_);}
	.st16{fill:#FFFFFF;stroke:#000000;stroke-linejoin:round;}
</style>
<path class="st0" d="M133,64.4c0,0-20.9-1.3-32,3.9c-11.1,5.2-15.7,24.4-34.4,36.1c-17.9,11.3-50.1,7.4-50.1,7.4"/>
<defs>
	<filter id="Adobe_OpacityMaskFilter" filterUnits="userSpaceOnUse" x="70.9" y="92.9" width="42.7" height="22.5">
		<feColorMatrix  type="matrix" values="1 0 0 0 0  0 1 0 0 0  0 0 1 0 0  0 0 0 1 0"/>
	</filter>
</defs>
<mask maskUnits="userSpaceOnUse" x="70.9" y="92.9" width="42.7" height="22.5" id="path-2-inside-1_1_">
	<path class="st1" d="M72.2,101c3.6,6.6,10.8,11.8,19.3,13.2c8.5,1.3,16.3-1.5,20.9-6.8c-3.6-6.6-10.8-11.8-19.3-13.2
		C84.6,92.8,76.8,95.6,72.2,101z"/>
</mask>
<path class="st2" d="M72.2,101l-0.9-0.6l-0.4,0.4l0.3,0.5L72.2,101z M112.4,107.3l0.9,0.6l0.4-0.4l-0.3-0.5L112.4,107.3z
	 M91.5,113.2c-8.1-1.3-14.9-6.2-18.4-12.6l-1.9,0.7c3.8,6.9,11.2,12.3,20.1,13.7L91.5,113.2z M111.5,106.7c-4.4,5.1-11.9,7.8-20,6.5
	l-0.2,1.9c8.9,1.4,17-1.6,21.9-7.1L111.5,106.7z M93,95.1c8.1,1.3,14.9,6.2,18.4,12.6l1.9-0.7c-3.8-6.9-11.2-12.3-20.1-13.7L93,95.1
	z M73,101.6c4.4-5.1,11.9-7.8,20-6.5l0.2-1.9c-8.9-1.4-17,1.6-21.9,7.1L73,101.6z"/>
<path class="st0" d="M110.6,107.3c0,0-11-0.4-18-1.6c-7.4-1.2-18.7-4.5-18.7-4.5"/>
<path class="st3" d="M102.3,101.4l-7.4,4.4"/>
<path class="st3" d="M92.9,99.2l-6.8,5.2"/>
<path class="st3" d="M83.2,98.2l-4.2,4"/>
<path class="st3" d="M81,103.5l4.1,4.6"/>
<path class="st3" d="M90.8,106.6l3.5,3.8"/>
<path class="st3" d="M98.3,107.5l3.9,2.5"/>
<defs>
	<filter id="Adobe_OpacityMaskFilter_1_" filterUnits="userSpaceOnUse" x="40.9" y="109.4" width="34.6" height="27.8">
		<feColorMatrix  type="matrix" values="1 0 0 0 0  0 1 0 0 0  0 0 1 0 0  0 0 0 1 0"/>
	</filter>
</defs>
<mask maskUnits="userSpaceOnUse" x="40.9" y="109.4" width="34.6" height="27.8" id="path-11-inside-2_1_">
	<path class="st4" d="M42.2,110.8c-1.1,6.6,2,14,8.7,19.2c6.8,5.3,15.6,7.2,23.3,5.7c1.1-6.6-2-14-8.7-19.2
		C58.7,111.3,49.9,109.3,42.2,110.8z"/>
</mask>
<path class="st5" d="M42.2,110.8l-0.3-0.9l-0.7,0.1l-0.1,0.6L42.2,110.8z M74.2,135.8l0.3,0.9l0.7-0.1l0.1-0.6L74.2,135.8z
	 M65.5,116.5l-0.7,0.7L65.5,116.5z M51.6,129.4c-6.5-5.1-9.4-12.1-8.4-18.4l-2.1-0.4c-1.1,6.9,2,14.6,9.1,20.1L51.6,129.4z
	 M73.9,134.9c-7.3,1.4-15.8-0.4-22.3-5.5l-1.4,1.3c7,5.5,16.3,7.5,24.3,6L73.9,134.9z M64.8,117.2c6.5,5.1,9.4,12.1,8.4,18.4
	l2.1,0.4c1.1-6.9-2-14.6-9.1-20.1L64.8,117.2z M42.5,111.7c7.3-1.4,15.8,0.4,22.3,5.5l1.4-1.3c-7-5.5-16.3-7.5-24.3-6L42.5,111.7z"
	/>
<path class="st0" d="M72.5,134.9c0,0-9.6-5.9-15.1-10.3c-5.9-4.6-13.9-12.7-13.9-12.7"/>
<path class="st3" d="M69,126.4l-9.5-0.6"/>
<path class="st3" d="M62,120.1l-9.6,0.3"/>
<path class="st3" d="M54,114.4l-6.4,0.8"/>
<path class="st3" d="M48.5,117.1l0.7,5.4"/>
<path class="st3" d="M55.3,124.3l0.7,4.5"/>
<path class="st3" d="M61.4,128.7l1.8,3.8"/>
<defs>
	<filter id="Adobe_OpacityMaskFilter_2_" filterUnits="userSpaceOnUse" x="93.6" y="67.6" width="40.4" height="21.8">
		<feColorMatrix  type="matrix" values="1 0 0 0 0  0 1 0 0 0  0 0 1 0 0  0 0 0 1 0"/>
	</filter>
</defs>
<mask maskUnits="userSpaceOnUse" x="93.6" y="67.6" width="40.4" height="21.8" id="path-20-inside-3_1_">
	<path class="st6" d="M132.8,83.4c-5.3,4.4-13.3,6.2-21.4,4.1c-8-2.1-14.1-7.6-16.6-14c5.3-4.4,13.3-6.2,21.4-4.1
		C124.3,71.5,130.4,77,132.8,83.4z"/>
</mask>
<path class="st7" d="M132.8,83.4l0.8,0.7l0.5-0.4l-0.2-0.6L132.8,83.4z M94.9,73.5l-0.8-0.7l-0.5,0.4l0.2,0.6L94.9,73.5z
	 M132.1,82.7c-5.1,4.2-12.7,5.9-20.4,3.9l-0.5,1.8c8.4,2.2,16.8,0.3,22.4-4.3L132.1,82.7z M111.7,86.7c-7.7-2-13.5-7.2-15.8-13.4
	l-2,0.5c2.6,6.8,9,12.5,17.4,14.7L111.7,86.7z M95.6,74.2c5.1-4.2,12.7-5.9,20.4-3.9l0.5-1.8c-8.4-2.2-16.8-0.3-22.4,4.3L95.6,74.2z
	 M116,70.3c7.7,2,13.5,7.2,15.8,13.4l2-0.5c-2.6-6.8-9-12.5-17.4-14.7L116,70.3z"/>
<path class="st0" d="M131.1,83.3c0,0-10.6-1.5-17.2-3.3c-7-1.8-17.4-6-17.4-6"/>
<path class="st3" d="M124,77l-7.8,3.3"/>
<path class="st3" d="M115.3,74l-7.5,4.1"/>
<path class="st3" d="M106,72.1l-4.7,3.3"/>
<path class="st3" d="M103,76.7l3.2,4.6"/>
<path class="st3" d="M112.1,80.6l2.8,3.8"/>
<path class="st3" d="M119.1,82.2l3.4,2.7"/>
<defs>
	<filter id="Adobe_OpacityMaskFilter_3_" filterUnits="userSpaceOnUse" x="128.9" y="55.3" width="38.7" height="20.3">
		<feColorMatrix  type="matrix" values="1 0 0 0 0  0 1 0 0 0  0 0 1 0 0  0 0 0 1 0"/>
	</filter>
</defs>
<mask maskUnits="userSpaceOnUse" x="128.9" y="55.3" width="38.7" height="20.3" id="path-29-inside-4_1_">
	<path class="st8" d="M130.2,63.2c3.5,5.9,10.1,10.3,17.7,11.3c7.7,0.9,14.5-1.8,18.5-6.8c-3.5-5.9-10.1-10.3-17.7-11.3
		C141,55.5,134.1,58.3,130.2,63.2z"/>
</mask>
<path class="st9" d="M130.2,63.2l-0.9-0.6l-0.4,0.4l0.3,0.5L130.2,63.2z M166.4,67.7l0.9,0.6l0.4-0.4l-0.3-0.5L166.4,67.7z
	 M147.9,73.5c-7.3-0.9-13.5-5.1-16.8-10.7l-1.9,0.7c3.7,6.2,10.6,10.8,18.6,11.8L147.9,73.5z M165.5,67.1
	c-3.8,4.7-10.3,7.4-17.6,6.5l-0.1,1.9c8.1,1,15.3-1.9,19.4-7.1L165.5,67.1z M148.6,57.3c7.3,0.9,13.5,5.1,16.8,10.7l1.8-0.7
	c-3.7-6.2-10.6-10.8-18.6-11.8L148.6,57.3z M131.1,63.8c3.8-4.7,10.3-7.4,17.6-6.5l0.1-1.9c-8.1-1-15.3,1.9-19.4,7.1L131.1,63.8z"/>
<path class="st0" d="M164.8,67.8c0,0-9.8-0.1-16.1-0.9c-6.6-0.8-16.9-3.4-16.9-3.4"/>
<path class="st3" d="M157.1,62.7l-6.4,4.2"/>
<path class="st3" d="M148.7,61l-5.9,4.9"/>
<path class="st3" d="M140,60.4l-3.6,3.8"/>
<path class="st3" d="M138.1,65.2l3.8,4"/>
<path class="st3" d="M147.1,67.7l3.3,3.3"/>
<path class="st3" d="M153.8,68.3l3.6,2.2"/>
<defs>
	<filter id="Adobe_OpacityMaskFilter_4_" filterUnits="userSpaceOnUse" x="108.9" y="36.4" width="23.5" height="31.4">
		<feColorMatrix  type="matrix" values="1 0 0 0 0  0 1 0 0 0  0 0 1 0 0  0 0 0 1 0"/>
	</filter>
</defs>
<mask maskUnits="userSpaceOnUse" x="108.9" y="36.4" width="23.5" height="31.4" id="path-38-inside-5_1_">
	<path class="st10" d="M115,66.7c-4.6-5.2-6.4-12.1-4-18.3c2.4-6.2,8.4-10.2,15.3-11c4.6,5.2,6.4,12.1,4,18.3
		C127.9,61.9,121.9,65.9,115,66.7z"/>
</mask>
<path class="st11" d="M115,66.7l-0.8,0.5l0.4,0.5l0.6-0.1L115,66.7z M126.3,37.4l0.8-0.5l-0.4-0.5l-0.6,0.1L126.3,37.4z M115.8,66.2
	c-4.4-4.9-6-11.5-3.8-17.4l-2-0.7c-2.5,6.5-0.7,13.8,4.1,19.2L115.8,66.2z M112,48.8c2.3-5.9,7.9-9.7,14.5-10.5l-0.5-1.9
	c-7.3,0.9-13.5,5.1-16.1,11.6L112,48.8z M125.5,38c4.4,4.9,6,11.5,3.8,17.4l2,0.7c2.5-6.5,0.7-13.8-4.1-19.2L125.5,38z M129.3,55.3
	c-2.3,5.9-7.9,9.7-14.5,10.5l0.5,1.9c7.3-0.9,13.6-5.1,16.1-11.6L129.3,55.3z"/>
<path class="st0" d="M126.1,38.8c0,0-1.8,8.4-3.8,13.5c-2.1,5.4-6.8,13.2-6.8,13.2"/>
<path class="st3" d="M119.3,43.5l3.3,7"/>
<path class="st3" d="M115.9,50.1l4.2,6.9"/>
<path class="st3" d="M113.7,57.3l3.4,4.5"/>
<path class="st3" d="M118.5,60.7l5-1.8"/>
<path class="st3" d="M122.8,53.9l4.1-1.6"/>
<path class="st3" d="M124.7,48.4l3-2.3"/>
<defs>
	<filter id="Adobe_OpacityMaskFilter_5_" filterUnits="userSpaceOnUse" x="63.3" y="62.4" width="22.6" height="33.2">
		<feColorMatrix  type="matrix" values="1 0 0 0 0  0 1 0 0 0  0 0 1 0 0  0 0 0 1 0"/>
	</filter>
</defs>
<mask maskUnits="userSpaceOnUse" x="63.3" y="62.4" width="22.6" height="33.2" id="path-47-inside-6_1_">
	<path class="st12" d="M79.6,94.5c4.6-4,6.5-10.2,4.4-16.8c-2.1-6.6-7.7-11.8-14.4-14.2c-4.6,4-6.5,10.2-4.4,16.8
		C67.3,86.9,72.9,92.1,79.6,94.5z"/>
</mask>
<path class="st13" d="M79.6,94.5l-0.3,0.8l0.7,0.2l0.5-0.4L79.6,94.5z M69.7,63.5l0.3-0.8l-0.7-0.2l-0.5,0.4L69.7,63.5z M65.2,80.3
	l1-0.1L65.2,80.3z M83,77.9c2,6.3,0.2,12.2-4.2,16l1.6,1.4c4.8-4.2,6.9-10.8,4.7-17.6L83,77.9z M69.3,64.4
	C75.6,66.7,81,71.6,83,77.9l2.1-0.3C82.8,70.7,77,65.2,70,62.7L69.3,64.4z M66.3,80.2c-2-6.3-0.2-12.2,4.2-16l-1.6-1.4
	C64,67,62,73.6,64.2,80.5L66.3,80.2z M79.9,93.7c-6.3-2.3-11.6-7.3-13.6-13.5l-2.1,0.3c2.2,6.9,8.1,12.4,15.1,14.9L79.9,93.7z"/>
<path class="st0" d="M70.4,64.9c0,0,3.9,8.2,5.6,13.6c1.8,5.7,3.2,14.7,3.2,14.7"/>
<path class="st3" d="M68.3,72.2l6.9,4.6"/>
<path class="st3" d="M69.9,79.5l7.4,4.1"/>
<path class="st3" d="M72.7,86.9l5.3,2.3"/>
<path class="st3" d="M78.4,87.5l2.6-3.9"/>
<path class="st3" d="M77.4,79.6l2-3.3"/>
<path class="st3" d="M75.4,74l0.8-3.4"/>
<defs>
	<filter id="Adobe_OpacityMaskFilter_6_" filterUnits="userSpaceOnUse" x="38" y="73.9" width="24.6" height="36.3">
		<feColorMatrix  type="matrix" values="1 0 0 0 0  0 1 0 0 0  0 0 1 0 0  0 0 0 1 0"/>
	</filter>
</defs>
<mask maskUnits="userSpaceOnUse" x="38" y="73.9" width="24.6" height="36.3" id="path-56-inside-7_1_">
	<path class="st14" d="M55.6,109.2c5.1-4.4,7.3-11.3,5-18.5c-2.3-7.2-8.4-13-15.7-15.6c-5.1,4.4-7.3,11.3-5,18.5
		C42.2,100.8,48.3,106.5,55.6,109.2z"/>
</mask>
<path class="st15" d="M55.6,109.2l-0.3,0.8l0.7,0.2l0.5-0.4L55.6,109.2z M44.9,75l0.3-0.8l-0.7-0.2l-0.5,0.4L44.9,75z M59.6,90.8
	c2.2,6.9,0.1,13.5-4.8,17.7l1.6,1.4c5.3-4.6,7.6-11.8,5.2-19.4L59.6,90.8z M44.6,75.9c7,2.5,12.8,8,15,14.9l2.1-0.3
	c-2.4-7.5-8.7-13.5-16.4-16.3L44.6,75.9z M41,93.4c-2.2-6.9-0.1-13.5,4.8-17.7l-1.6-1.4c-5.3,4.6-7.6,11.8-5.2,19.4L41,93.4z
	 M55.9,108.3c-7-2.5-12.8-8-15-14.9l-2.1,0.3c2.4,7.5,8.7,13.5,16.4,16.3L55.9,108.3z"/>
<path class="st0" d="M45.7,76.5c0,0,4.2,9,6,15c1.9,6.3,3.4,16.2,3.4,16.2"/>
<path class="st3" d="M43.3,84.5l7.5,5.1"/>
<path class="st3" d="M45,92.6l8.1,4.4"/>
<path class="st3" d="M48.1,100.7l5.8,2.6"/>
<path class="st3" d="M54.4,101.4l2.9-4.3"/>
<path class="st3" d="M53.3,92.7l2.3-3.7"/>
<path class="st3" d="M51.1,86.5l0.9-3.7"/>
<path class="st16" d="M81.7,160.1l1.7-60l14.7-14.7l13.3,15.5l-1.7,60L81.7,160.1z"/>
<path class="st16" d="M104.6,164.8l-15.9-60.4l9.8-18.9l17.3,11.7l15.9,60.4L104.6,164.8z"/>
<circle class="st0" cx="100.6" cy="96" r="2.5"/>
<path class="st3" d="M87.3,95.7c-3.2-1.7-5.7-4.5-7-7.9s-1.5-7.1-0.4-10.5c1.1-3.4,3.4-6.4,6.4-8.3c3.1-1.9,6.7-2.8,10.3-2.3
	c3.6,0.5,6.9,2.2,9.4,4.8c2.5,2.7,3.9,6.1,4.1,9.7c0.2,3.6-0.9,7.2-3,10.1c-2.2,2.9-5.3,5-8.8,5.8"/>
<path d="M102.4,121.1c-0.2-0.7-0.3-1.4-0.2-2.1c0.1-0.7,0.2-1.3,0.5-1.7l0.6,0.2c-0.3,0.4-0.4,1-0.5,1.6c0,0.6,0,1.3,0.2,1.9
	c0.3,0.9,0.6,1.5,1.1,1.9c0.5,0.4,1,0.5,1.5,0.3c0.4-0.1,0.7-0.3,0.9-0.7c0.2-0.3,0.3-0.7,0.3-1.1c0-0.4,0-0.9,0-1.6
	c0-0.7,0-1.3,0-1.8c0-0.5,0.2-0.9,0.4-1.3c0.3-0.4,0.7-0.7,1.2-0.8c0.5-0.1,0.9-0.1,1.4,0c0.5,0.1,0.9,0.4,1.2,0.8
	c0.4,0.4,0.7,1,0.9,1.8c0.2,0.5,0.2,1.1,0.2,1.6c0,0.5-0.1,1-0.2,1.5l-0.6-0.1c0.1-0.5,0.2-0.9,0.2-1.4c0-0.5-0.1-1-0.2-1.4
	c-0.3-0.9-0.6-1.5-1.1-1.8c-0.5-0.3-1-0.4-1.6-0.3c-0.4,0.1-0.7,0.3-0.9,0.7c-0.2,0.3-0.3,0.7-0.3,1.1c0,0.4,0,0.9,0,1.6
	c0,0.7,0,1.3,0,1.8c0,0.5-0.2,0.9-0.4,1.3c-0.2,0.4-0.6,0.7-1.2,0.8c-0.5,0.1-0.9,0.1-1.4,0c-0.4-0.1-0.9-0.4-1.2-0.9
	C103,122.5,102.7,121.9,102.4,121.1z M113,130.7l-7,2.1l-0.2-0.7l1.6-0.5c-0.6-0.1-1.2-0.4-1.6-0.8c-0.4-0.4-0.8-0.9-1-1.6
	c-0.2-0.7-0.2-1.3-0.1-1.9c0.1-0.6,0.4-1.2,0.9-1.6c0.4-0.5,1-0.8,1.7-1c0.7-0.2,1.3-0.2,2-0.1c0.6,0.1,1.2,0.4,1.6,0.9
	c0.5,0.4,0.8,1,1,1.6c0.2,0.6,0.2,1.2,0.1,1.8c-0.1,0.6-0.4,1.1-0.9,1.5l1.6-0.5L113,130.7z M105.5,129.2c0.2,0.5,0.4,1,0.8,1.3
	c0.4,0.4,0.8,0.6,1.3,0.7c0.5,0.1,1.1,0.1,1.6-0.1c0.6-0.2,1-0.4,1.4-0.8c0.4-0.4,0.6-0.8,0.7-1.3c0.1-0.5,0.1-1-0.1-1.5
	c-0.2-0.5-0.4-1-0.8-1.3c-0.4-0.3-0.8-0.6-1.3-0.7c-0.5-0.1-1.1-0.1-1.6,0.1c-0.6,0.2-1,0.4-1.4,0.8c-0.4,0.4-0.6,0.8-0.7,1.3
	C105.3,128.1,105.3,128.6,105.5,129.2z M107.3,137.5c-0.2-0.6-0.1-1.1,0.1-1.5c0.2-0.4,0.7-0.7,1.3-0.9l8.1-2.4l0.2,0.7l-8,2.4
	c-0.5,0.1-0.8,0.3-1,0.6c-0.2,0.3-0.2,0.6-0.1,1c0.1,0.2,0.2,0.4,0.3,0.6l-0.5,0.2C107.5,138,107.4,137.8,107.3,137.5z M109.4,142.2
	c0.1,0.5,0.3,0.9,0.6,1.2c0.3,0.3,0.6,0.6,1,0.8l-0.3,0.5c-0.5-0.2-0.9-0.5-1.2-0.9c-0.3-0.4-0.6-0.9-0.7-1.4
	c-0.2-0.7-0.2-1.4-0.1-2c0.1-0.6,0.4-1.2,0.9-1.7c0.4-0.5,1-0.8,1.7-1c0.7-0.2,1.3-0.2,2-0.1c0.6,0.1,1.2,0.4,1.6,0.8
	c0.5,0.4,0.8,1,1,1.6c0.2,0.6,0.2,1.2,0.1,1.8c-0.1,0.6-0.4,1.1-0.8,1.5c-0.4,0.4-0.9,0.8-1.5,1l-2.9-5.6c-0.6,0.4-1,0.9-1.2,1.5
	C109.2,140.8,109.2,141.5,109.4,142.2z M115.2,140.2c-0.2-0.5-0.4-1-0.8-1.3c-0.4-0.3-0.8-0.6-1.3-0.7c-0.5-0.1-1-0.1-1.6,0.1
	c-0.1,0-0.2,0.1-0.4,0.2l2.6,5c0.4-0.2,0.7-0.4,1-0.8c0.3-0.3,0.5-0.7,0.5-1.2C115.4,141.2,115.4,140.7,115.2,140.2z"/>
</svg>
