<?xml version="1.0" encoding="utf-8"?>
<!-- Generator: Adobe Illustrator 23.1.0, SVG Export Plug-In . SVG Version: 6.00 Build 0)  -->
<svg version="1.1" id="Слой_1" xmlns="http://www.w3.org/2000/svg" xmlns:xlink="http://www.w3.org/1999/xlink" x="0px" y="0px"
	 viewBox="0 0 190 190" style="enable-background:new 0 0 190 190;" xml:space="preserve">
<style type="text/css">
	.st0{fill:none;stroke:#000000;stroke-linecap:round;stroke-linejoin:round;}
	.st1{fill:none;stroke:#000000;}
	.st2{fill-rule:evenodd;clip-rule:evenodd;fill:#FFFFFF;}
	.st3{fill-rule:evenodd;clip-rule:evenodd;fill:#FFFFFF;filter:url(#Adobe_OpacityMaskFilter);}
	.st4{mask:url(#path-25-inside-1_1_);}
	.st5{fill:none;stroke:#000000;stroke-linecap:round;}
	.st6{fill-rule:evenodd;clip-rule:evenodd;fill:#FFFFFF;filter:url(#Adobe_OpacityMaskFilter_1_);}
	.st7{mask:url(#path-34-inside-2_1_);}
	.st8{fill-rule:evenodd;clip-rule:evenodd;fill:#FFFFFF;filter:url(#Adobe_OpacityMaskFilter_2_);}
	.st9{mask:url(#path-43-inside-3_1_);}
	.st10{fill-rule:evenodd;clip-rule:evenodd;fill:#FFFFFF;filter:url(#Adobe_OpacityMaskFilter_3_);}
	.st11{mask:url(#path-52-inside-4_1_);}
	.st12{fill-rule:evenodd;clip-rule:evenodd;fill:#FFFFFF;filter:url(#Adobe_OpacityMaskFilter_4_);}
	.st13{mask:url(#path-61-inside-5_1_);}
	.st14{fill-rule:evenodd;clip-rule:evenodd;fill:#FFFFFF;filter:url(#Adobe_OpacityMaskFilter_5_);}
	.st15{mask:url(#path-70-inside-6_1_);}
	.st16{fill-rule:evenodd;clip-rule:evenodd;fill:#FFFFFF;filter:url(#Adobe_OpacityMaskFilter_6_);}
	.st17{mask:url(#path-79-inside-7_1_);}
</style>
<path class="st0" d="M163.4,89.2c-1.4-3.2-16.1-13.3-16.1-13.3C151.5,77.4,160.5,82.3,163.4,89.2z"/>
<path class="st0" d="M72.7,72.2c23.1,1.6,40.5,15.2,46.3,21.9c-15.9-13.5-43.6-18.8-47.2-19.7c-2.9-0.7-9.9,0.3-13,0.9
	C50.7,73.9,65.9,71.8,72.7,72.2z"/>
<path class="st0" d="M165.7,103.6c3.1,0.2,6.5-1.8,7.9-2.8l0.2-9c0.1-0.3,0.1-0.6-0.6,0.1c-0.7,0.7-5.6,1.6-8,1.9
	C165.2,97.1,164.8,103.5,165.7,103.6z"/>
<path class="st0" d="M48.8,112.8v-2.7L30,98.4v2.7L48.8,112.8z"/>
<path class="st0" d="M33,113.4l12.5,5.9l-12.9-9L33,113.4z"/>
<path class="st0" d="M108.3,135.1c1.5-3.7,0.6-9.3,0-11.6c-9.1-1.2-27.7-3.2-29.2-1.5c-1.5,1.7,0.6,7.7,1.9,10.5
	C89.5,134.9,106.8,138.9,108.3,135.1z"/>
<path class="st0" d="M117.9,136.2c-3.5-0.5-4.7-9.1-4.9-13.3l14.8-1.5v7.1l35.2-5.6l0.6-6.3l4.8-0.8l-0.4,7.1
	c-0.2,3.6-2.6,5.2-3.7,5.6C150.3,131.2,121.4,136.7,117.9,136.2z"/>
<path class="st0" d="M128.6,126l0.5-9.9l33.9-3.9l-0.6,9.1L128.6,126z"/>
<path class="st0" d="M170.5,114.9l4.4-2.5c-0.1,2.1-0.4,6.9-0.8,9.3c-0.4,2.4-3.2,4.3-4.6,4.9L170.5,114.9z"/>
<path class="st0" d="M50.4,94.1c0.2,0.3,0,2.9,0,2.9c0,0.2-0.1,0.5-0.3,0.5c-0.2,0-0.7-0.6-0.9-1.3c-0.3-0.9,0-2.1,0.3-2.5
	C49.8,93.3,50.2,93.8,50.4,94.1z"/>
<path class="st0" d="M36.7,80.4c0.6,0.2,1,0.6,0.9,1.7c0,0.4,0.2,1.3-1,1.3c-1.2,0-1-0.1-1.3-0.6c-0.4-0.7-0.1-1.3,0.2-2
	S36.1,80.3,36.7,80.4z"/>
<path class="st0" d="M29.1,78.9C29,78,27.9,78,27.8,78.5c-0.1,0.5-0.5,1.2-0.2,1.8c0.2,0.5,0.4,0.6,1,0.6
	C29.3,80.9,29.2,79.8,29.1,78.9z"/>
<path class="st0" d="M39.9,55c0.6-1.8,5.5-5.6,5.8-5.7l-5.1,14.4c-2.2-0.1-2.9,1-3.5,1.8c-0.9,1.1-1.3,4-1.5,5.1l0,0
	c-0.1,0.8-0.1,0.9,0.7,1.7c-0.8-0.3-0.9-0.3-2-0.3C35.1,65.7,39.3,56.8,39.9,55z"/>
<path class="st0" d="M31.9,71.3l1.6,0.4c0.9-3,2.9-9.9,4-13.5C36.2,59.3,33.2,67.4,31.9,71.3z"/>
<path class="st0" d="M51,51.5c-0.2-0.8-1.1-2.3-3.4-2.7l-5.4,14.8h3.3c3.2,0,3.4,5.6,3.2,7.6l2.3-5.9V51.5z"/>
<path class="st0" d="M54.7,49.1c-0.2,12.5,1.7,20.6,2.7,23.1c11.7-3.3,52.6-2.8,71.6-2.1L105,50.6C104.7,48.9,94.2,46.1,54.7,49.1z"
	/>
<path class="st0" d="M105.4,49c-9.4-4-39.6-3.1-53.6-2.1c-4.5-0.6-10.5,4.7-13,7.5c-2.2,4-7.3,13-9.5,17.1c-3,2.4-4.1,6.2-4.3,7.8
	v9.5c-0.1,2,0,7.6,1.1,13.8c0.8,12,2.4,14.1,3.1,13.6h6.4l18,13.5c0,0.9,0.3,3.8,1.9,7.7c2,4.9,5.1,7.2,6,7.7
	c0.9,0.5,7.1-0.3,11-1.1c3.9-0.9,1.2-1.6,2.8-1c1.2,0.5,14.4,0.2,20.8,0c8.3-0.3,28.5-1.7,42.9-4.3c18-3.3,36.2-10.7,37.5-12
	c1-1,0.7-1.8,0.4-2l-2.1-3.8l0.9-8.7c0.7-1,0.7-1,0.7-2l0.4-7.5c-3.4-1.4-2.1-1.4-2.1-10.5c0-9.1-29.4-18.4-43.5-21.2
	C126.6,65.2,114.8,53,105.4,49z"/>
<path class="st0" d="M131.4,64.6c-1.3-1.4-4.4-0.6-5.7,0l5.7,6.3C132,69.3,132.8,66,131.4,64.6z"/>
<path class="st0" d="M29,102.7c0.1,3,0,5.7-0.1,7.6c-0.1,1-0.2,1.8-0.3,2.3c0,0,0,0,0,0c0,0,0,0,0,0c-0.2-0.5-0.3-1.3-0.4-2.2
	c-0.3-1.9-0.5-4.6-0.6-7.6c-0.1-3,0-5.7,0.1-7.6c0.1-1,0.2-1.8,0.3-2.3c0,0,0,0,0,0c0,0,0,0,0,0c0.2,0.5,0.3,1.3,0.4,2.2
	C28.7,97,28.9,99.7,29,102.7z"/>
<path class="st0" d="M64.8,124.3c0,5.3-0.4,9.6-1.2,12.5c-0.4,1.5-0.9,2.6-1.4,3.3c-0.5,0.7-1.1,1-1.7,1c-0.2,0-0.5-0.1-0.9-0.5
	c-0.4-0.3-0.8-0.9-1.2-1.6c-0.8-1.4-1.6-3.4-2.3-5.7c-1.4-4.7-2.5-10.7-2.5-16c0-5.3,0.4-9.2,1.1-11.6c0.4-1.2,0.8-2.1,1.3-2.6
	c0.5-0.5,1-0.8,1.7-0.8c0.2,0,0.5,0.1,0.9,0.4c0.4,0.3,0.8,0.8,1.2,1.4c0.8,1.2,1.6,3,2.4,5.1C63.7,113.4,64.8,119,64.8,124.3z"/>
<path class="st0" d="M117.3,108.6l2.8-9.6c0.7-2.6-27.2-2.3-41.2-1.9c-3.2,1.9-6.3,7.9-4.2,9.3C78,108.6,105,109.1,117.3,108.6z"/>
<path class="st0" d="M118.8,108.1l22.6-2.1c2.4-1.3,1.7-4.2,1.8-5.4c0.1-1-1.1-2.4-1.8-3l-20,1.5L118.8,108.1z"/>
<path class="st0" d="M164.5,103.1l-0.4-7.3l0,0c-4.7,0-14.4,0-16.8,1.5c-2.9,1.8-3.6,7.2-3.5,8.6L164.5,103.1z"/>
<path class="st1" d="M29.3,117.6c0,0,14.3,15.4,25.9,19.2c11.6,3.8,28.2-6.9,49.8-2.5c20.8,4.2,41.4,29.1,41.4,29.1"/>
<path class="st2" d="M98.6,133c1.9-7.3,0.3-16-4.9-22.8c-5.2-6.8-12.8-10.1-19.9-9.5c-1.9,7.3-0.3,16,4.9,22.8
	C84,130.3,91.6,133.7,98.6,133z"/>
<defs>
	<filter id="Adobe_OpacityMaskFilter" filterUnits="userSpaceOnUse" x="72.1" y="99.6" width="28.3" height="34.6">
		<feColorMatrix  type="matrix" values="1 0 0 0 0  0 1 0 0 0  0 0 1 0 0  0 0 0 1 0"/>
	</filter>
</defs>
<mask maskUnits="userSpaceOnUse" x="72.1" y="99.6" width="28.3" height="34.6" id="path-25-inside-1_1_">
	<path class="st3" d="M98.6,133c1.9-7.3,0.3-16-4.9-22.8c-5.2-6.8-12.8-10.1-19.9-9.5c-1.9,7.3-0.3,16,4.9,22.8
		C84,130.3,91.6,133.7,98.6,133z"/>
</mask>
<path class="st4" d="M98.6,133l0.2,1l0.6-0.1l0.2-0.6L98.6,133z M73.8,100.7l-0.2-1l-0.6,0.1l-0.2,0.6L73.8,100.7z M93,110.8
	c5,6.5,6.5,14.8,4.7,21.8l1.8,0.8c2-7.6,0.4-16.7-5.1-23.8L93,110.8z M74,101.7c6.7-0.6,14,2.5,19,9l1.4-1.2
	C88.9,102.4,81,99,73.6,99.7L74,101.7z M79.4,122.9c-5-6.5-6.5-14.8-4.7-21.8l-1.8-0.8c-2,7.6-0.4,16.7,5.1,23.8L79.4,122.9z
	 M98.4,131.9c-6.7,0.6-14-2.5-19-9l-1.4,1.2c5.5,7.1,13.4,10.6,20.8,9.9L98.4,131.9z"/>
<path class="st1" d="M75.2,101.9c0,0,7.7,7.9,12,13.5c4.5,5.9,10.5,16.1,10.5,16.1"/>
<path class="st5" d="M77.1,111.9l8.4,1.9"/>
<path class="st5" d="M82.3,120l8.6,0.9"/>
<path class="st5" d="M88.7,127.4l5.8,0"/>
<path class="st5" d="M94,125.1l0.2-6.1"/>
<path class="st5" d="M88.9,116.1l0-5.2"/>
<path class="st5" d="M84.2,110.3l-1.1-4.5"/>
<path class="st2" d="M127.1,146.5c5.3-4.1,8.2-11.5,6.9-20s-6.3-16-12.9-20.2c-5.3,4.1-8.2,11.5-6.9,20
	C115.5,134.8,120.5,142.3,127.1,146.5z"/>
<defs>
	<filter id="Adobe_OpacityMaskFilter_1_" filterUnits="userSpaceOnUse" x="112.9" y="105.2" width="22.4" height="42.6">
		<feColorMatrix  type="matrix" values="1 0 0 0 0  0 1 0 0 0  0 0 1 0 0  0 0 0 1 0"/>
	</filter>
</defs>
<mask maskUnits="userSpaceOnUse" x="112.9" y="105.2" width="22.4" height="42.6" id="path-34-inside-2_1_">
	<path class="st6" d="M127.1,146.5c5.3-4.1,8.2-11.5,6.9-20s-6.3-16-12.9-20.2c-5.3,4.1-8.2,11.5-6.9,20
		C115.5,134.8,120.5,142.3,127.1,146.5z"/>
</mask>
<path class="st7" d="M127.1,146.5l-0.4,0.9l0.6,0.4l0.5-0.4L127.1,146.5z M121.1,106.4l0.4-0.8l-0.6-0.4l-0.5,0.4L121.1,106.4z
	 M114.2,126.3l1,0L114.2,126.3z M133.1,126.6c1.2,8.2-1.5,15.2-6.6,19.1l1.3,1.7c5.6-4.3,8.6-12,7.2-20.8L133.1,126.6z M120.7,107.2
	c6.3,4,11.1,11.2,12.3,19.3l1.9,0c-1.3-8.8-6.6-16.6-13.5-21L120.7,107.2z M115.2,126.3c-1.2-8.2,1.5-15.2,6.6-19.1l-1.3-1.7
	c-5.6,4.3-8.6,12-7.2,20.8L115.2,126.3z M127.5,145.7c-6.3-4-11.1-11.2-12.3-19.3l-1.9,0c1.3,8.8,6.6,16.6,13.5,21L127.5,145.7z"/>
<path class="st1" d="M121.7,108.2c0,0,2.9,10.9,3.9,17.8c1.1,7.4,1.3,18.8,1.3,18.8"/>
<path class="st5" d="M118.5,116.8l6.5,7"/>
<path class="st5" d="M119.1,126.2l7.1,6.4"/>
<path class="st5" d="M121.1,135.8l5.2,3.9"/>
<path class="st5" d="M126.9,137.7l3.2-4.3"/>
<path class="st5" d="M126.9,127.7l2.6-3.8"/>
<path class="st5" d="M125.6,120.3l1.3-4"/>
<path class="st2" d="M42.6,103.9c6.9,0.5,14,4.7,18.3,11.7c4.4,7.1,5,15.2,2.4,21.6c-6.9-0.5-14-4.7-18.3-11.7
	C40.5,118.5,39.9,110.3,42.6,103.9z"/>
<defs>
	<filter id="Adobe_OpacityMaskFilter_2_" filterUnits="userSpaceOnUse" x="40" y="102.9" width="25.8" height="35.5">
		<feColorMatrix  type="matrix" values="1 0 0 0 0  0 1 0 0 0  0 0 1 0 0  0 0 0 1 0"/>
	</filter>
</defs>
<mask maskUnits="userSpaceOnUse" x="40" y="102.9" width="25.8" height="35.5" id="path-43-inside-3_1_">
	<path class="st8" d="M42.6,103.9c6.9,0.5,14,4.7,18.3,11.7c4.4,7.1,5,15.2,2.4,21.6c-6.9-0.5-14-4.7-18.3-11.7
		C40.5,118.5,39.9,110.3,42.6,103.9z"/>
</mask>
<path class="st9" d="M42.6,103.9l-0.1-1l-0.6,0l-0.2,0.6L42.6,103.9z M63.3,137.3l0.1,1l0.6,0l0.2-0.6L63.3,137.3z M42.6,105
	c6.6,0.5,13.3,4.5,17.5,11.2l1.6-1c-4.6-7.4-11.9-11.8-19.2-12.3L42.6,105z M60.1,116.2c4.2,6.7,4.8,14.5,2.3,20.6l1.8,1
	c2.8-6.7,2.1-15.2-2.5-22.6L60.1,116.2z M63.2,136.2c-6.6-0.5-13.3-4.5-17.5-11.2l-1.6,1c4.6,7.4,11.9,11.8,19.2,12.3L63.2,136.2z
	 M45.7,125c-4.2-6.7-4.8-14.5-2.3-20.6l-1.8-1c-2.8,6.7-2.1,15.2,2.5,22.6L45.7,125z"/>
<path class="st1" d="M43.7,105.3c0,0,6.6,8.4,10.2,14.2c3.8,6.1,8.5,16.3,8.5,16.3"/>
<path class="st5" d="M44.6,114.7l7.9,3"/>
<path class="st5" d="M48.8,122.9L57,125"/>
<path class="st5" d="M54.2,130.6l5.7,0.9"/>
<path class="st5" d="M59.6,129.3l0.9-5.6"/>
<path class="st5" d="M55.6,120.3l0.6-4.7"/>
<path class="st5" d="M51.7,114.3l-0.6-4.3"/>
<path class="st2" d="M30.6,120.4c1.5-6.7-0.2-14.4-5.1-20.4c-4.9-6-11.8-8.7-18.1-7.8c-1.5,6.7,0.2,14.4,5.1,20.4
	C17.4,118.6,24.3,121.3,30.6,120.4z"/>
<defs>
	<filter id="Adobe_OpacityMaskFilter_3_" filterUnits="userSpaceOnUse" x="5.9" y="91" width="26.2" height="30.6">
		<feColorMatrix  type="matrix" values="1 0 0 0 0  0 1 0 0 0  0 0 1 0 0  0 0 0 1 0"/>
	</filter>
</defs>
<mask maskUnits="userSpaceOnUse" x="5.9" y="91" width="26.2" height="30.6" id="path-52-inside-4_1_">
	<path class="st10" d="M30.6,120.4c1.5-6.7-0.2-14.4-5.1-20.4c-4.9-6-11.8-8.7-18.1-7.8c-1.5,6.7,0.2,14.4,5.1,20.4
		C17.4,118.6,24.3,121.3,30.6,120.4z"/>
</mask>
<path class="st11" d="M30.6,120.4l0.2,1l0.6-0.1l0.1-0.6L30.6,120.4z M7.4,92.2l-0.2-1l-0.6,0.1l-0.1,0.6L7.4,92.2z M24.8,100.7
	c4.7,5.7,6.3,13,4.8,19.4l1.9,0.7c1.6-7-0.2-15.1-5.3-21.4L24.8,100.7z M7.6,93.3c6-0.8,12.5,1.8,17.2,7.4l1.3-1.3
	c-5.2-6.3-12.4-9.1-19-8.2L7.6,93.3z M13.1,112c-4.7-5.7-6.3-13-4.8-19.4l-1.9-0.7c-1.6,7,0.2,15.1,5.3,21.4L13.1,112z M30.3,119.4
	c-6,0.8-12.5-1.8-17.2-7.4l-1.3,1.3c5.2,6.3,12.4,9.1,19,8.2L30.3,119.4z"/>
<path class="st1" d="M8.6,93.3c0,0,7.1,6.8,11.1,11.7c4.2,5.2,9.9,14.1,9.9,14.1"/>
<path class="st5" d="M10.7,102.2l7.6,1.4"/>
<path class="st5" d="M15.6,109.3l7.7,0.5"/>
<path class="st5" d="M21.5,115.7l5.2-0.2"/>
<path class="st5" d="M26.2,113.5l0-5.5"/>
<path class="st5" d="M21.4,105.5l-0.1-4.7"/>
<path class="st5" d="M17,100.5l-1.1-4"/>
<path class="st2" d="M44,128.3c-0.2,6.9-3.7,13.1-9.7,16c-6,2.8-13.1,1.6-18.7-2.5c0.2-6.9,3.7-13.1,9.7-16
	C31.3,123,38.4,124.2,44,128.3z"/>
<defs>
	<filter id="Adobe_OpacityMaskFilter_4_" filterUnits="userSpaceOnUse" x="14.6" y="123.2" width="30.4" height="23.7">
		<feColorMatrix  type="matrix" values="1 0 0 0 0  0 1 0 0 0  0 0 1 0 0  0 0 0 1 0"/>
	</filter>
</defs>
<mask maskUnits="userSpaceOnUse" x="14.6" y="123.2" width="30.4" height="23.7" id="path-61-inside-5_1_">
	<path class="st12" d="M44,128.3c-0.2,6.9-3.7,13.1-9.7,16c-6,2.8-13.1,1.6-18.7-2.5c0.2-6.9,3.7-13.1,9.7-16
		C31.3,123,38.4,124.2,44,128.3z"/>
</mask>
<path class="st13" d="M44,128.3l1,0.2l0-0.6l-0.5-0.4L44,128.3z M15.6,141.8l-1-0.2l0,0.6l0.5,0.4L15.6,141.8z M43.1,128.2
	c-0.2,6.6-3.5,12.5-9.2,15.2l0.9,1.9c6.3-3,10-9.5,10.2-16.8L43.1,128.2z M33.8,143.4c-5.7,2.7-12.4,1.6-17.8-2.4l-1,1.7
	c5.9,4.4,13.3,5.7,19.6,2.7L33.8,143.4z M16.5,141.9c0.2-6.6,3.5-12.5,9.2-15.2l-0.9-1.9c-6.3,3-10,9.5-10.2,16.8L16.5,141.9z
	 M25.8,126.8c5.7-2.7,12.4-1.6,17.8,2.4l1-1.7c-5.9-4.4-13.3-5.7-19.6-2.7L25.8,126.8z"/>
<path class="st1" d="M16.7,140.9c0,0,7.1-4.8,12.1-7.1c5.2-2.4,14-4.9,14-4.9"/>
<path class="st5" d="M24.9,142.2l2.4-7.4"/>
<path class="st5" d="M31.9,139.8l1.7-7.9"/>
<path class="st5" d="M38.5,136.1l0.6-5.6"/>
<path class="st5" d="M37.2,130.3l-4.9-2.2"/>
<path class="st5" d="M29.5,132.2l-4.1-1.7"/>
<path class="st5" d="M24.4,134.9l-3.7-0.4"/>
<path class="st2" d="M88.8,132.6c-6.1-0.3-11.8,2.9-14.8,9.1c-3,6.2-2.5,13.9,0.6,20.2c6.1,0.3,11.8-2.9,14.8-9.1
	C92.4,146.5,92,138.9,88.8,132.6z"/>
<defs>
	<filter id="Adobe_OpacityMaskFilter_5_" filterUnits="userSpaceOnUse" x="71.1" y="131.5" width="21.3" height="31.5">
		<feColorMatrix  type="matrix" values="1 0 0 0 0  0 1 0 0 0  0 0 1 0 0  0 0 0 1 0"/>
	</filter>
</defs>
<mask maskUnits="userSpaceOnUse" x="71.1" y="131.5" width="21.3" height="31.5" id="path-70-inside-6_1_">
	<path class="st14" d="M88.8,132.6c-6.1-0.3-11.8,2.9-14.8,9.1c-3,6.2-2.5,13.9,0.6,20.2c6.1,0.3,11.8-2.9,14.8-9.1
		C92.4,146.5,92,138.9,88.8,132.6z"/>
</mask>
<path class="st15" d="M88.8,132.6l0.8-0.4l-0.3-0.6l-0.6,0L88.8,132.6z M74.7,161.9l-0.8,0.4l0.3,0.6l0.6,0L74.7,161.9z M89.4,152.8
	l-0.8-0.6L89.4,152.8z M74.9,142.3c2.9-5.9,8.3-9,14-8.7l-0.2-2.1c-6.4-0.3-12.4,3.1-15.5,9.6L74.9,142.3z M75.5,161.5
	c-3-6-3.4-13.3-0.6-19.2l-1.7-1.2c-3.1,6.5-2.7,14.5,0.6,21.2L75.5,161.5z M88.6,152.1c-2.9,5.9-8.3,9-14,8.7l0.2,2.1
	c6.4,0.3,12.4-3.1,15.5-9.6L88.6,152.1z M88,132.9c3,6,3.4,13.3,0.6,19.2l1.7,1.2c3.1-6.5,2.7-14.5-0.6-21.2L88,132.9z"/>
<path class="st1" d="M75,160.4c0,0,2.9-8.6,5.3-13.7c2.6-5.4,7.8-12.9,7.8-12.9"/>
<path class="st5" d="M81.6,156.6l-1.8-8.1"/>
<path class="st5" d="M85.5,150.1l-2.6-8.1"/>
<path class="st5" d="M88.5,142.8l-2.2-5.4"/>
<path class="st5" d="M84.8,138.4l-4.6,1"/>
<path class="st5" d="M80.2,144.9l-3.8,1"/>
<path class="st5" d="M77.7,150.4l-2.9,1.9"/>
<path class="st2" d="M116.3,138.5c-6.7-0.3-13.1,3.2-16.4,10c-3.3,6.8-2.9,15.2,0.6,22.1c6.7,0.3,13.1-3.2,16.4-10
	C120.2,153.8,119.7,145.4,116.3,138.5z"/>
<defs>
	<filter id="Adobe_OpacityMaskFilter_6_" filterUnits="userSpaceOnUse" x="96.6" y="137.4" width="23.5" height="34.2">
		<feColorMatrix  type="matrix" values="1 0 0 0 0  0 1 0 0 0  0 0 1 0 0  0 0 0 1 0"/>
	</filter>
</defs>
<mask maskUnits="userSpaceOnUse" x="96.6" y="137.4" width="23.5" height="34.2" id="path-79-inside-7_1_">
	<path class="st16" d="M116.3,138.5c-6.7-0.3-13.1,3.2-16.4,10c-3.3,6.8-2.9,15.2,0.6,22.1c6.7,0.3,13.1-3.2,16.4-10
		C120.2,153.8,119.7,145.4,116.3,138.5z"/>
</mask>
<path class="st17" d="M116.3,138.5l0.8-0.4l-0.3-0.6l-0.6,0L116.3,138.5z M100.5,170.6l-0.8,0.4l0.3,0.6l0.6,0L100.5,170.6z
	 M100.7,149.1c3.2-6.5,9.2-9.9,15.7-9.5l-0.2-2.1c-7.1-0.3-13.7,3.4-17.1,10.4L100.7,149.1z M101.3,170.2
	c-3.3-6.6-3.8-14.6-0.6-21.1l-1.7-1.2c-3.5,7.1-3,15.8,0.7,23.1L101.3,170.2z M116,160c-3.2,6.5-9.2,9.9-15.7,9.6l0.2,2.1
	c7.1,0.3,13.7-3.4,17.1-10.4L116,160z M115.4,138.9c3.3,6.6,3.8,14.6,0.6,21.1l1.7,1.2c3.5-7.1,3-15.8-0.7-23.1L115.4,138.9z"/>
<path class="st1" d="M100.9,169c0,0,3.2-9.4,5.9-15c2.9-5.9,8.7-14.1,8.7-14.1"/>
<path class="st5" d="M108.2,164.8l-2-8.8"/>
<path class="st5" d="M112.5,157.7l-2.8-8.8"/>
<path class="st5" d="M115.9,149.7l-2.5-5.9"/>
<path class="st5" d="M111.8,144.9l-5.1,1.1"/>
<path class="st5" d="M106.6,152l-4.2,1.1"/>
<path class="st5" d="M103.9,158l-3.2,2.1"/>
</svg>
