<svg width="180" height="155" viewBox="0 0 180 155" fill="none" xmlns="http://www.w3.org/2000/svg">
<path d="M165.694 44.1563C164.276 40.9137 149.606 30.8912 149.606 30.8912C153.758 32.4493 162.788 37.2837 165.694 44.1563Z" stroke="black" stroke-linecap="round" stroke-linejoin="round"/>
<path d="M74.9762 27.2275C98.0606 28.8443 115.457 42.4718 121.27 49.0832C105.389 35.5655 77.6749 30.2596 74.0421 29.3753C71.1358 28.6678 64.1814 29.67 61.0674 30.2596C52.9713 28.8699 68.2294 26.755 74.9762 27.2275Z" stroke="black" stroke-linecap="round" stroke-linejoin="round"/>
<path d="M167.978 58.5583C171.05 58.7604 174.517 56.7896 175.867 55.779L176.074 46.8093C176.178 46.5566 176.199 46.2281 175.451 46.9356C174.704 47.6431 169.812 48.4937 167.459 48.8306C167.459 52.1153 167.148 58.5037 167.978 58.5583Z" stroke="black" stroke-linecap="round" stroke-linejoin="round"/>
<path d="M51.1031 67.7806V65.1276L32.3159 53.3786V56.0316L51.1031 67.7806Z" stroke="black" stroke-linecap="round" stroke-linejoin="round"/>
<path d="M35.3258 68.4123L47.7814 74.35L34.9106 65.3803L35.3258 68.4123Z" stroke="black" stroke-linecap="round" stroke-linejoin="round"/>
<path d="M110.578 90.1417C112.073 86.4022 111.201 80.8351 110.578 78.519C101.479 77.2978 82.9062 75.2849 81.4115 77.003C79.9169 78.7211 82.0343 84.7094 83.2799 87.4887C91.7566 89.9312 109.084 93.8812 110.578 90.1417Z" stroke="black" stroke-linecap="round" stroke-linejoin="round"/>
<path d="M120.231 91.1524C116.744 90.6471 115.526 82.0985 115.353 77.8874L130.196 76.3714V83.446L165.383 77.8874L166.006 71.5707L170.78 70.8127L170.365 77.8874C170.199 81.5258 167.805 83.1092 166.629 83.446C152.616 86.2254 123.719 91.6577 120.231 91.1524Z" stroke="black" stroke-linecap="round" stroke-linejoin="round"/>
<path d="M130.923 81.0457L131.442 71.1917L165.383 67.2753L164.761 76.3714L130.923 81.0457Z" stroke="black" stroke-linecap="round" stroke-linejoin="round"/>
<path d="M172.753 69.9283L177.112 67.4016C177.008 69.5072 176.697 74.3247 176.282 76.7503C175.867 79.1759 173.064 81.0456 171.715 81.6773L172.753 69.9283Z" stroke="black" stroke-linecap="round" stroke-linejoin="round"/>
<path d="M52.6601 49.0833C52.8331 49.3781 52.6601 51.989 52.6601 51.989C52.6601 52.1574 52.5978 52.4943 52.3487 52.4943C52.0996 52.4943 51.6201 51.8458 51.4145 51.231C51.1055 50.3068 51.3938 49.1086 51.7259 48.7043C52.0581 48.3001 52.4871 48.7885 52.6601 49.0833Z" stroke="black" stroke-linecap="round" stroke-linejoin="round"/>
<path d="M38.9588 35.4392C39.5313 35.6092 39.9225 36.0525 39.8395 37.1643C39.8395 37.5854 39.9968 38.4713 38.8015 38.4276C37.6062 38.3839 37.7694 38.3643 37.4522 37.7959C37.0849 37.1379 37.3987 36.4889 37.6598 35.7746C37.9209 35.0603 38.3863 35.2693 38.9588 35.4392Z" stroke="black" stroke-linecap="round" stroke-linejoin="round"/>
<path d="M31.3818 33.9232C31.278 33.0389 30.24 33.0389 30.1362 33.5442C30.0325 34.0496 29.6209 34.7243 29.9287 35.3129C30.172 35.7783 30.3438 35.9446 30.9666 35.9446C31.5894 35.9446 31.4856 34.8075 31.3818 33.9232Z" stroke="black" stroke-linecap="round" stroke-linejoin="round"/>
<path d="M42.1765 10.0462C42.7993 8.27755 47.6777 4.48754 47.9891 4.36121L42.9031 18.7632C40.7234 18.6369 39.9968 19.7739 39.374 20.5319C38.4811 21.6187 38.0246 24.5746 37.9209 25.5853L37.9174 25.6185C37.8374 26.396 37.8286 26.4819 38.6474 27.3539C37.8171 27.1013 37.7133 27.1013 36.6753 27.1013C37.4019 20.6582 41.5537 11.8149 42.1765 10.0462Z" stroke="black" stroke-linecap="round" stroke-linejoin="round"/>
<path d="M34.1841 26.3432L35.741 26.7222C36.606 23.7323 38.6266 16.8429 39.7891 13.2045C38.4605 14.3163 35.4988 22.4269 34.1841 26.3432Z" stroke="black" stroke-linecap="round" stroke-linejoin="round"/>
<path d="M53.2827 6.50884C53.1097 5.75084 52.1824 4.15904 49.8574 3.85583L44.46 18.6369H47.7815C51.0199 18.6369 51.2067 24.1955 50.9991 26.2169L53.2827 20.2792V6.50884Z" stroke="black" stroke-linecap="round" stroke-linejoin="round"/>
<path d="M57.0195 4.10851C56.8534 16.6408 58.7495 24.743 59.7182 27.2276C71.4265 23.8924 112.343 24.4061 131.338 25.0799L107.257 5.62452C106.98 3.85584 96.5453 1.0765 57.0195 4.10851Z" stroke="black" stroke-linecap="round" stroke-linejoin="round"/>
<path d="M107.672 3.98218C98.289 -0.0604984 68.0565 0.865948 54.1131 1.83451C49.6291 1.2281 43.5951 6.55096 41.1386 9.28819C38.8896 13.2888 33.8313 22.3006 31.5893 26.3432C28.5999 28.7688 27.5066 32.5757 27.3336 34.1759V43.6509C27.2298 45.6723 27.3128 51.2562 28.4754 57.4213C29.3057 69.4483 30.8973 71.5286 31.5893 71.0653H38.0246L55.9815 84.583C55.9469 85.5095 56.2721 88.3478 57.8498 92.2894C59.8219 97.2164 62.9358 99.4904 63.87 99.9957C64.8042 100.501 70.9282 99.7431 74.8724 98.8587C78.8167 97.9744 76.118 97.2164 77.675 97.8481C78.9205 98.3534 92.0335 98.0586 98.4343 97.8481C106.738 97.5112 126.937 96.1805 141.302 93.5527C159.259 90.268 177.527 82.8144 178.773 81.551C179.769 80.5404 179.465 79.7824 179.188 79.5297L177.112 75.7397L178.046 67.0227C178.773 66.012 178.773 66.012 178.773 65.0013L179.188 57.5476C175.763 56.158 177.112 56.158 177.112 47.0619C177.112 37.9659 147.668 28.6172 133.621 25.8379C128.881 20.2371 117.055 8.02485 107.672 3.98218Z" stroke="black" stroke-linecap="round" stroke-linejoin="round"/>
<path d="M133.707 19.556C132.358 18.1201 129.351 18.9577 128.016 19.556L133.707 25.8379C134.269 24.3422 135.056 20.9919 133.707 19.556Z" stroke="black" stroke-linecap="round" stroke-linejoin="round"/>
<path d="M31.2975 57.6886C31.3837 60.6741 31.3226 63.3747 31.1561 65.3249C31.0726 66.3033 30.9639 67.0749 30.8396 67.5943C30.8389 67.5973 30.8382 67.6003 30.8374 67.6032C30.8366 67.6003 30.8357 67.5974 30.8348 67.5945C30.6808 67.0871 30.528 66.3266 30.3883 65.3577C30.1098 63.4265 29.8932 60.7379 29.807 57.7524C29.7209 54.7668 29.7819 52.0663 29.9484 50.1161C30.032 49.1376 30.1406 48.366 30.2649 47.8467C30.2656 47.8437 30.2664 47.8407 30.2671 47.8378C30.268 47.8407 30.2688 47.8436 30.2697 47.8465C30.4237 48.3539 30.5765 49.1144 30.7163 50.0833C30.9948 52.0145 31.2114 54.7031 31.2975 57.6886Z" stroke="black" stroke-linecap="round" stroke-linejoin="round"/>
<path d="M67.1068 79.2771C67.1068 84.5973 66.6875 88.8736 65.8976 91.8039C65.5019 93.2718 65.0226 94.3652 64.4845 95.0812C63.9524 95.7892 63.4 96.0848 62.8322 96.0848C62.6309 96.0848 62.3454 95.9714 61.9767 95.6189C61.6145 95.2727 61.2254 94.7456 60.8246 94.0471C60.0246 92.6529 59.2262 90.6614 58.5171 88.3153C57.0997 83.6257 56.0664 77.6106 56.0664 72.3287C56.0664 67.0006 56.4351 63.1759 57.1685 60.6979C57.5351 59.4593 57.9811 58.599 58.4818 58.0551C58.9681 57.5267 59.5104 57.2897 60.1335 57.2897C60.3594 57.2897 60.6566 57.3991 61.0248 57.7035C61.3895 58.0049 61.7831 58.4648 62.1905 59.0786C63.0044 60.3048 63.8254 62.072 64.5584 64.1935C66.0234 68.4335 67.1068 74.0002 67.1068 79.2771Z" stroke="black" stroke-linecap="round" stroke-linejoin="round"/>
<path d="M119.609 63.6116L122.412 54.0103C123.159 51.4499 95.2515 51.6801 81.2043 52.1153C77.9866 54.0103 74.9045 60.0303 77.0525 61.464C80.2701 63.6116 107.257 64.117 119.609 63.6116Z" stroke="black" stroke-linecap="round" stroke-linejoin="round"/>
<path d="M121.062 63.1063L143.69 60.9587C146.077 59.6953 145.35 56.7897 145.454 55.5263C145.537 54.5157 144.312 53.0839 143.69 52.4943L123.657 54.0103L121.062 63.1063Z" stroke="black" stroke-linecap="round" stroke-linejoin="round"/>
<path d="M166.836 58.0529L166.421 50.7256H166.421C161.75 50.7256 151.993 50.7256 149.606 52.2416C146.747 54.0568 145.973 59.4005 146.077 60.8323L166.836 58.0529Z" stroke="black" stroke-linecap="round" stroke-linejoin="round"/>
<path d="M31.6261 72.6133C31.6261 72.6133 45.8885 88.0141 57.5154 91.8503C69.1423 95.6865 85.6752 85.0001 107.297 89.3523C128.047 93.529 148.723 118.456 148.723 118.456" stroke="black"/>
<mask id="path-25-inside-1" fill="white">
<path fill-rule="evenodd" clip-rule="evenodd" d="M100.927 87.9896C102.869 80.665 101.27 72.0114 96.0229 65.1802C90.7754 58.3492 83.178 55.0317 76.1274 55.7052C74.1856 63.0299 75.7838 71.6835 81.0313 78.5147C86.2788 85.3457 93.8762 88.6631 100.927 87.9896Z"/>
</mask>
<path fill-rule="evenodd" clip-rule="evenodd" d="M100.927 87.9896C102.869 80.665 101.27 72.0114 96.0229 65.1802C90.7754 58.3492 83.178 55.0317 76.1274 55.7052C74.1856 63.0299 75.7838 71.6835 81.0313 78.5147C86.2788 85.3457 93.8762 88.6631 100.927 87.9896Z" fill="white"/>
<path d="M100.927 87.9896L101.121 89.0334L101.687 88.9793L101.843 88.3914L100.927 87.9896ZM76.1274 55.7052L75.933 54.6615L75.3671 54.7155L75.2113 55.3034L76.1274 55.7052ZM95.328 65.7982C100.338 72.3197 101.867 80.5843 100.011 87.5878L101.843 88.3914C103.87 80.7457 102.203 71.703 96.7177 64.5621L95.328 65.7982ZM76.3217 56.749C83.0632 56.105 90.3185 59.2769 95.328 65.7982L96.7177 64.5621C91.2324 57.4214 83.2928 53.9584 75.933 54.6615L76.3217 56.749ZM81.7262 77.8966C76.7166 71.3751 75.1868 63.1105 77.0434 56.1071L75.2113 55.3034C73.1844 62.9492 74.851 71.9918 80.3365 79.1327L81.7262 77.8966ZM100.732 86.9459C93.991 87.5899 86.7357 84.4179 81.7262 77.8966L80.3365 79.1327C85.8218 86.2735 93.7614 89.7364 101.121 89.0334L100.732 86.9459Z" fill="black" mask="url(#path-25-inside-1)"/>
<path d="M77.4615 56.9309C77.4615 56.9309 85.1145 64.8103 89.4152 70.4431C93.9484 76.3806 99.8934 86.5495 99.8934 86.5495" stroke="black"/>
<path d="M79.4058 66.9417L87.7841 68.8353" stroke="black" stroke-linecap="round"/>
<path d="M84.645 74.9951L93.2118 75.9179" stroke="black" stroke-linecap="round"/>
<path d="M90.9824 82.3956L96.8192 82.3636" stroke="black" stroke-linecap="round"/>
<path d="M96.2864 80.1033L96.5072 73.9598" stroke="black" stroke-linecap="round"/>
<path d="M91.2357 71.0798L91.268 65.9072" stroke="black" stroke-linecap="round"/>
<path d="M86.5294 65.2863L85.4633 60.7663" stroke="black" stroke-linecap="round"/>
<mask id="path-34-inside-2" fill="white">
<path fill-rule="evenodd" clip-rule="evenodd" d="M129.406 101.517C134.741 97.4516 137.604 90.056 136.339 81.5627C135.074 73.0696 129.996 65.5816 123.429 61.3776C118.094 65.4426 115.231 72.8382 116.496 81.3315C117.761 89.8246 122.839 97.3126 129.406 101.517Z"/>
</mask>
<path fill-rule="evenodd" clip-rule="evenodd" d="M129.406 101.517C134.741 97.4516 137.604 90.056 136.339 81.5627C135.074 73.0696 129.996 65.5816 123.429 61.3776C118.094 65.4426 115.231 72.8382 116.496 81.3315C117.761 89.8246 122.839 97.3126 129.406 101.517Z" fill="white"/>
<path d="M129.406 101.517L129.008 102.367L129.587 102.737L130.058 102.379L129.406 101.517ZM123.429 61.3776L123.827 60.5277L123.247 60.1568L122.777 60.5154L123.429 61.3776ZM116.496 81.3315L117.456 81.3427L116.496 81.3315ZM135.379 81.5515C136.593 89.7043 133.842 96.7775 128.753 100.654L130.058 102.379C135.641 98.1256 138.615 90.4078 137.3 81.5739L135.379 81.5515ZM123.032 62.2276C129.295 66.2369 134.165 73.3989 135.379 81.5515L137.3 81.5739C135.984 72.7403 130.697 64.9262 123.827 60.5277L123.032 62.2276ZM117.456 81.3427C116.242 73.1899 118.993 66.1167 124.082 62.2398L122.777 60.5154C117.194 64.7685 114.22 72.4864 115.535 81.3203L117.456 81.3427ZM129.803 100.667C123.54 96.6573 118.67 89.4953 117.456 81.3427L115.535 81.3203C116.851 90.1539 122.138 97.968 129.008 102.367L129.803 100.667Z" fill="black" mask="url(#path-34-inside-2)"/>
<path d="M124.004 63.1634C124.004 63.1634 126.878 74.0257 127.898 81.0114C128.972 88.3749 129.205 99.7745 129.205 99.7745" stroke="black"/>
<path d="M120.777 71.7817L127.249 78.7482" stroke="black" stroke-linecap="round"/>
<path d="M121.43 81.1638L128.549 87.5455" stroke="black" stroke-linecap="round"/>
<path d="M123.377 90.7995L128.554 94.6642" stroke="black" stroke-linecap="round"/>
<path d="M129.2 92.6556L132.43 88.3082" stroke="black" stroke-linecap="round"/>
<path d="M129.192 82.6892L131.776 78.9266" stroke="black" stroke-linecap="round"/>
<path d="M127.894 75.316L129.184 71.299" stroke="black" stroke-linecap="round"/>
<mask id="path-43-inside-3" fill="white">
<path fill-rule="evenodd" clip-rule="evenodd" d="M44.8678 58.9335C51.7938 59.4072 58.8302 63.6128 63.2107 70.6663C67.5913 77.7198 68.2316 85.8748 65.5707 92.2684C58.6447 91.7946 51.6083 87.589 47.2278 80.5355C42.8472 73.4821 42.207 65.3271 44.8678 58.9335Z"/>
</mask>
<path fill-rule="evenodd" clip-rule="evenodd" d="M44.8678 58.9335C51.7938 59.4072 58.8302 63.6128 63.2107 70.6663C67.5913 77.7198 68.2316 85.8748 65.5707 92.2684C58.6447 91.7946 51.6083 87.589 47.2278 80.5355C42.8472 73.4821 42.207 65.3271 44.8678 58.9335Z" fill="white"/>
<path d="M44.8678 58.9335L44.8077 57.9074L44.205 57.8661L43.9734 58.4226L44.8678 58.9335ZM65.5707 92.2684L65.6308 93.2945L66.2335 93.3357L66.4651 92.7793L65.5707 92.2684ZM44.928 59.9595C51.529 60.4111 58.2409 64.4203 62.4223 71.1532L63.9991 70.1795C59.4194 62.8054 52.0587 58.4034 44.8077 57.9074L44.928 59.9595ZM62.4223 71.1532C66.6038 77.886 67.2123 85.6639 64.6762 91.7575L66.4651 92.7793C69.2508 86.0856 68.5788 77.5536 63.9991 70.1795L62.4223 71.1532ZM65.5106 91.2423C58.9095 90.7907 52.1976 86.7816 48.0162 80.0487L46.4394 81.0223C51.0191 88.3964 58.3798 92.7984 65.6308 93.2945L65.5106 91.2423ZM48.0162 80.0487C43.8348 73.3158 43.2262 65.538 45.7623 59.4443L43.9734 58.4226C41.1877 65.1162 41.8597 73.6483 46.4394 81.0223L48.0162 80.0487Z" fill="black" mask="url(#path-43-inside-3)"/>
<path d="M46.0357 60.2595C46.0357 60.2595 52.6443 68.6426 56.2308 74.4546C60.0113 80.5811 64.7176 90.7927 64.7176 90.7927" stroke="black"/>
<path d="M46.8691 69.7084L54.8148 72.7335" stroke="black" stroke-linecap="round"/>
<path d="M51.1123 77.8771L59.3437 80.0441" stroke="black" stroke-linecap="round"/>
<path d="M56.4927 85.6197L62.1707 86.4923" stroke="black" stroke-linecap="round"/>
<path d="M61.8911 84.3444L62.7543 78.7642" stroke="black" stroke-linecap="round"/>
<path d="M57.9331 75.3172L58.5106 70.5951" stroke="black" stroke-linecap="round"/>
<path d="M53.9698 69.2959L53.4104 65.0005" stroke="black" stroke-linecap="round"/>
<mask id="path-52-inside-4" fill="white">
<path fill-rule="evenodd" clip-rule="evenodd" d="M32.8636 75.4207C34.3782 68.7505 32.6831 61.0116 27.7763 55.0474C22.8696 49.0832 15.9663 46.3702 9.67444 47.2333C8.15977 53.9035 9.85495 61.6424 14.7617 67.6067C19.6684 73.5708 26.5717 76.2838 32.8636 75.4207Z"/>
</mask>
<path fill-rule="evenodd" clip-rule="evenodd" d="M32.8636 75.4207C34.3782 68.7505 32.6831 61.0116 27.7763 55.0474C22.8696 49.0832 15.9663 46.3702 9.67444 47.2333C8.15977 53.9035 9.85495 61.6424 14.7617 67.6067C19.6684 73.5708 26.5717 76.2838 32.8636 75.4207Z" fill="white"/>
<path d="M32.8636 75.4207L33.0951 76.4596L33.6551 76.3828L33.7899 75.7892L32.8636 75.4207ZM9.67444 47.2333L9.4429 46.1944L8.88293 46.2712L8.74812 46.8649L9.67444 47.2333ZM27.106 55.6942C31.7639 61.356 33.3782 68.7068 31.9373 75.0522L33.7899 75.7892C35.3783 68.7943 33.6022 60.6672 28.4466 54.4005L27.106 55.6942ZM9.90597 48.2723C15.8915 47.4512 22.4481 50.0324 27.106 55.6942L28.4466 54.4005C23.2911 48.1339 16.0411 45.2893 9.4429 46.1944L9.90597 48.2723ZM15.432 66.9598C10.7741 61.298 9.15982 53.9472 10.6007 47.6018L8.74812 46.8649C7.15972 53.8597 8.93584 61.9868 14.0914 68.2535L15.432 66.9598ZM32.632 74.3817C26.6465 75.2028 20.0899 72.6216 15.432 66.9598L14.0914 68.2535C19.2469 74.5201 26.4969 77.3647 33.0951 76.4596L32.632 74.3817Z" fill="black" mask="url(#path-52-inside-4)"/>
<path d="M10.9068 48.2882C10.9068 48.2882 17.9992 55.1094 22.0216 60.0284C26.2616 65.2134 31.8947 74.1597 31.8947 74.1597" stroke="black"/>
<path d="M12.9521 57.238L20.5111 58.6397" stroke="black" stroke-linecap="round"/>
<path d="M17.8892 64.3035L25.5871 64.8236" stroke="black" stroke-linecap="round"/>
<path d="M23.7891 70.7416L29.0138 70.5007" stroke="black" stroke-linecap="round"/>
<path d="M28.4675 68.4833L28.4775 62.9399" stroke="black" stroke-linecap="round"/>
<path d="M23.6701 60.536L23.5411 55.8742" stroke="black" stroke-linecap="round"/>
<path d="M19.2797 55.4874L18.1871 51.4535" stroke="black" stroke-linecap="round"/>
<mask id="path-61-inside-5" fill="white">
<path fill-rule="evenodd" clip-rule="evenodd" d="M46.3286 83.3459C46.0877 90.2863 42.6085 96.4854 36.5903 99.3302C30.5723 102.175 23.5056 100.961 17.8872 96.7909C18.1281 89.8505 21.6074 83.6515 27.6255 80.8066C33.6435 77.9619 40.7103 79.1755 46.3286 83.3459Z"/>
</mask>
<path fill-rule="evenodd" clip-rule="evenodd" d="M46.3286 83.3459C46.0877 90.2863 42.6085 96.4854 36.5903 99.3302C30.5723 102.175 23.5056 100.961 17.8872 96.7909C18.1281 89.8505 21.6074 83.6515 27.6255 80.8066C33.6435 77.9619 40.7103 79.1755 46.3286 83.3459Z" fill="white"/>
<path d="M46.3286 83.3459L47.2873 83.4989L47.3087 82.8826L46.8098 82.5123L46.3286 83.3459ZM17.8872 96.7909L16.9285 96.6379L16.9071 97.2542L17.406 97.6245L17.8872 96.7909ZM45.3699 83.1929C45.1408 89.7949 41.8331 95.6753 36.1269 98.3727L37.0538 100.288C43.3838 97.2954 47.0347 90.7777 47.2873 83.4989L45.3699 83.1929ZM36.1269 98.3727C30.4209 101.07 23.7128 99.9243 18.3684 95.9572L17.406 97.6245C23.2983 101.998 30.7238 103.28 37.0538 100.288L36.1269 98.3727ZM18.8459 96.9439C19.075 90.3419 22.3828 84.4615 28.0889 81.7642L27.1621 79.8491C20.832 82.8414 17.1812 89.3591 16.9285 96.6379L18.8459 96.9439ZM28.0889 81.7642C33.7949 79.0669 40.503 80.2125 45.8475 84.1796L46.8098 82.5123C40.9175 78.1386 33.492 76.8569 27.1621 79.8491L28.0889 81.7642Z" fill="black" mask="url(#path-61-inside-5)"/>
<path d="M19.0094 95.905C19.0094 95.905 26.1274 91.0968 31.0869 88.7761C36.3146 86.33 45.0675 83.876 45.0675 83.876" stroke="black"/>
<path d="M27.1953 97.2188L29.6269 89.8243" stroke="black" stroke-linecap="round"/>
<path d="M34.186 94.7686L35.8653 86.887" stroke="black" stroke-linecap="round"/>
<path d="M40.7778 91.064L41.3958 85.4849" stroke="black" stroke-linecap="round"/>
<path d="M39.5369 85.2785L34.6692 83.1236" stroke="black" stroke-linecap="round"/>
<path d="M31.7942 87.2417L27.6788 85.5738" stroke="black" stroke-linecap="round"/>
<path d="M26.6626 89.8983L22.9458 89.485" stroke="black" stroke-linecap="round"/>
<mask id="path-70-inside-6" fill="white">
<path fill-rule="evenodd" clip-rule="evenodd" d="M91.123 87.553C85.0522 87.2535 79.3488 90.4755 76.3509 96.6808C73.3529 102.886 73.8027 110.538 76.9546 116.879C83.0254 117.179 88.7288 113.957 91.7267 107.751C94.7247 101.546 94.2749 93.8938 91.123 87.553Z"/>
</mask>
<path fill-rule="evenodd" clip-rule="evenodd" d="M91.123 87.553C85.0522 87.2535 79.3488 90.4755 76.3509 96.6808C73.3529 102.886 73.8027 110.538 76.9546 116.879C83.0254 117.179 88.7288 113.957 91.7267 107.751C94.7247 101.546 94.2749 93.8938 91.123 87.553Z" fill="white"/>
<path d="M91.123 87.553L91.9322 87.1582L91.6186 86.5272L91.0144 86.4974L91.123 87.553ZM76.9546 116.879L76.1454 117.274L76.459 117.905L77.0632 117.935L76.9546 116.879ZM91.7267 107.751L90.879 107.141L91.7267 107.751ZM77.1986 97.2912C80.0551 91.3785 85.4805 88.3249 91.2315 88.6085L91.0144 86.4974C84.6239 86.1822 78.6425 89.5726 75.5032 96.0705L77.1986 97.2912ZM77.7639 116.484C74.7779 110.477 74.342 103.204 77.1986 97.2912L75.5032 96.0705C72.3639 102.568 72.8274 110.599 76.1454 117.274L77.7639 116.484ZM90.879 107.141C88.0225 113.054 82.5971 116.107 76.8461 115.824L77.0632 117.935C83.4537 118.25 89.4351 114.859 92.5744 108.362L90.879 107.141ZM90.3137 87.9477C93.2997 93.9547 93.7356 101.228 90.879 107.141L92.5744 108.362C95.7137 101.864 95.2502 93.833 91.9322 87.1582L90.3137 87.9477Z" fill="black" mask="url(#path-70-inside-6)"/>
<path d="M77.3429 115.405C77.3429 115.405 80.1968 106.778 82.6788 101.685C85.295 96.3171 90.4621 88.7947 90.4621 88.7947" stroke="black"/>
<path d="M83.9053 111.591L82.1234 103.51" stroke="black" stroke-linecap="round"/>
<path d="M87.7969 105.145L85.2363 97.0882" stroke="black" stroke-linecap="round"/>
<path d="M90.7983 97.8232L88.5722 92.4675" stroke="black" stroke-linecap="round"/>
<path d="M87.1268 93.4156L82.5663 94.4579" stroke="black" stroke-linecap="round"/>
<path d="M82.4559 99.8842L78.6741 100.903" stroke="black" stroke-linecap="round"/>
<path d="M80.0105 105.381L77.1187 107.277" stroke="black" stroke-linecap="round"/>
<mask id="path-79-inside-7" fill="white">
<path fill-rule="evenodd" clip-rule="evenodd" d="M118.562 93.4781C111.829 93.1532 105.496 96.6814 102.16 103.473C98.8228 110.264 99.3073 118.636 102.791 125.573C109.525 125.898 115.857 122.37 119.194 115.579C122.53 108.787 122.046 100.415 118.562 93.4781Z"/>
</mask>
<path fill-rule="evenodd" clip-rule="evenodd" d="M118.562 93.4781C111.829 93.1532 105.496 96.6814 102.16 103.473C98.8228 110.264 99.3073 118.636 102.791 125.573C109.525 125.898 115.857 122.37 119.194 115.579C122.53 108.787 122.046 100.415 118.562 93.4781Z" fill="white"/>
<path d="M118.562 93.4781L119.377 93.0811L119.063 92.4573L118.458 92.4281L118.562 93.4781ZM102.791 125.573L101.976 125.97L102.29 126.594L102.895 126.623L102.791 125.573ZM103.011 104.078C106.204 97.5797 112.254 94.2188 118.666 94.5282L118.458 92.4281C111.403 92.0876 104.789 95.783 101.308 102.868L103.011 104.078ZM103.606 125.176C100.289 118.57 99.8183 110.575 103.011 104.078L101.308 102.868C97.8274 109.952 98.3261 118.702 101.976 125.97L103.606 125.176ZM118.342 114.973C115.15 121.471 109.099 124.832 102.687 124.523L102.895 126.623C109.95 126.964 116.564 123.268 120.045 116.184L118.342 114.973ZM117.747 93.8751C121.065 100.481 121.535 108.476 118.342 114.973L120.045 116.184C123.526 109.099 123.027 100.349 119.377 93.0811L117.747 93.8751Z" fill="black" mask="url(#path-79-inside-7)"/>
<path d="M103.226 123.96C103.226 123.96 106.408 114.519 109.17 108.945C112.082 103.07 117.827 94.8368 117.827 94.8368" stroke="black"/>
<path d="M110.512 119.783L108.55 110.942" stroke="black" stroke-linecap="round"/>
<path d="M114.84 112.729L112.015 103.914" stroke="black" stroke-linecap="round"/>
<path d="M118.183 104.715L115.724 98.8563" stroke="black" stroke-linecap="round"/>
<path d="M114.119 99.8943L109.058 101.037" stroke="black" stroke-linecap="round"/>
<path d="M108.926 106.975L104.729 108.091" stroke="black" stroke-linecap="round"/>
<path d="M106.203 112.991L102.992 115.066" stroke="black" stroke-linecap="round"/>
</svg>
