<?xml version="1.0" encoding="utf-8"?>
<!-- Generator: Adobe Illustrator 23.1.0, SVG Export Plug-In . SVG Version: 6.00 Build 0)  -->
<svg version="1.1" id="Слой_1" xmlns="http://www.w3.org/2000/svg" xmlns:xlink="http://www.w3.org/1999/xlink" x="0px" y="0px"
	 viewBox="0 0 190 190" style="enable-background:new 0 0 190 190;" xml:space="preserve">
<style type="text/css">
	.st0{fill:none;stroke:#000000;stroke-width:0.5;}
	.st1{fill:none;stroke:#000000;stroke-linecap:round;}
</style>
<path class="st0" d="M151.1,71.8l0,0.2l0.2,0l5.3,1.1l-5.3,1.1l-0.2,0l0,0.2l-0.8,6.1l-0.8-6.1l0-0.2l-0.2,0l-5.3-1.1l5.3-1.1l0.2,0
	l0-0.2l0.8-6.1L151.1,71.8z"/>
<path class="st0" d="M146.8,133.3l0,0.2l0.2,0l9.7,2l-9.7,2l-0.2,0l0,0.2l-1.5,11.9l-1.5-11.9l0-0.2l-0.2,0l-9.7-2l9.7-2l0.2,0
	l0-0.2l1.5-11.9L146.8,133.3z"/>
<path class="st0" d="M34.9,111.8l0,0.2l0.2,0l6.9,1.5l-6.9,1.5l-0.2,0l0,0.2l-1.1,8.8l-1.1-8.8l0-0.2l-0.2,0l-6.9-1.5l6.9-1.5l0.2,0
	l0-0.2l1.1-8.8L34.9,111.8z"/>
<path class="st0" d="M74.9,37.3l0,0.2l0.2,0l4,1l-4,1l-0.2,0l0,0.2l-0.6,5.1l-0.6-5.1l0-0.2l-0.2,0l-4-1l4-1l0.2,0l0-0.2l0.6-5.1
	L74.9,37.3z"/>
<path class="st0" d="M120,42.1l0,0.2l0.2,0l6,1.2l-6,1.2l-0.2,0l0,0.2l-0.9,6.9l-0.9-6.9l0-0.2l-0.2,0l-6-1.2l6-1.2l0.2,0l0-0.2
	l0.9-6.9L120,42.1z"/>
<path class="st0" d="M42.3,69.6l0,0.2l0.2,0l6.3,1.5l-6.3,1.5l-0.2,0l0,0.2l-0.9,8.6l-0.9-8.6l0-0.2l-0.2,0L34,71.4l6.3-1.5l0.2,0
	l0-0.2l0.9-8.6L42.3,69.6z"/>
<path class="st0" d="M161.5,101.7l0,0.2l0.2,0.1l2.2,0.7l-2.2,0.7l-0.2,0.1l0,0.2l-0.2,2.8l-0.2-2.8l0-0.2l-0.2-0.1l-2.2-0.7
	l2.2-0.7l0.2-0.1l0-0.2l0.2-2.8L161.5,101.7z"/>
<path class="st0" d="M90.6,152.3l0,0.2l0.2,0.1l2.2,0.7l-2.2,0.7l-0.2,0.1l0,0.2l-0.2,2.8l-0.2-2.8l0-0.2l-0.2-0.1l-2.2-0.7l2.2-0.7
	l0.2-0.1l0-0.2l0.2-2.8L90.6,152.3z"/>
<path class="st1" d="M80.2,129.6c-6.8,1.7-5.1,4.2-11,6.8c-5.9,2.5-5.1,3.4-8.4,2.5c-3.4-0.8,4.2,3.4-16.9-0.8"/>
<path class="st1" d="M75.1,126.2c-4.1,1.4-7.6,5.9-9.3,6.8c-1.4,1.4-5.2,4.4-9.3,5.1c-4.1,0.7-9.6,0.3-11.8,0"/>
<path class="st1" d="M97.1,133c6.1,4.7,10.1,7.9,11,7.6c2.8,0.8,8.4,4.1,8.4,10.1c0,6.1,8.4,5.9,12.7,3.4c-2.5,0-5.4,0.5-6.8-0.8
	c-1.7-1.7-5.9-5.9-5.9-7.6c0-1.7,0.8-2.5,0-4.2c-0.7-1.4-6.8-6.5-9.3-8.4"/>
<path class="st1" d="M114.8,129.6c6.8,5.9,5.9,5.9,7.6,9.3c1.7,3.4,5.1,6.8,4.2,9.3"/>
<path class="st1" d="M111.4,133c7.6,5.9,5.1,2.5,8.4,5.1c3.4,2.5,5.7,6,6.8,10.1"/>
<path class="st1" d="M93.7,133l-11,7.6c-1.7,2-5.4,5.7-6.8,5.1c-1.7-0.8-2.5-0.8-5.1,0c-2.5,0.8-2.5,5.1-4.2,5.1
	c-1.7,0-3.4-2.5-11,3.4"/>
<path class="st1" d="M81.9,130.5c0,0-2.6,5-5.1,7.6c-3,3.3-5.7,4.1-9.3,6.8c-4.3,3.2-11.8,9.3-11.8,9.3"/>
<path class="st1" d="M118.2,90.8c-2.5-3.4-4.2-6.8-3.4-9.3"/>
<path class="st1" d="M114.8,73.9c0.8,0.8,2.9,3.5,0.8,4.2c-2.5,0.8-10.1,5.9-11,8.4c-0.7,2-3.4,3.9-4.2,4.2"/>
<path class="st1" d="M77.7,71.4c0,3.7-1.2,11-2.5,11"/>
<path class="st1" d="M79.4,73.1c2.7-4.1,7.9-6.2,10.1-5.9c0.3-2.3,1.9-6.4,5.9-5.1c5.1,1.7,5.9,2.5,6.8,4.2c0.8,1.5,5.9-0.8,5.9,4.2
	c0,4.1-0.8,5.1-2.5,6.8"/>
<path class="st1" d="M110.6,95c-1.4-0.3-8.6-2-9.3-3.4c-0.8-1.7-2.5,0-9.3,0c-5.4,0-9-1.7-10.1-2.5c-1.1,0.6-3.5,1.4-4.2,0
	c-0.8-1.7-5.1-9.3-4.2-11.8"/>
<path class="st1" d="M83.6,75.6c-1.1-1.7-1-3.5,1.7-4.2c3.4-0.8,4.2,0,6.8-1.7c2.5-1.7,2.5-3.4,5.1-3.4c2.5,0,5.1,2.5,5.1,5.1
	c0,2.5,1.7,5.9,0,7.6"/>
<path class="st1" d="M97.9,81.5c-2.8-2.3-9.6-6.6-14.4-5.9"/>
<path class="st1" d="M101.3,77.3c-4.7,2-8.7,0.8-10.1,0"/>
<path class="st1" d="M85.3,75.6c0.6,0,3.7-1.2,5.1-2.5c1.7-1.7,3.4-3.4,5.9-2.5c2.5,0.8,5.1,0.8,4.2,2.5c-0.8,1.7,0,0.8-2.5,1.7
	c-2,0.7-5.1,2.3-6.8,2.5"/>
<path class="st1" d="M120.7,103.4c0.6,0.8,1.4,4.1,0,6.8c-1.7,3.4-4.2,3.4-5.1,6.8c-0.8,3.4-2.5,7.6-5.1,10.1
	c-2.5,2.5-8.4,5.9-12.7,5.9c-3.4,0-5.1,0-4.2,0"/>
<path class="st1" d="M68.4,73.1C67,74.7,62.1,79,60.8,79c-1.7,0-1.7,2.5-4.2,5.1c-2.5,2.5-3.4,2.5-3.4,5.9c0,3.4-0.8,5.1-1.7,5.9
	c-0.8,0.8,1.7,0.8,1.7,5.1c0,4.2,0.8,0.8,5.9,9.3c5.1,8.4-1.7-5.1,11.8,5.1c13.5,10.1,5.1,5.1,12.7,4.2c6.1-0.7,8.2,2.5,8.4,4.2
	c1.1,0.8,3.5,3.4,4.2,6.8c0.7,3.4,2,3.1,2.5,2.5"/>
<path class="st1" d="M63.3,92.5c0.3-0.3,1,0.2,1.7,4.2c0.8,5.1,0,4.2,2.5,6.8c2,2,7,5.3,9.3,6.8c2.5,1.4,8.3,4.6,11,5.9
	c3.4,1.7,8.4,6.8,8.4,9.3c0,2.5,5.1,7.6,2.5,8.4"/>
<path class="st1" d="M114.8,81.5l1.7-4.2c3.3,2.3,8.4,5.9,8.4,5.9s11.1,5.9,8.4,9.3c-2.7,3.4-3.4,2.5-4.2,0c-0.8,3.7-3.5,11-7.6,11
	c-5.1,0-6.8,1.7-8.4,3.4c-1.7,1.7-12.7,1.7-12.7-1.7c0-2.7-9.6-3.4-14.4-3.4c-0.8-0.6-3.2-1-5.9,1.7c-2.7,2.7-4.5,4.5-5.1,5.1"/>
<path class="st1" d="M121.6,89.1c-6.1,4.1-11,6.2-12.7,6.8l-13.5,2.5c-3.1-0.6-11.6,1.5-14.4,4.2"/>
<path class="st1" d="M75.1,108.5c0-2.5-0.8-10.6-4.2-12.7c-4.2-2.5-5.9-6.8-5.9-9.3c0-2,2.8-12.1,4.2-16.9l1.7-8.4
	c0.6,0,3.2-0.5,9.3-2.5c7.6-2.5,3.4-3.4,11.8-1.7c8.8,3.4,16.6,4.2,19.4,4.2l3.4,2.5c0.6,0.8,1.5,3.4,0.8,6.8s-6.5,10.1-8.4,12.7"/>
<path class="st1" d="M68.4,104.3c0,0,1.4-8.9,3.4-14.4c0.9-2.4,3.4-7.6,3.4-7.6"/>
<path class="st1" d="M110.6,95c-1.1-1.1-5.4-4.2-6.8-4.2c-1.4,0-5.1-1.1-6.8-1.7l-13.5-1.7c-2.3-0.3-6.9-1.4-7.6-3.4
	c-0.8-2.5-2.5-3.4-2.5-5.9c0-2.5,0.8-5.1,2.5-4.2"/>
<path class="st1" d="M96.3,89.1c-1.1-2-8.3-7.9-11-9.3c-3.4-1.7-5.1-5.1-6.8-7.6c-1.7-2.5-3.4-5.1-2.5-8.4c0.8-3.4,4.2-3.4,5.9-3.4
	c1.7,0,11.8,0.8,13.5,1.7"/>
<path class="st1" d="M99.6,61.2c2.7,0.7,4.5,3.1,5.1,4.2l6.8,1.7c1.1,0,2.7,0.7,0,3.4c-3.4,3.4,1.7,1.7-6.8,7.6
	c-6.8,4.7-12.7,4.8-14.4,5.1"/>
<path class="st1" d="M121.6,105.1c2-1.1,6.6-3,9.3-1.7c2.7,1.4,1.1,3.4,0,4.2c-1.1-0.3-3.5-0.7-4.2,0c-0.8,0.8-1.7,10.1-3.4,11.8
	c-1.7,1.7-1.7,3.4-8.4,10.1c-6.8,6.8-2.5,3.4-7.6,3.4c-5.1,0-6.8,1.7-12.7,0c-5.9-1.7-8.4,0.8-16.9-5.1c-8.4-5.9-8.4-7.6-9.3-10.1
	c-0.7-2-0.3-3.4,0-4.2"/>
<path class="st1" d="M97.9,78.1l0.8-3.4"/>
<path class="st1" d="M91.2,73.9l1.7,1.7l5.1-0.8c0-0.6-1-1.9-5.1-2.5C90.9,72.2,90.9,73.3,91.2,73.9z"/>
</svg>
