<svg width="144" height="138" viewBox="0 0 144 138" fill="none" xmlns="http://www.w3.org/2000/svg">
<path d="M21.8239 109.415C19.9301 111.261 18.6079 111.261 16.6783 111.876C14.7488 112.491 10.8897 113.262 12.137 114.654C13.7577 116.463 26.5911 113.94 26.9694 115.568C27.4892 117.807 21.2415 119.197 19.9301 119.704C17.2548 120.74 15.4537 120.592 12.8192 121.722C11.886 122.123 8.17972 123.817 9.1652 124.078C10.8283 124.52 21.8239 122.889 21.8239 125.415" stroke="black" stroke-linecap="round" stroke-linejoin="round"/>
<path d="M95.2852 112.485C79.3 126.383 39.6027 135.388 8.69531 60.2279" stroke="black" stroke-linecap="round"/>
<path d="M95.2852 112.485C98.4153 91.5352 88.6898 45.9021 8.69531 60.2279" stroke="black" stroke-linecap="round"/>
<path d="M100.559 118.03L95.2612 112.662L100.934 115.296L100.559 118.03Z" stroke="black" stroke-linecap="round" stroke-linejoin="round"/>
<path d="M33.3267 73.5336C54.6466 79.3973 79.9852 85.9669 91.9288 109.884" stroke="black" stroke-linecap="round"/>
<path d="M88.9979 97.4142C86.8529 85.9805 82.7432 79.8471 80.9565 78.2097" stroke="black" stroke-linecap="round"/>
<path d="M75.8748 88.188C73.7299 76.7543 69.6202 70.6209 67.8335 68.9835" stroke="black" stroke-linecap="round"/>
<path d="M64.5114 79.6674C61.545 70.6917 56.6285 65.733 54.541 64.3755" stroke="black" stroke-linecap="round"/>
<path d="M86.5243 108.679C83.5883 111.061 74.8795 115.436 63.532 113.88" stroke="black" stroke-linecap="round"/>
<path d="M78.2876 101.051C74.5813 102.709 63.3861 105.505 48.2561 103.43" stroke="black" stroke-linecap="round"/>
<path d="M65.7455 90.976C62.8695 92.1287 54.1623 94.0288 42.342 92.4075" stroke="black" stroke-linecap="round"/>
<path d="M116.386 114.519C120.199 114.558 123.609 113.38 127.302 111.458C130.053 110.027 132.451 108.421 133.263 103.018C133.825 99.275 133.789 95.0775 132.723 91.6962C131.029 86.3219 127.649 84.125 124.529 82.3762C122.288 81.1207 120.094 80.8137 117.746 80.7993C116.954 80.7944 116.142 80.8801 115.408 81.5118C114.658 82.1581 115.176 84.5658 115.67 85.1453C117.7 87.5261 120.618 87.9678 122.996 88.258C126.539 88.6903 130.397 88.993 133.934 88.1855C135.768 87.7667 137.618 86.828 139.331 85.5258C140.224 84.8469 141.314 83.9825 141.905 82.5013C143.769 77.8267 139.884 73.3293 138.175 71.2945C133.397 65.605 127.797 62.1432 122.287 59.3722C115.936 56.1783 109.369 53.8963 102.778 52.7082C95.9922 51.4848 89.136 51.6731 82.3457 50.4146" stroke="black" stroke-linecap="round" stroke-linejoin="round"/>
<mask id="path-13-inside-1" fill="white">
<path fill-rule="evenodd" clip-rule="evenodd" d="M78.3585 37.0277C85.4988 40.7094 94.8079 41.0347 103.051 37.1703C111.294 33.3059 116.429 26.2086 117.315 18.7646C110.174 15.0829 100.865 14.7576 92.6225 18.622C84.3797 22.4864 79.2438 29.5837 78.3585 37.0277Z"/>
</mask>
<path fill-rule="evenodd" clip-rule="evenodd" d="M78.3585 37.0277C85.4988 40.7094 94.8079 41.0347 103.051 37.1703C111.294 33.3059 116.429 26.2086 117.315 18.7646C110.174 15.0829 100.865 14.7576 92.6225 18.622C84.3797 22.4864 79.2438 29.5837 78.3585 37.0277Z" fill="white"/>
<path d="M78.3585 37.0277L77.2971 36.993L77.23 37.5568L77.7708 37.8356L78.3585 37.0277ZM117.315 18.7646L118.376 18.7993L118.443 18.2355L117.902 17.9567L117.315 18.7646ZM92.6225 18.622L93.0789 19.4339L92.6225 18.622ZM102.594 36.3584C94.7051 40.057 85.791 39.7491 78.9462 36.2198L77.7708 37.8356C85.2067 41.6697 94.9106 42.0124 103.507 37.9821L102.594 36.3584ZM116.253 18.7298C115.405 25.8657 110.483 32.6598 102.594 36.3584L103.507 37.9821C112.104 33.9519 117.454 26.5515 118.376 18.7993L116.253 18.7298ZM93.0789 19.4339C100.968 15.7353 109.882 16.0432 116.727 19.5725L117.902 17.9567C110.467 14.1226 100.763 13.7799 92.166 17.8102L93.0789 19.4339ZM79.42 37.0625C80.2686 29.9266 85.1898 23.1325 93.0789 19.4339L92.166 17.8102C83.5696 21.8404 78.219 29.2408 77.2971 36.993L79.42 37.0625Z" fill="black" mask="url(#path-13-inside-1)"/>
<path d="M116.337 18.958C116.337 18.958 106.096 25.3408 99.0511 28.6446C91.6253 32.127 79.337 36.1341 79.337 36.1341" stroke="black"/>
<path d="M104.675 19.5857L100.837 27.8157" stroke="black" stroke-linecap="round"/>
<path d="M95.1372 22.9579L92.2606 31.6047" stroke="black" stroke-linecap="round"/>
<path d="M86.376 28.0239L85.0995 34.0662" stroke="black" stroke-linecap="round"/>
<path d="M87.5574 34.0319L93.8622 35.6643" stroke="black" stroke-linecap="round"/>
<path d="M97.3371 29.4579L99.8371 30.4579L103.367 32.0879" stroke="black" stroke-linecap="round"/>
<path d="M103.337 26.6942L108.251 26.625" stroke="black" stroke-linecap="round"/>
<path d="M24 36.9146C25.9756 39.5187 31.9846 42.4146 35.3504 42.4146C38.7162 42.4146 42.5 38.5067 42 35.9147C41.4213 32.9147 37.2958 31.7105 35.3504 34.3045C33.405 36.8983 36 39.4146 37.5 40.4146C39 41.4146 40.5 41.9146 43.5 41.9146C46.5 41.9146 49 39.8231 50 37.4147" stroke="black" stroke-linecap="round" stroke-linejoin="round"/>
</svg>
