<?xml version="1.0" encoding="utf-8"?>
<!-- Generator: Adobe Illustrator 23.1.0, SVG Export Plug-In . SVG Version: 6.00 Build 0)  -->
<svg version="1.1" id="Слой_1" xmlns="http://www.w3.org/2000/svg" xmlns:xlink="http://www.w3.org/1999/xlink" x="0px" y="0px"
	 viewBox="0 0 190 190" style="enable-background:new 0 0 190 190;" xml:space="preserve">
<style type="text/css">
	.st0{fill:none;stroke:#000000;stroke-linecap:round;stroke-linejoin:round;}
	.st1{fill:none;stroke:#000000;stroke-linecap:round;}
	.st2{fill-rule:evenodd;clip-rule:evenodd;fill:#FFFFFF;}
	.st3{fill-rule:evenodd;clip-rule:evenodd;fill:#FFFFFF;filter:url(#Adobe_OpacityMaskFilter);}
	.st4{mask:url(#path-13-inside-1_1_);}
	.st5{fill:none;stroke:#000000;}
</style>
<path class="st0" d="M44.8,135.4c-1.9,1.8-3.2,1.8-5.1,2.5c-1.9,0.6-5.8,1.4-4.5,2.8c1.6,1.8,14.5-0.7,14.8,0.9
	c0.5,2.2-5.7,3.6-7,4.1c-2.7,1-4.5,0.9-7.1,2c-0.9,0.4-4.6,2.1-3.7,2.4c1.7,0.4,12.7-1.2,12.7,1.3"/>
<path class="st1" d="M118.3,138.5c-16,13.9-55.7,22.9-86.6-52.3"/>
<path class="st1" d="M118.3,138.5c3.1-20.9-6.6-66.6-86.6-52.3"/>
<path class="st0" d="M123.6,144l-5.3-5.4l5.7,2.6L123.6,144z"/>
<path class="st1" d="M56.3,99.5c21.3,5.9,46.7,12.4,58.6,36.4"/>
<path class="st1" d="M112,123.4c-2.1-11.4-6.3-17.6-8-19.2"/>
<path class="st1" d="M98.9,114.2c-2.1-11.4-6.3-17.6-8-19.2"/>
<path class="st1" d="M87.5,105.7c-3-9-7.9-13.9-10-15.3"/>
<path class="st1" d="M109.5,134.7c-2.9,2.4-11.6,6.8-23,5.2"/>
<path class="st1" d="M101.3,127.1c-3.7,1.7-14.9,4.5-30,2.4"/>
<path class="st1" d="M88.7,117c-2.9,1.2-11.6,3.1-23.4,1.4"/>
<path class="st0" d="M139.4,140.5c3.8,0,7.2-1.1,10.9-3.1c2.8-1.4,5.1-3,6-8.4c0.6-3.7,0.5-7.9-0.5-11.3c-1.7-5.4-5.1-7.6-8.2-9.3
	c-2.2-1.3-4.4-1.6-6.8-1.6c-0.8,0-1.6,0.1-2.3,0.7c-0.8,0.6-0.2,3.1,0.3,3.6c2,2.4,4.9,2.8,7.3,3.1c3.5,0.4,7.4,0.7,10.9-0.1
	c1.8-0.4,3.7-1.4,5.4-2.7c0.9-0.7,2-1.5,2.6-3c1.9-4.7-2-9.2-3.7-11.2c-4.8-5.7-10.4-9.2-15.9-11.9c-6.4-3.2-12.9-5.5-19.5-6.7
	c-6.8-1.2-13.6-1-20.4-2.3"/>
<path class="st2" d="M101.4,63c7.1,3.7,16.4,4,24.7,0.1c8.2-3.9,13.4-11,14.3-18.4c-7.1-3.7-16.5-4-24.7-0.1
	C107.4,48.5,102.2,55.6,101.4,63z"/>
<defs>
	<filter id="Adobe_OpacityMaskFilter" filterUnits="userSpaceOnUse" x="100.2" y="40.9" width="41.2" height="25.9">
		<feColorMatrix  type="matrix" values="1 0 0 0 0  0 1 0 0 0  0 0 1 0 0  0 0 0 1 0"/>
	</filter>
</defs>
<mask maskUnits="userSpaceOnUse" x="100.2" y="40.9" width="41.2" height="25.9" id="path-13-inside-1_1_">
	<path class="st3" d="M101.4,63c7.1,3.7,16.4,4,24.7,0.1c8.2-3.9,13.4-11,14.3-18.4c-7.1-3.7-16.5-4-24.7-0.1
		C107.4,48.5,102.2,55.6,101.4,63z"/>
</mask>
<path class="st4" d="M101.4,63l-1.1,0l-0.1,0.6l0.5,0.3L101.4,63z M140.3,44.8l1.1,0l0.1-0.6l-0.5-0.3L140.3,44.8z M115.6,44.6
	l0.5,0.8L115.6,44.6z M125.6,62.4c-7.9,3.7-16.8,3.4-23.6-0.1l-1.2,1.6c7.4,3.8,17.1,4.2,25.7,0.1L125.6,62.4z M139.3,44.7
	c-0.8,7.1-5.8,13.9-13.7,17.6l0.9,1.6c8.6-4,13.9-11.4,14.9-19.2L139.3,44.7z M116.1,45.4c7.9-3.7,16.8-3.4,23.6,0.1l1.2-1.6
	c-7.4-3.8-17.1-4.2-25.7-0.1L116.1,45.4z M102.4,63.1c0.8-7.1,5.8-13.9,13.7-17.6l-0.9-1.6c-8.6,4-13.9,11.4-14.9,19.2L102.4,63.1z"
	/>
<path class="st5" d="M139.3,45c0,0-10.2,6.4-17.3,9.7c-7.4,3.5-19.7,7.5-19.7,7.5"/>
<path class="st1" d="M127.7,45.6l-3.8,8.2"/>
<path class="st1" d="M118.1,49l-2.9,8.6"/>
<path class="st1" d="M109.4,54l-1.3,6"/>
<path class="st1" d="M110.6,60l6.3,1.6"/>
<path class="st1" d="M120.3,55.5l2.5,1l3.5,1.6"/>
<path class="st1" d="M126.3,52.7l4.9-0.1"/>
<path class="st0" d="M47,62.9c2,2.6,8,5.5,11.4,5.5c3.4,0,7.1-3.9,6.6-6.5c-0.6-3-4.7-4.2-6.6-1.6c-1.9,2.6,0.6,5.1,2.1,6.1
	s3,1.5,6,1.5s5.5-2.1,6.5-4.5"/>
</svg>
