<svg width="42" height="34" viewBox="0 0 42 34" fill="none" xmlns="http://www.w3.org/2000/svg">
<path d="M0 1C0 0.447715 0.447715 0 1 0H40.1163C40.6686 0 41.1163 0.447715 41.1163 1V3.08C41.1163 3.63229 40.6686 4.08 40.1163 4.08H1C0.447715 4.08 0 3.63229 0 3.08V1Z" fill="#424242"/>
<path d="M0 15.96C0 15.4077 0.447715 14.96 1 14.96H40.1163C40.6686 14.96 41.1163 15.4077 41.1163 15.96V18.04C41.1163 18.5923 40.6686 19.04 40.1163 19.04H1C0.447715 19.04 0 18.5923 0 18.04V15.96Z" fill="#424242"/>
<path d="M0 30.92C0 30.3677 0.447715 29.92 1 29.92H40.1163C40.6686 29.92 41.1163 30.3677 41.1163 30.92V33C41.1163 33.5523 40.6686 34 40.1163 34H1C0.447715 34 0 33.5523 0 33V30.92Z" fill="#424242"/>
</svg>
