<svg width="178" height="179" viewBox="0 0 178 179" fill="none" xmlns="http://www.w3.org/2000/svg">
<path d="M127.005 64.396C127.005 64.396 106.057 63.0559 94.9859 68.2838C83.9148 73.5118 79.2906 92.6469 60.6185 104.386C42.699 115.651 10.5404 111.823 10.5404 111.823" stroke="black"/>
<mask id="path-2-inside-1" fill="white">
<path fill-rule="evenodd" clip-rule="evenodd" d="M66.1748 100.986C69.8126 107.633 76.932 112.806 85.4416 114.143C93.951 115.48 101.744 112.652 106.391 107.307C102.753 100.66 95.6338 95.4874 87.1242 94.1499C78.6148 92.8125 70.8221 95.6409 66.1748 100.986Z"/>
</mask>
<path d="M66.1748 100.986L65.315 100.363L64.942 100.792L65.234 101.326L66.1748 100.986ZM106.391 107.307L107.251 107.93L107.624 107.501L107.332 106.967L106.391 107.307ZM85.5196 113.216C77.3958 111.939 70.594 107.002 67.1157 100.646L65.234 101.326C69.0312 108.264 76.4682 113.672 85.3636 115.07L85.5196 113.216ZM105.531 106.684C101.088 111.795 93.6431 114.493 85.5196 113.216L85.3636 115.07C94.2588 116.468 102.4 113.509 107.251 107.93L105.531 106.684ZM87.0462 95.0766C95.1699 96.3534 101.972 101.291 105.45 107.647L107.332 106.967C103.535 100.029 96.0976 94.6213 87.2022 93.2232L87.0462 95.0766ZM67.0347 101.609C71.4782 96.498 78.9226 93.7998 87.0462 95.0766L87.2022 93.2232C78.307 91.8251 70.166 94.7838 65.315 100.363L67.0347 101.609Z" fill="black" mask="url(#path-2-inside-1)"/>
<path d="M104.579 107.338C104.579 107.338 93.604 106.897 86.6063 105.776C79.2301 104.595 67.9158 101.318 67.9158 101.318" stroke="black"/>
<path d="M96.2744 101.419L88.8963 105.818" stroke="black" stroke-linecap="round"/>
<path d="M86.9287 99.1904L80.0828 104.422" stroke="black" stroke-linecap="round"/>
<path d="M77.2373 98.1911L73.0281 102.235" stroke="black" stroke-linecap="round"/>
<path d="M74.9707 103.506L79.0425 108.112" stroke="black" stroke-linecap="round"/>
<path d="M84.8486 106.568L88.3883 110.34" stroke="black" stroke-linecap="round"/>
<path d="M92.25 107.527L96.1364 110.069" stroke="black" stroke-linecap="round"/>
<mask id="path-11-inside-2" fill="white">
<path fill-rule="evenodd" clip-rule="evenodd" d="M36.2122 110.797C35.1443 117.419 38.1635 124.752 44.9307 130.038C51.6978 135.323 60.5372 137.253 68.1934 135.778C69.2613 129.155 66.2421 121.822 59.4749 116.537C52.7078 111.251 43.8684 109.321 36.2122 110.797Z"/>
</mask>
<path d="M36.2122 110.797L35.9148 109.907L35.2395 110.037L35.1453 110.621L36.2122 110.797ZM68.1934 135.778L68.4907 136.668L69.1661 136.537L69.2603 135.953L68.1934 135.778ZM59.4749 116.537L58.7709 117.19L59.4749 116.537ZM45.6347 129.384C39.1388 124.31 36.2605 117.288 37.279 110.972L35.1453 110.621C34.028 117.55 37.1882 125.193 44.2268 130.691L45.6347 129.384ZM67.8961 134.888C60.5943 136.295 52.1304 134.458 45.6347 129.384L44.2268 130.691C51.2651 136.189 60.4802 138.212 68.4907 136.668L67.8961 134.888ZM58.7709 117.19C65.2668 122.264 68.1451 129.286 67.1266 135.602L69.2603 135.953C70.3776 129.025 67.2174 121.381 60.1788 115.883L58.7709 117.19ZM36.5095 111.686C43.8113 110.279 52.2752 112.116 58.7709 117.19L60.1788 115.883C53.1404 110.385 43.9254 108.362 35.9148 109.907L36.5095 111.686Z" fill="black" mask="url(#path-11-inside-2)"/>
<path d="M66.5465 134.879C66.5465 134.879 56.9811 128.984 51.4301 124.623C45.5788 120.025 37.558 111.921 37.558 111.921" stroke="black"/>
<path d="M62.9502 126.409L53.4597 125.816" stroke="black" stroke-linecap="round"/>
<path d="M56.0137 120.057L46.4574 120.334" stroke="black" stroke-linecap="round"/>
<path d="M47.9648 114.413L41.5502 115.177" stroke="black" stroke-linecap="round"/>
<path d="M42.4665 117.078L43.1193 122.455" stroke="black" stroke-linecap="round"/>
<path d="M49.3366 124.298L50.0551 128.805" stroke="black" stroke-linecap="round"/>
<path d="M55.3568 128.749L57.1883 132.549" stroke="black" stroke-linecap="round"/>
<mask id="path-20-inside-3" fill="white">
<path fill-rule="evenodd" clip-rule="evenodd" d="M126.829 83.4342C121.481 87.8616 113.484 89.6596 105.449 87.5638C97.4152 85.468 91.3337 79.9973 88.8586 73.5295C94.2058 69.1022 102.204 67.3041 110.238 69.3999C118.272 71.4957 124.353 76.9664 126.829 83.4342Z"/>
</mask>
<path d="M126.829 83.4342L127.579 84.1367L128.044 83.7514L127.829 83.1885L126.829 83.4342ZM88.8586 73.5295L88.1082 72.8271L87.6429 73.2124L87.8583 73.7753L88.8586 73.5295ZM126.078 82.7318C120.982 86.9514 113.355 88.6684 105.686 86.6678L105.213 88.4598C113.613 90.6509 121.981 88.7717 127.579 84.1367L126.078 82.7318ZM105.686 86.6678C98.0166 84.6673 92.2179 79.4481 89.8589 73.2837L87.8583 73.7753C90.4495 80.5465 96.8139 86.2687 105.213 88.4598L105.686 86.6678ZM89.6089 74.2319C94.7053 70.0123 102.333 68.2953 110.002 70.2959L110.474 68.5039C102.075 66.3129 93.7063 68.192 88.1082 72.8271L89.6089 74.2319ZM110.002 70.2959C117.671 72.2964 123.469 77.5157 125.828 83.68L127.829 83.1885C125.238 76.4172 118.873 70.695 110.474 68.5039L110.002 70.2959Z" fill="black" mask="url(#path-20-inside-3)"/>
<path d="M125.068 83.2772C125.068 83.2772 114.503 81.7522 107.9 80.0094C100.939 78.1722 90.4932 74.0114 90.4932 74.0114" stroke="black"/>
<path d="M117.956 77.0015L110.112 80.2817" stroke="black" stroke-linecap="round"/>
<path d="M109.253 74.0028L101.793 78.1019" stroke="black" stroke-linecap="round"/>
<path d="M100.02 72.0961L95.3023 75.3747" stroke="black" stroke-linecap="round"/>
<path d="M96.9842 76.7392L100.202 81.3791" stroke="black" stroke-linecap="round"/>
<path d="M106.071 80.5569L108.905 84.3779" stroke="black" stroke-linecap="round"/>
<path d="M113.093 82.1919L116.457 84.9204" stroke="black" stroke-linecap="round"/>
<mask id="path-29-inside-4" fill="white">
<path fill-rule="evenodd" clip-rule="evenodd" d="M124.174 63.2133C127.67 69.092 134.23 73.5345 141.895 74.4782C149.56 75.422 156.434 72.6335 160.4 67.6738C156.904 61.7951 150.344 57.3526 142.679 56.4088C135.013 55.4651 128.14 58.2536 124.174 63.2133Z"/>
</mask>
<path d="M124.174 63.2133L123.29 62.6196L122.937 63.061L123.248 63.5842L124.174 63.2133ZM160.4 67.6738L161.284 68.2674L161.637 67.826L161.325 67.3028L160.4 67.6738ZM141.935 73.5476C134.659 72.6517 128.425 68.4349 125.099 62.8423L123.248 63.5842C126.915 69.7491 133.801 74.4172 141.855 75.4089L141.935 73.5476ZM159.517 67.0801C155.743 71.7984 149.212 74.4435 141.935 73.5476L141.855 75.4089C149.909 76.4005 157.124 73.4686 161.284 68.2674L159.517 67.0801ZM142.638 57.3395C149.915 58.2354 156.149 62.4522 159.475 68.0447L161.325 67.3028C157.659 61.1379 150.773 56.4698 142.719 55.4782L142.638 57.3395ZM125.057 63.807C128.831 59.0887 135.362 56.4436 142.638 57.3395L142.719 55.4782C134.665 54.4866 127.45 57.4185 123.29 62.6196L125.057 63.807Z" fill="black" mask="url(#path-29-inside-4)"/>
<path d="M158.78 67.7581C158.78 67.7581 148.94 67.6986 142.636 66.9035C135.991 66.0653 125.745 63.4602 125.745 63.4602" stroke="black"/>
<path d="M151.133 62.679L144.688 66.8696" stroke="black" stroke-linecap="round"/>
<path d="M142.687 60.9579L136.748 65.8834" stroke="black" stroke-linecap="round"/>
<path d="M133.975 60.3546L130.353 64.1282" stroke="black" stroke-linecap="round"/>
<path d="M132.139 65.2144L135.95 69.2399" stroke="black" stroke-linecap="round"/>
<path d="M141.091 67.6711L144.396 70.9616" stroke="black" stroke-linecap="round"/>
<path d="M147.751 68.3066L151.322 70.4783" stroke="black" stroke-linecap="round"/>
<mask id="path-38-inside-5" fill="white">
<path fill-rule="evenodd" clip-rule="evenodd" d="M108.954 66.7434C104.348 61.5462 102.6 54.6557 105.003 48.448C107.406 42.2404 113.365 38.2524 120.311 37.4056C124.917 42.6028 126.665 49.4932 124.261 55.701C121.858 61.9085 115.9 65.8965 108.954 66.7434Z"/>
</mask>
<path d="M108.954 66.7434L108.154 67.2928L108.563 67.7543L109.179 67.6791L108.954 66.7434ZM120.311 37.4056L121.111 36.8561L120.702 36.3946L120.085 36.4698L120.311 37.4056ZM109.754 66.1939C105.373 61.2501 103.72 54.7088 105.999 48.8229L104.008 48.0731C101.48 54.6026 103.323 61.8422 108.154 67.2928L109.754 66.1939ZM105.999 48.8229C108.277 42.9371 113.929 39.1469 120.536 38.3413L120.085 36.4698C112.801 37.3579 106.535 41.5437 104.008 48.0731L105.999 48.8229ZM119.51 37.955C123.892 42.8988 125.545 49.4401 123.266 55.326L125.257 56.0759C127.785 49.5464 125.942 42.3067 121.111 36.8561L119.51 37.955ZM123.266 55.326C120.987 61.2118 115.335 65.002 108.729 65.8076L109.179 67.6791C116.464 66.791 122.729 62.6053 125.257 56.0759L123.266 55.326Z" fill="black" mask="url(#path-38-inside-5)"/>
<path d="M120.107 38.8209C120.107 38.8209 118.259 47.2095 116.262 52.3081C114.157 57.6824 109.502 65.4905 109.502 65.4905" stroke="black"/>
<path d="M113.269 43.5071L116.599 50.5425" stroke="black" stroke-linecap="round"/>
<path d="M109.889 50.0985L114.1 56.9688" stroke="black" stroke-linecap="round"/>
<path d="M107.661 57.3247L111.056 61.7948" stroke="black" stroke-linecap="round"/>
<path d="M112.546 60.664L117.559 58.8732" stroke="black" stroke-linecap="round"/>
<path d="M116.806 53.9076L120.939 52.2819" stroke="black" stroke-linecap="round"/>
<path d="M118.697 48.447L121.676 46.1863" stroke="black" stroke-linecap="round"/>
<mask id="path-47-inside-6" fill="white">
<path fill-rule="evenodd" clip-rule="evenodd" d="M73.5832 94.5489C78.1903 90.5842 80.1055 84.3199 78.0044 77.7564C75.9033 71.193 70.3063 65.9556 63.6536 63.53C59.0465 67.4947 57.1314 73.759 59.2324 80.3225C61.3335 86.8859 66.9305 92.1234 73.5832 94.5489Z"/>
</mask>
<path d="M73.5832 94.5489L73.2685 95.3925L73.9305 95.6339L74.389 95.2393L73.5832 94.5489ZM63.6536 63.53L63.9683 62.6864L63.3063 62.4451L62.8478 62.8396L63.6536 63.53ZM59.2324 80.3225L60.2674 80.181L59.2324 80.3225ZM76.9695 77.8979C78.9714 84.1518 77.1419 90.1026 72.7774 93.8584L74.389 95.2393C79.2388 91.0659 81.2395 84.4879 79.0393 77.615L76.9695 77.8979ZM63.3389 64.3736C69.6412 66.6714 74.9675 71.644 76.9695 77.8979L79.0393 77.615C76.8392 70.742 70.9714 65.2397 63.9683 62.6864L63.3389 64.3736ZM60.2674 80.181C58.2654 73.9271 60.0949 67.9763 64.4594 64.2205L62.8478 62.8396C57.998 67.0131 55.9973 73.591 58.1975 80.464L60.2674 80.181ZM73.8979 93.7053C67.5956 91.4075 62.2693 86.4349 60.2674 80.181L58.1975 80.464C60.3976 87.3369 66.2654 92.8392 73.2685 95.3925L73.8979 93.7053Z" fill="black" mask="url(#path-47-inside-6)"/>
<path d="M64.3871 64.8662C64.3871 64.8662 68.2611 73.0864 69.9697 78.4877C71.7707 84.1812 73.2066 93.1937 73.2066 93.1937" stroke="black"/>
<path d="M62.2578 72.1518L69.1158 76.7823" stroke="black" stroke-linecap="round"/>
<path d="M63.877 79.5046L71.2831 83.5816" stroke="black" stroke-linecap="round"/>
<path d="M66.7441 86.8803L72.0471 89.2293" stroke="black" stroke-linecap="round"/>
<path d="M72.4423 87.5462L75.0304 83.6492" stroke="black" stroke-linecap="round"/>
<path d="M71.372 79.6397L73.4119 76.2962" stroke="black" stroke-linecap="round"/>
<path d="M69.3582 73.9699L70.1488 70.604" stroke="black" stroke-linecap="round"/>
<mask id="path-56-inside-7" fill="white">
<path fill-rule="evenodd" clip-rule="evenodd" d="M49.6103 109.154C54.7152 104.752 56.8752 97.8324 54.6162 90.6107C52.3572 83.3893 46.2387 77.6535 38.9348 75.0248C33.83 79.4272 31.6699 86.3466 33.9289 93.5684C36.1879 100.79 42.3064 106.526 49.6103 109.154Z"/>
</mask>
<path d="M49.6103 109.154L49.293 110.003L49.9499 110.24L50.409 109.844L49.6103 109.154ZM38.9348 75.0248L39.2521 74.1756L38.5953 73.9392L38.1362 74.3352L38.9348 75.0248ZM53.5823 90.7585C55.7437 97.6683 53.6729 104.272 48.8117 108.465L50.409 109.844C55.7574 105.231 58.0067 97.9966 55.6501 90.4629L53.5823 90.7585ZM38.6175 75.874C45.5728 78.3772 51.4209 83.849 53.5823 90.7585L55.6501 90.4629C53.2936 82.9296 46.9046 76.9298 39.2521 74.1756L38.6175 75.874ZM34.9629 93.4206C32.8014 86.5108 34.8722 79.9068 39.7335 75.7145L38.1362 74.3352C32.7877 78.9477 30.5384 86.1825 32.895 93.7162L34.9629 93.4206ZM49.9276 108.305C42.9723 105.802 37.1243 100.33 34.9629 93.4206L32.895 93.7162C35.2515 101.25 41.6405 107.249 49.293 110.003L49.9276 108.305Z" fill="black" mask="url(#path-56-inside-7)"/>
<path d="M39.7307 76.4934C39.7307 76.4934 43.9279 85.5294 45.7644 91.4725C47.7003 97.7371 49.2068 107.663 49.2068 107.663" stroke="black"/>
<path d="M37.3262 84.54L44.8381 89.5982" stroke="black" stroke-linecap="round"/>
<path d="M39.0479 92.6357L47.1679 97.0799" stroke="black" stroke-linecap="round"/>
<path d="M42.1436 100.747L47.9623 103.301" stroke="black" stroke-linecap="round"/>
<path d="M48.4116 101.443L51.293 97.1286" stroke="black" stroke-linecap="round"/>
<path d="M47.2983 92.7331L49.5717 89.033" stroke="black" stroke-linecap="round"/>
<path d="M45.1279 86.4961L46.0261 82.7798" stroke="black" stroke-linecap="round"/>
<path d="M75.7038 160.123L77.4522 100.146L92.162 85.4223L105.44 100.962L103.692 160.938L75.7038 160.123Z" fill="white" stroke="black" stroke-linejoin="round"/>
<path d="M98.5771 164.816L82.6362 104.4L92.4145 85.5082L109.71 97.257L125.651 157.673L98.5771 164.816Z" fill="white" stroke="black" stroke-linejoin="round"/>
<circle cx="94.6123" cy="96.0063" r="2.5" stroke="black"/>
<path d="M81.2651 95.6544C78.0756 93.9374 75.5883 91.1576 74.2349 87.7977C72.8815 84.4378 72.7476 80.7101 73.8563 77.2617C74.9651 73.8134 77.2466 70.8623 80.3046 68.9208C83.3625 66.9794 87.0039 66.1702 90.5963 66.6338C94.1887 67.0975 97.5053 68.8047 99.9702 71.4589C102.435 74.1131 103.892 77.5468 104.089 81.1637C104.286 84.7805 103.21 88.3521 101.048 91.2583C98.8861 94.1644 95.7745 96.2216 92.2536 97.0726" stroke="black" stroke-linecap="round"/>
<path d="M96.4357 121.132C96.2304 120.443 96.1507 119.751 96.1966 119.055C96.2541 118.366 96.4187 117.791 96.6903 117.33L97.2922 117.487C97.042 117.922 96.8878 118.45 96.8295 119.071C96.7828 119.699 96.8515 120.321 97.0355 120.938C97.3021 121.833 97.6734 122.457 98.1493 122.812C98.6251 123.167 99.1359 123.263 99.6815 123.1C100.102 122.975 100.401 122.754 100.58 122.438C100.758 122.122 100.861 121.765 100.889 121.367C100.916 120.969 100.911 120.445 100.873 119.794C100.837 119.055 100.837 118.451 100.873 117.983C100.911 117.523 101.052 117.097 101.295 116.703C101.549 116.315 101.958 116.037 102.522 115.869C102.978 115.733 103.43 115.73 103.878 115.86C104.334 115.987 104.748 116.263 105.118 116.688C105.491 117.122 105.788 117.71 106.009 118.453C106.164 118.972 106.24 119.504 106.237 120.05C106.235 120.596 106.158 121.092 106.008 121.536L105.382 121.445C105.529 120.992 105.602 120.517 105.6 120.021C105.601 119.534 105.536 119.071 105.406 118.633C105.147 117.765 104.777 117.16 104.294 116.816C103.812 116.473 103.294 116.384 102.739 116.55C102.319 116.675 102.02 116.896 101.841 117.212C101.663 117.528 101.56 117.885 101.532 118.283C101.505 118.681 101.507 119.211 101.539 119.873C101.574 120.613 101.573 121.212 101.534 121.671C101.496 122.131 101.354 122.553 101.109 122.938C100.875 123.329 100.48 123.607 99.9257 123.773C99.4696 123.909 99.0163 123.907 98.566 123.769C98.1183 123.639 97.7067 123.353 97.3311 122.91C96.9555 122.467 96.657 121.874 96.4357 121.132ZM107 130.741L99.9962 132.829L99.8002 132.172L101.45 131.68C100.822 131.565 100.286 131.301 99.8413 130.889C99.3968 130.476 99.0799 129.952 98.8905 129.317C98.6959 128.664 98.6719 128.028 98.8187 127.41C98.9655 126.791 99.2619 126.25 99.7079 125.786C100.157 125.331 100.725 125.001 101.414 124.795C102.103 124.59 102.759 124.555 103.384 124.69C104.02 124.831 104.565 125.122 105.017 125.562C105.479 125.999 105.807 126.544 106.001 127.197C106.188 127.823 106.207 128.426 106.058 129.006C105.913 129.595 105.619 130.111 105.176 130.554L106.8 130.07L107 130.741ZM99.5063 129.177C99.6663 129.714 99.9342 130.155 100.31 130.501C100.688 130.855 101.137 131.087 101.656 131.195C102.178 131.312 102.725 131.285 103.298 131.114C103.87 130.944 104.343 130.667 104.715 130.283C105.091 129.908 105.339 129.469 105.462 128.965C105.587 128.47 105.57 127.954 105.41 127.417C105.25 126.88 104.98 126.435 104.602 126.08C104.226 125.734 103.777 125.503 103.255 125.386C102.736 125.278 102.19 125.309 101.618 125.48C101.046 125.65 100.572 125.923 100.196 126.298C99.8239 126.682 99.5751 127.121 99.45 127.616C99.3275 128.12 99.3463 128.64 99.5063 129.177ZM101.33 137.498C101.154 136.908 101.184 136.407 101.422 135.995C101.669 135.581 102.087 135.285 102.677 135.109L110.794 132.69L110.994 133.36L102.958 135.756C102.502 135.892 102.184 136.099 102.003 136.377C101.832 136.652 101.808 136.995 101.931 137.407C102 137.639 102.111 137.849 102.265 138.037L101.717 138.259C101.544 138.038 101.415 137.784 101.33 137.498ZM103.398 142.23C103.534 142.686 103.74 143.082 104.015 143.419C104.302 143.762 104.646 144.015 105.045 144.178L104.718 144.699C104.252 144.507 103.852 144.212 103.52 143.815C103.196 143.415 102.953 142.942 102.79 142.396C102.582 141.699 102.547 141.027 102.686 140.382C102.828 139.746 103.12 139.191 103.563 138.718C104.009 138.254 104.577 137.919 105.265 137.714C105.954 137.509 106.609 137.469 107.231 137.595C107.856 137.73 108.398 138.012 108.857 138.44C109.315 138.868 109.642 139.409 109.837 140.062C110.018 140.67 110.038 141.258 109.895 141.826C109.765 142.401 109.492 142.906 109.076 143.342C108.672 143.784 108.166 144.11 107.556 144.321L104.639 138.748C104.045 139.11 103.637 139.602 103.413 140.224C103.19 140.845 103.184 141.514 103.398 142.23ZM109.246 140.238C109.089 139.71 108.822 139.273 108.447 138.928C108.08 138.579 107.638 138.355 107.122 138.256C106.614 138.154 106.078 138.187 105.515 138.355C105.417 138.385 105.281 138.435 105.107 138.506L107.746 143.534C108.147 143.346 108.488 143.084 108.767 142.747C109.047 142.411 109.229 142.025 109.314 141.591C109.407 141.154 109.385 140.703 109.246 140.238Z" fill="black"/>
</svg>
