<svg width="155" height="119" viewBox="0 0 155 119" fill="none" xmlns="http://www.w3.org/2000/svg">
<path d="M31.6261 36.6133C31.6261 36.6133 45.8885 52.0141 57.5154 55.8503C69.1423 59.6865 85.6752 49.0001 107.297 53.3523C128.047 57.529 148.723 82.4558 148.723 82.4558" stroke="black"/>
<mask id="path-2-inside-1" fill="white">
<path fill-rule="evenodd" clip-rule="evenodd" d="M100.927 51.9896C102.869 44.665 101.27 36.0114 96.0229 29.1802C90.7754 22.3492 83.178 19.0317 76.1274 19.7052C74.1856 27.0299 75.7838 35.6835 81.0313 42.5147C86.2788 49.3457 93.8762 52.6631 100.927 51.9896Z"/>
</mask>
<path fill-rule="evenodd" clip-rule="evenodd" d="M100.927 51.9896C102.869 44.665 101.27 36.0114 96.0229 29.1802C90.7754 22.3492 83.178 19.0317 76.1274 19.7052C74.1856 27.0299 75.7838 35.6835 81.0313 42.5147C86.2788 49.3457 93.8762 52.6631 100.927 51.9896Z" fill="white"/>
<path d="M100.927 51.9896L101.121 53.0334L101.687 52.9793L101.843 52.3914L100.927 51.9896ZM76.1274 19.7052L75.933 18.6615L75.3671 18.7155L75.2113 19.3034L76.1274 19.7052ZM95.328 29.7982C100.338 36.3197 101.867 44.5843 100.011 51.5878L101.843 52.3914C103.87 44.7457 102.203 35.703 96.7177 28.5621L95.328 29.7982ZM76.3217 20.749C83.0632 20.105 90.3185 23.2769 95.328 29.7982L96.7177 28.5621C91.2324 21.4214 83.2928 17.9584 75.933 18.6615L76.3217 20.749ZM81.7262 41.8966C76.7166 35.3751 75.1868 27.1105 77.0434 20.1071L75.2113 19.3034C73.1844 26.9492 74.851 35.9918 80.3365 43.1327L81.7262 41.8966ZM100.732 50.9459C93.991 51.5899 86.7357 48.4179 81.7262 41.8966L80.3365 43.1327C85.8218 50.2735 93.7614 53.7364 101.121 53.0334L100.732 50.9459Z" fill="black" mask="url(#path-2-inside-1)"/>
<path d="M77.4615 20.9309C77.4615 20.9309 85.1145 28.8103 89.4152 34.4431C93.9484 40.3806 99.8934 50.5495 99.8934 50.5495" stroke="black"/>
<path d="M79.4058 30.9417L87.7841 32.8353" stroke="black" stroke-linecap="round"/>
<path d="M84.645 38.9951L93.2118 39.9179" stroke="black" stroke-linecap="round"/>
<path d="M90.9824 46.3956L96.8192 46.3636" stroke="black" stroke-linecap="round"/>
<path d="M96.2864 44.1033L96.5072 37.9598" stroke="black" stroke-linecap="round"/>
<path d="M91.2357 35.0798L91.268 29.9072" stroke="black" stroke-linecap="round"/>
<path d="M86.5294 29.2863L85.4633 24.7663" stroke="black" stroke-linecap="round"/>
<mask id="path-11-inside-2" fill="white">
<path fill-rule="evenodd" clip-rule="evenodd" d="M129.406 65.5166C134.741 61.4516 137.604 54.056 136.339 45.5627C135.074 37.0696 129.996 29.5816 123.429 25.3776C118.094 29.4426 115.231 36.8382 116.496 45.3315C117.761 53.8246 122.839 61.3126 129.406 65.5166Z"/>
</mask>
<path fill-rule="evenodd" clip-rule="evenodd" d="M129.406 65.5166C134.741 61.4516 137.604 54.056 136.339 45.5627C135.074 37.0696 129.996 29.5816 123.429 25.3776C118.094 29.4426 115.231 36.8382 116.496 45.3315C117.761 53.8246 122.839 61.3126 129.406 65.5166Z" fill="white"/>
<path d="M129.406 65.5166L129.008 66.3665L129.587 66.7373L130.058 66.3788L129.406 65.5166ZM123.429 25.3776L123.827 24.5277L123.247 24.1568L122.777 24.5154L123.429 25.3776ZM116.496 45.3315L117.456 45.3427L116.496 45.3315ZM135.379 45.5515C136.593 53.7043 133.842 60.7775 128.753 64.6544L130.058 66.3788C135.641 62.1256 138.615 54.4078 137.3 45.5739L135.379 45.5515ZM123.032 26.2276C129.295 30.2369 134.165 37.3989 135.379 45.5515L137.3 45.5739C135.984 36.7403 130.697 28.9262 123.827 24.5277L123.032 26.2276ZM117.456 45.3427C116.242 37.1899 118.993 30.1167 124.082 26.2398L122.777 24.5154C117.194 28.7685 114.22 36.4864 115.535 45.3203L117.456 45.3427ZM129.803 64.6666C123.54 60.6573 118.67 53.4953 117.456 45.3427L115.535 45.3203C116.851 54.1539 122.138 61.968 129.008 66.3665L129.803 64.6666Z" fill="black" mask="url(#path-11-inside-2)"/>
<path d="M124.004 27.1634C124.004 27.1634 126.878 38.0257 127.898 45.0114C128.972 52.3749 129.205 63.7745 129.205 63.7745" stroke="black"/>
<path d="M120.777 35.7817L127.249 42.7482" stroke="black" stroke-linecap="round"/>
<path d="M121.43 45.1638L128.549 51.5455" stroke="black" stroke-linecap="round"/>
<path d="M123.377 54.7995L128.554 58.6642" stroke="black" stroke-linecap="round"/>
<path d="M129.2 56.6556L132.43 52.3082" stroke="black" stroke-linecap="round"/>
<path d="M129.192 46.6892L131.776 42.9266" stroke="black" stroke-linecap="round"/>
<path d="M127.894 39.316L129.184 35.299" stroke="black" stroke-linecap="round"/>
<mask id="path-20-inside-3" fill="white">
<path fill-rule="evenodd" clip-rule="evenodd" d="M44.8678 22.9335C51.7938 23.4072 58.8302 27.6128 63.2107 34.6663C67.5913 41.7198 68.2316 49.8748 65.5707 56.2684C58.6447 55.7946 51.6083 51.589 47.2278 44.5355C42.8472 37.4821 42.207 29.3271 44.8678 22.9335Z"/>
</mask>
<path fill-rule="evenodd" clip-rule="evenodd" d="M44.8678 22.9335C51.7938 23.4072 58.8302 27.6128 63.2107 34.6663C67.5913 41.7198 68.2316 49.8748 65.5707 56.2684C58.6447 55.7946 51.6083 51.589 47.2278 44.5355C42.8472 37.4821 42.207 29.3271 44.8678 22.9335Z" fill="white"/>
<path d="M44.8678 22.9335L44.8077 21.9074L44.205 21.8661L43.9734 22.4226L44.8678 22.9335ZM65.5707 56.2684L65.6308 57.2945L66.2335 57.3357L66.4651 56.7793L65.5707 56.2684ZM44.928 23.9595C51.529 24.4111 58.2409 28.4203 62.4223 35.1532L63.9991 34.1795C59.4194 26.8054 52.0587 22.4034 44.8077 21.9074L44.928 23.9595ZM62.4223 35.1532C66.6038 41.886 67.2123 49.6639 64.6762 55.7575L66.4651 56.7793C69.2508 50.0856 68.5788 41.5536 63.9991 34.1795L62.4223 35.1532ZM65.5106 55.2423C58.9095 54.7907 52.1976 50.7816 48.0162 44.0487L46.4394 45.0223C51.0191 52.3964 58.3798 56.7984 65.6308 57.2945L65.5106 55.2423ZM48.0162 44.0487C43.8348 37.3158 43.2262 29.538 45.7623 23.4443L43.9734 22.4226C41.1877 29.1162 41.8597 37.6483 46.4394 45.0223L48.0162 44.0487Z" fill="black" mask="url(#path-20-inside-3)"/>
<path d="M46.0357 24.2595C46.0357 24.2595 52.6443 32.6426 56.2308 38.4546C60.0113 44.5811 64.7176 54.7927 64.7176 54.7927" stroke="black"/>
<path d="M46.8691 33.7084L54.8148 36.7335" stroke="black" stroke-linecap="round"/>
<path d="M51.1123 41.8771L59.3437 44.0441" stroke="black" stroke-linecap="round"/>
<path d="M56.4927 49.6197L62.1707 50.4923" stroke="black" stroke-linecap="round"/>
<path d="M61.8911 48.3444L62.7543 42.7642" stroke="black" stroke-linecap="round"/>
<path d="M57.9331 39.3172L58.5106 34.5951" stroke="black" stroke-linecap="round"/>
<path d="M53.9698 33.2959L53.4104 29.0005" stroke="black" stroke-linecap="round"/>
<mask id="path-29-inside-4" fill="white">
<path fill-rule="evenodd" clip-rule="evenodd" d="M32.8636 39.4207C34.3782 32.7505 32.6831 25.0116 27.7763 19.0474C22.8696 13.0832 15.9663 10.3702 9.67444 11.2333C8.15977 17.9035 9.85495 25.6424 14.7617 31.6067C19.6684 37.5708 26.5717 40.2838 32.8636 39.4207Z"/>
</mask>
<path fill-rule="evenodd" clip-rule="evenodd" d="M32.8636 39.4207C34.3782 32.7505 32.6831 25.0116 27.7763 19.0474C22.8696 13.0832 15.9663 10.3702 9.67444 11.2333C8.15977 17.9035 9.85495 25.6424 14.7617 31.6067C19.6684 37.5708 26.5717 40.2838 32.8636 39.4207Z" fill="white"/>
<path d="M32.8636 39.4207L33.0951 40.4596L33.6551 40.3828L33.7899 39.7892L32.8636 39.4207ZM9.67444 11.2333L9.4429 10.1944L8.88293 10.2712L8.74812 10.8649L9.67444 11.2333ZM27.106 19.6942C31.7639 25.356 33.3782 32.7068 31.9373 39.0522L33.7899 39.7892C35.3783 32.7943 33.6022 24.6672 28.4466 18.4005L27.106 19.6942ZM9.90597 12.2723C15.8915 11.4512 22.4481 14.0324 27.106 19.6942L28.4466 18.4005C23.2911 12.1339 16.0411 9.28928 9.4429 10.1944L9.90597 12.2723ZM15.432 30.9598C10.7741 25.298 9.15982 17.9472 10.6007 11.6018L8.74812 10.8649C7.15972 17.8597 8.93584 25.9868 14.0914 32.2535L15.432 30.9598ZM32.632 38.3817C26.6465 39.2028 20.0899 36.6216 15.432 30.9598L14.0914 32.2535C19.2469 38.5201 26.4969 41.3647 33.0951 40.4596L32.632 38.3817Z" fill="black" mask="url(#path-29-inside-4)"/>
<path d="M10.9068 12.2882C10.9068 12.2882 17.9992 19.1094 22.0216 24.0284C26.2616 29.2134 31.8947 38.1597 31.8947 38.1597" stroke="black"/>
<path d="M12.9521 21.238L20.5111 22.6397" stroke="black" stroke-linecap="round"/>
<path d="M17.8892 28.3035L25.5871 28.8236" stroke="black" stroke-linecap="round"/>
<path d="M23.7891 34.7416L29.0138 34.5007" stroke="black" stroke-linecap="round"/>
<path d="M28.4675 32.4833L28.4775 26.9399" stroke="black" stroke-linecap="round"/>
<path d="M23.6701 24.536L23.5411 19.8742" stroke="black" stroke-linecap="round"/>
<path d="M19.2797 19.4874L18.1871 15.4535" stroke="black" stroke-linecap="round"/>
<mask id="path-38-inside-5" fill="white">
<path fill-rule="evenodd" clip-rule="evenodd" d="M46.3286 47.3459C46.0877 54.2863 42.6085 60.4854 36.5903 63.3302C30.5723 66.1749 23.5056 64.9613 17.8872 60.7909C18.1281 53.8505 21.6074 47.6515 27.6255 44.8066C33.6435 41.9619 40.7103 43.1755 46.3286 47.3459Z"/>
</mask>
<path fill-rule="evenodd" clip-rule="evenodd" d="M46.3286 47.3459C46.0877 54.2863 42.6085 60.4854 36.5903 63.3302C30.5723 66.1749 23.5056 64.9613 17.8872 60.7909C18.1281 53.8505 21.6074 47.6515 27.6255 44.8066C33.6435 41.9619 40.7103 43.1755 46.3286 47.3459Z" fill="white"/>
<path d="M46.3286 47.3459L47.2873 47.4989L47.3087 46.8826L46.8098 46.5123L46.3286 47.3459ZM17.8872 60.7909L16.9285 60.6379L16.9071 61.2542L17.406 61.6245L17.8872 60.7909ZM45.3699 47.1929C45.1408 53.7949 41.8331 59.6753 36.1269 62.3727L37.0538 64.2877C43.3838 61.2954 47.0347 54.7777 47.2873 47.4989L45.3699 47.1929ZM36.1269 62.3727C30.4209 65.07 23.7128 63.9243 18.3684 59.9572L17.406 61.6245C23.2983 65.9983 30.7238 67.2799 37.0538 64.2877L36.1269 62.3727ZM18.8459 60.9439C19.075 54.3419 22.3828 48.4615 28.0889 45.7642L27.1621 43.8491C20.832 46.8414 17.1812 53.3591 16.9285 60.6379L18.8459 60.9439ZM28.0889 45.7642C33.7949 43.0669 40.503 44.2125 45.8475 48.1796L46.8098 46.5123C40.9175 42.1386 33.492 40.8569 27.1621 43.8491L28.0889 45.7642Z" fill="black" mask="url(#path-38-inside-5)"/>
<path d="M19.0094 59.905C19.0094 59.905 26.1274 55.0968 31.0869 52.7761C36.3146 50.33 45.0675 47.876 45.0675 47.876" stroke="black"/>
<path d="M27.1953 61.2188L29.6269 53.8243" stroke="black" stroke-linecap="round"/>
<path d="M34.186 58.7686L35.8653 50.887" stroke="black" stroke-linecap="round"/>
<path d="M40.7778 55.064L41.3958 49.4849" stroke="black" stroke-linecap="round"/>
<path d="M39.5369 49.2785L34.6692 47.1236" stroke="black" stroke-linecap="round"/>
<path d="M31.7942 51.2417L27.6788 49.5738" stroke="black" stroke-linecap="round"/>
<path d="M26.6626 53.8983L22.9458 53.485" stroke="black" stroke-linecap="round"/>
<mask id="path-47-inside-6" fill="white">
<path fill-rule="evenodd" clip-rule="evenodd" d="M91.123 51.553C85.0522 51.2535 79.3488 54.4755 76.3509 60.6808C73.3529 66.8861 73.8027 74.5382 76.9546 80.8791C83.0254 81.1785 88.7288 77.9565 91.7267 71.7512C94.7247 65.546 94.2749 57.8938 91.123 51.553Z"/>
</mask>
<path fill-rule="evenodd" clip-rule="evenodd" d="M91.123 51.553C85.0522 51.2535 79.3488 54.4755 76.3509 60.6808C73.3529 66.8861 73.8027 74.5382 76.9546 80.8791C83.0254 81.1785 88.7288 77.9565 91.7267 71.7512C94.7247 65.546 94.2749 57.8938 91.123 51.553Z" fill="white"/>
<path d="M91.123 51.553L91.9322 51.1582L91.6186 50.5272L91.0144 50.4974L91.123 51.553ZM76.9546 80.8791L76.1454 81.2739L76.459 81.9049L77.0632 81.9347L76.9546 80.8791ZM91.7267 71.7512L90.879 71.1409L91.7267 71.7512ZM77.1986 61.2912C80.0551 55.3785 85.4805 52.3249 91.2315 52.6085L91.0144 50.4974C84.6239 50.1822 78.6425 53.5726 75.5032 60.0705L77.1986 61.2912ZM77.7639 80.4843C74.7779 74.4774 74.342 67.2038 77.1986 61.2912L75.5032 60.0705C72.3639 66.5684 72.8274 74.5991 76.1454 81.2739L77.7639 80.4843ZM90.879 71.1409C88.0225 77.0536 82.5971 80.1072 76.8461 79.8235L77.0632 81.9347C83.4537 82.2499 89.4351 78.8595 92.5744 72.3616L90.879 71.1409ZM90.3137 51.9477C93.2997 57.9547 93.7356 65.2283 90.879 71.1409L92.5744 72.3616C95.7137 65.8637 95.2502 57.833 91.9322 51.1582L90.3137 51.9477Z" fill="black" mask="url(#path-47-inside-6)"/>
<path d="M77.3429 79.4051C77.3429 79.4051 80.1968 70.7776 82.6788 65.6851C85.295 60.3171 90.4621 52.7947 90.4621 52.7947" stroke="black"/>
<path d="M83.9053 75.5905L82.1234 67.5098" stroke="black" stroke-linecap="round"/>
<path d="M87.7969 69.1453L85.2363 61.0882" stroke="black" stroke-linecap="round"/>
<path d="M90.7983 61.8232L88.5722 56.4675" stroke="black" stroke-linecap="round"/>
<path d="M87.1268 57.4156L82.5663 58.4579" stroke="black" stroke-linecap="round"/>
<path d="M82.4559 63.8842L78.6741 64.9029" stroke="black" stroke-linecap="round"/>
<path d="M80.0105 69.3815L77.1187 71.277" stroke="black" stroke-linecap="round"/>
<mask id="path-56-inside-7" fill="white">
<path fill-rule="evenodd" clip-rule="evenodd" d="M118.562 57.4781C111.829 57.1532 105.496 60.6814 102.16 67.4727C98.8228 74.2637 99.3073 82.6363 102.791 89.573C109.525 89.898 115.857 86.3698 119.194 79.5785C122.53 72.7875 122.046 64.4148 118.562 57.4781Z"/>
</mask>
<path fill-rule="evenodd" clip-rule="evenodd" d="M118.562 57.4781C111.829 57.1532 105.496 60.6814 102.16 67.4727C98.8228 74.2637 99.3073 82.6363 102.791 89.573C109.525 89.898 115.857 86.3698 119.194 79.5785C122.53 72.7875 122.046 64.4148 118.562 57.4781Z" fill="white"/>
<path d="M118.562 57.4781L119.377 57.0811L119.063 56.4573L118.458 56.4281L118.562 57.4781ZM102.791 89.573L101.976 89.9701L102.29 90.5939L102.895 90.6231L102.791 89.573ZM103.011 68.0777C106.204 61.5797 112.254 58.2188 118.666 58.5282L118.458 56.4281C111.403 56.0876 104.789 59.783 101.308 66.8676L103.011 68.0777ZM103.606 89.176C100.289 82.5704 99.8183 74.5755 103.011 68.0777L101.308 66.8676C97.8274 73.952 98.3261 82.7023 101.976 89.9701L103.606 89.176ZM118.342 78.9735C115.15 85.4714 109.099 88.8324 102.687 88.523L102.895 90.6231C109.95 90.9636 116.564 87.2682 120.045 80.1836L118.342 78.9735ZM117.747 57.8751C121.065 64.4808 121.535 72.4757 118.342 78.9735L120.045 80.1836C123.526 73.0992 123.027 64.3489 119.377 57.0811L117.747 57.8751Z" fill="black" mask="url(#path-56-inside-7)"/>
<path d="M103.226 87.9601C103.226 87.9601 106.408 78.5185 109.17 72.9452C112.082 67.0703 117.827 58.8368 117.827 58.8368" stroke="black"/>
<path d="M110.512 83.7832L108.55 74.942" stroke="black" stroke-linecap="round"/>
<path d="M114.84 76.7286L112.015 67.9136" stroke="black" stroke-linecap="round"/>
<path d="M118.183 68.7155L115.724 62.8563" stroke="black" stroke-linecap="round"/>
<path d="M114.119 63.8943L109.058 65.0369" stroke="black" stroke-linecap="round"/>
<path d="M108.926 70.9746L104.729 72.091" stroke="black" stroke-linecap="round"/>
<path d="M106.203 76.9909L102.992 79.0663" stroke="black" stroke-linecap="round"/>
</svg>
