<svg width="154" height="101" viewBox="0 0 154 101" fill="none" xmlns="http://www.w3.org/2000/svg">
<path d="M139.694 44.1563C138.276 40.9137 123.606 30.8912 123.606 30.8912C127.758 32.4493 136.788 37.2837 139.694 44.1563Z" stroke="black" stroke-linecap="round" stroke-linejoin="round"/>
<path d="M48.9762 27.2275C72.0606 28.8443 89.4569 42.4718 95.2696 49.0832C79.3887 35.5655 51.6749 30.2596 48.0421 29.3753C45.1358 28.6678 38.1814 29.67 35.0674 30.2596C26.9713 28.8699 42.2294 26.755 48.9762 27.2275Z" stroke="black" stroke-linecap="round" stroke-linejoin="round"/>
<path d="M141.978 58.5583C145.05 58.7604 148.517 56.7896 149.867 55.779L150.074 46.8093C150.178 46.5566 150.199 46.2281 149.451 46.9356C148.704 47.6431 143.812 48.4937 141.459 48.8306C141.459 52.1153 141.148 58.5037 141.978 58.5583Z" stroke="black" stroke-linecap="round" stroke-linejoin="round"/>
<path d="M25.1031 67.7806V65.1276L6.31592 53.3786V56.0316L25.1031 67.7806Z" stroke="black" stroke-linecap="round" stroke-linejoin="round"/>
<path d="M9.32583 68.4123L21.7814 74.35L8.91064 65.3803L9.32583 68.4123Z" stroke="black" stroke-linecap="round" stroke-linejoin="round"/>
<path d="M84.5784 90.1417C86.0731 86.4022 85.2012 80.8351 84.5784 78.519C75.4789 77.2978 56.9062 75.2849 55.4115 77.003C53.9169 78.7211 56.0343 84.7094 57.2799 87.4887C65.7566 89.9312 83.0837 93.8812 84.5784 90.1417Z" stroke="black" stroke-linecap="round" stroke-linejoin="round"/>
<path d="M94.2315 91.1524C90.7439 90.6471 89.526 82.0985 89.353 77.8874L104.196 76.3714V83.446L139.383 77.8874L140.006 71.5707L144.78 70.8127L144.365 77.8874C144.199 81.5258 141.805 83.1092 140.629 83.446C126.616 86.2254 97.719 91.6577 94.2315 91.1524Z" stroke="black" stroke-linecap="round" stroke-linejoin="round"/>
<path d="M104.923 81.0457L105.442 71.1917L139.383 67.2753L138.761 76.3714L104.923 81.0457Z" stroke="black" stroke-linecap="round" stroke-linejoin="round"/>
<path d="M146.753 69.9283L151.112 67.4016C151.008 69.5072 150.697 74.3247 150.282 76.7503C149.867 79.1759 147.064 81.0456 145.715 81.6773L146.753 69.9283Z" stroke="black" stroke-linecap="round" stroke-linejoin="round"/>
<path d="M26.6601 49.0833C26.8331 49.3781 26.6601 51.989 26.6601 51.989C26.6601 52.1574 26.5978 52.4943 26.3487 52.4943C26.0996 52.4943 25.6201 51.8458 25.4145 51.231C25.1055 50.3068 25.3938 49.1086 25.7259 48.7043C26.0581 48.3001 26.4871 48.7885 26.6601 49.0833Z" stroke="black" stroke-linecap="round" stroke-linejoin="round"/>
<path d="M12.9588 35.4392C13.5313 35.6092 13.9225 36.0525 13.8395 37.1643C13.8395 37.5854 13.9968 38.4713 12.8015 38.4276C11.6062 38.3839 11.7694 38.3643 11.4522 37.7959C11.0849 37.1379 11.3987 36.4889 11.6598 35.7746C11.9209 35.0603 12.3863 35.2693 12.9588 35.4392Z" stroke="black" stroke-linecap="round" stroke-linejoin="round"/>
<path d="M5.3818 33.9232C5.278 33.0389 4.24003 33.0389 4.13624 33.5442C4.03246 34.0496 3.62088 34.7243 3.92865 35.3129C4.17196 35.7783 4.34384 35.9446 4.96662 35.9446C5.58939 35.9446 5.4856 34.8075 5.3818 33.9232Z" stroke="black" stroke-linecap="round" stroke-linejoin="round"/>
<path d="M16.1765 10.0462C16.7993 8.27755 21.6777 4.48754 21.9891 4.36121L16.9031 18.7632C14.7234 18.6369 13.9968 19.7739 13.374 20.5319C12.4811 21.6187 12.0246 24.5746 11.9209 25.5853L11.9174 25.6185C11.8374 26.396 11.8286 26.4819 12.6474 27.3539C11.8171 27.1013 11.7133 27.1013 10.6753 27.1013C11.4019 20.6582 15.5537 11.8149 16.1765 10.0462Z" stroke="black" stroke-linecap="round" stroke-linejoin="round"/>
<path d="M8.18408 26.3432L9.74103 26.7222C10.606 23.7323 12.6266 16.8429 13.7891 13.2045C12.4605 14.3163 9.49884 22.4269 8.18408 26.3432Z" stroke="black" stroke-linecap="round" stroke-linejoin="round"/>
<path d="M27.2827 6.50884C27.1097 5.75084 26.1824 4.15904 23.8574 3.85583L18.46 18.6369H21.7815C25.0199 18.6369 25.2067 24.1955 24.9991 26.2169L27.2827 20.2792V6.50884Z" stroke="black" stroke-linecap="round" stroke-linejoin="round"/>
<path d="M31.0195 4.10851C30.8534 16.6408 32.7495 24.743 33.7182 27.2276C45.4265 23.8924 86.3431 24.4061 105.338 25.0799L81.2571 5.62452C80.9803 3.85584 70.5453 1.0765 31.0195 4.10851Z" stroke="black" stroke-linecap="round" stroke-linejoin="round"/>
<path d="M81.6722 3.98218C72.289 -0.0604984 42.0565 0.865948 28.1131 1.83451C23.6291 1.2281 17.5951 6.55096 15.1386 9.28819C12.8896 13.2888 7.83127 22.3006 5.58925 26.3432C2.5999 28.7688 1.50658 32.5757 1.33359 34.1759V43.6509C1.22979 45.6723 1.31283 51.2562 2.47535 57.4213C3.30573 69.4483 4.89727 71.5286 5.58925 71.0653H12.0246L29.9815 84.583C29.9469 85.5095 30.2721 88.3478 31.8498 92.2894C33.8219 97.2164 36.9358 99.4904 37.87 99.9957C38.8042 100.501 44.9282 99.7431 48.8724 98.8587C52.8167 97.9744 50.118 97.2164 51.675 97.8481C52.9205 98.3534 66.0335 98.0586 72.4343 97.8481C80.738 97.5112 100.937 96.1805 115.302 93.5527C133.259 90.268 151.527 82.8144 152.773 81.551C153.769 80.5404 153.465 79.7824 153.188 79.5297L151.112 75.7397L152.046 67.0227C152.773 66.012 152.773 66.012 152.773 65.0013L153.188 57.5476C149.763 56.158 151.112 56.158 151.112 47.0619C151.112 37.9659 121.668 28.6172 107.621 25.8379C102.881 20.2371 91.0554 8.02485 81.6722 3.98218Z" stroke="black" stroke-linecap="round" stroke-linejoin="round"/>
<path d="M107.707 19.556C106.358 18.1201 103.351 18.9577 102.016 19.556L107.707 25.8379C108.269 24.3422 109.056 20.9919 107.707 19.556Z" stroke="black" stroke-linecap="round" stroke-linejoin="round"/>
<path d="M5.29751 57.6886C5.38366 60.6741 5.32257 63.3747 5.15608 65.3249C5.07255 66.3033 4.96393 67.0749 4.83959 67.5943C4.83887 67.5973 4.83816 67.6003 4.83744 67.6032C4.83656 67.6003 4.83568 67.5974 4.83479 67.5945C4.68082 67.0871 4.52798 66.3266 4.38826 65.3577C4.10977 63.4265 3.89316 60.7379 3.80701 57.7524C3.72086 54.7668 3.78195 52.0663 3.94844 50.1161C4.03196 49.1376 4.14059 48.366 4.26493 47.8467C4.26565 47.8437 4.26636 47.8407 4.26708 47.8378C4.26796 47.8407 4.26884 47.8436 4.26973 47.8465C4.4237 48.3539 4.57654 49.1144 4.71626 50.0833C4.99475 52.0145 5.21136 54.7031 5.29751 57.6886Z" stroke="black" stroke-linecap="round" stroke-linejoin="round"/>
<path d="M41.1068 79.2771C41.1068 84.5973 40.6875 88.8736 39.8976 91.8039C39.5019 93.2718 39.0226 94.3652 38.4845 95.0812C37.9524 95.7892 37.4 96.0848 36.8322 96.0848C36.6309 96.0848 36.3454 95.9714 35.9767 95.6189C35.6145 95.2727 35.2254 94.7456 34.8246 94.0471C34.0246 92.6529 33.2262 90.6614 32.5171 88.3153C31.0997 83.6257 30.0664 77.6106 30.0664 72.3287C30.0664 67.0006 30.4351 63.1759 31.1685 60.6979C31.5351 59.4593 31.9811 58.599 32.4818 58.0551C32.9681 57.5267 33.5104 57.2897 34.1335 57.2897C34.3594 57.2897 34.6566 57.3991 35.0248 57.7035C35.3895 58.0049 35.7831 58.4648 36.1905 59.0786C37.0044 60.3048 37.8254 62.072 38.5584 64.1935C40.0234 68.4335 41.1068 74.0002 41.1068 79.2771Z" stroke="black" stroke-linecap="round" stroke-linejoin="round"/>
<path d="M93.6091 63.6116L96.4116 54.0103C97.1589 51.4499 69.2515 51.6801 55.2043 52.1153C51.9866 54.0103 48.9045 60.0303 51.0525 61.464C54.2701 63.6116 81.2573 64.117 93.6091 63.6116Z" stroke="black" stroke-linecap="round" stroke-linejoin="round"/>
<path d="M95.062 63.1063L117.69 60.9587C120.077 59.6953 119.35 56.7897 119.454 55.5263C119.537 54.5157 118.312 53.0839 117.69 52.4943L97.6569 54.0103L95.062 63.1063Z" stroke="black" stroke-linecap="round" stroke-linejoin="round"/>
<path d="M140.836 58.0529L140.421 50.7256H140.421C135.75 50.7256 125.993 50.7256 123.606 52.2416C120.747 54.0568 119.973 59.4005 120.077 60.8323L140.836 58.0529Z" stroke="black" stroke-linecap="round" stroke-linejoin="round"/>
</svg>
