<svg width="141" height="130" viewBox="0 0 141 130" fill="none" xmlns="http://www.w3.org/2000/svg">
<path d="M126.606 41.7721L126.63 41.9487L126.804 41.9838L132.11 43.0519L126.804 44.1201L126.63 44.1552L126.606 44.3318L125.779 50.4658L124.952 44.3318L124.929 44.1552L124.754 44.1201L119.448 43.0519L124.754 41.9838L124.929 41.9487L124.952 41.7721L125.779 35.6381L126.606 41.7721Z" stroke="black" stroke-width="0.5"/>
<path d="M122.257 103.283L122.28 103.46L122.454 103.496L132.152 105.519L122.454 107.543L122.28 107.579L122.257 107.756L120.714 119.62L119.171 107.756L119.148 107.579L118.974 107.543L109.276 105.519L118.974 103.496L119.148 103.46L119.171 103.283L120.714 91.4192L122.257 103.283Z" stroke="black" stroke-width="0.5"/>
<path d="M10.3507 81.8106L10.3719 81.9859L10.5441 82.0246L17.4307 83.5714L10.5441 85.1182L10.3719 85.1569L10.3507 85.3321L9.28571 94.149L8.22071 85.3321L8.19954 85.1569L8.0273 85.1182L1.14076 83.5714L8.0273 82.0246L8.19954 81.9859L8.22071 81.8106L9.28571 72.9938L10.3507 81.8106Z" stroke="black" stroke-width="0.5"/>
<path d="M50.3924 7.27638L50.4125 7.45086L50.5835 7.4911L54.6227 8.44156L50.5835 9.39202L50.4125 9.43225L50.3924 9.60674L49.8051 14.7005L49.2178 9.60674L49.1977 9.43225L49.0267 9.39202L44.9875 8.44156L49.0267 7.4911L49.1977 7.45086L49.2178 7.27638L49.8051 2.1826L50.3924 7.27638Z" stroke="black" stroke-width="0.5"/>
<path d="M95.4917 12.1079L95.516 12.2846L95.6909 12.3192L101.698 13.5065L95.6909 14.6938L95.516 14.7284L95.4917 14.9051L94.5456 21.798L93.5994 14.9051L93.5752 14.7284L93.4002 14.6938L87.3933 13.5065L93.4002 12.3192L93.5752 12.2846L93.5994 12.1079L94.5456 5.21505L95.4917 12.1079Z" stroke="black" stroke-width="0.5"/>
<path d="M17.8283 39.6002L17.8473 39.7737L18.0168 39.8156L24.2823 41.3636L18.0168 42.9117L17.8473 42.9535L17.8283 43.1271L16.883 51.7356L15.9377 43.1271L15.9186 42.9535L15.7491 42.9117L9.48368 41.3636L15.7491 39.8156L15.9186 39.7737L15.9377 39.6002L16.883 30.9916L17.8283 39.6002Z" stroke="black" stroke-width="0.5"/>
<path d="M136.981 71.6629L136.995 71.828L137.152 71.8798L139.331 72.5974L137.152 73.315L136.995 73.3669L136.981 73.532L136.753 76.3049L136.525 73.532L136.511 73.3669L136.354 73.315L134.175 72.5974L136.354 71.8798L136.511 71.828L136.525 71.6629L136.753 68.89L136.981 71.6629Z" stroke="black" stroke-width="0.5"/>
<path d="M66.0728 122.312L66.0864 122.477L66.2437 122.529L68.422 123.247L66.2437 123.964L66.0864 124.016L66.0728 124.181L65.8444 126.954L65.616 124.181L65.6024 124.016L65.4451 123.964L63.2668 123.247L65.4451 122.529L65.6024 122.477L65.616 122.312L65.8444 119.539L66.0728 122.312Z" stroke="black" stroke-width="0.5"/>
<path d="M55.7142 99.6104C48.961 101.299 50.6493 103.831 44.7402 106.364C38.8311 108.896 39.6753 109.74 36.2986 108.896C32.922 108.052 40.5194 112.273 19.4155 108.052" stroke="black" stroke-linecap="round"/>
<path d="M50.6494 96.2338C46.5974 97.5844 43.052 102.143 41.3637 102.987C39.9567 104.394 36.1299 107.377 32.0779 108.052C28.026 108.727 22.5108 108.333 20.2598 108.052" stroke="black" stroke-linecap="round"/>
<path d="M72.5972 102.987C78.6751 107.714 82.727 110.866 83.5712 110.584C86.385 111.429 92.0128 114.636 92.0128 120.714C92.0128 126.792 100.454 126.623 104.675 124.091C102.143 124.091 99.2725 124.597 97.9218 123.247C96.2335 121.558 92.0128 117.338 92.0128 115.649C92.0128 113.961 92.8569 113.117 92.0128 111.429C91.3374 110.078 85.2595 104.957 82.727 102.987" stroke="black" stroke-linecap="round"/>
<path d="M90.3247 99.6104C97.078 105.52 96.2338 105.52 97.9221 108.896C99.6104 112.273 102.987 115.649 102.143 118.182" stroke="black" stroke-linecap="round"/>
<path d="M86.9482 102.987C94.5456 108.896 92.0132 105.519 95.3898 108.052C98.7664 110.584 101.104 114.091 102.143 118.182" stroke="black" stroke-linecap="round"/>
<path d="M69.2209 102.987L58.2469 110.584C56.5586 112.554 52.8443 116.325 51.4936 115.649C49.8053 114.805 48.9612 114.805 46.4287 115.649C43.8962 116.493 43.8962 120.714 42.2079 120.714C40.5196 120.714 38.8313 118.182 31.2339 124.091" stroke="black" stroke-linecap="round"/>
<path d="M57.4027 100.455C57.4027 100.455 54.7543 105.43 52.3378 108.052C49.2991 111.349 46.6459 112.124 43.0521 114.805C38.7184 118.038 31.2339 124.091 31.2339 124.091" stroke="black" stroke-linecap="round"/>
<path d="M93.7013 60.7792C91.1688 57.4026 89.4805 54.026 90.3247 51.4935" stroke="black" stroke-linecap="round"/>
<path d="M90.3248 43.8961C91.1689 44.7403 93.1949 47.4416 91.1689 48.1169C88.6365 48.9611 81.0391 54.026 80.1949 56.5585C79.5196 58.5844 76.8183 60.4979 75.9741 60.7792" stroke="black" stroke-linecap="round"/>
<path d="M53.1819 41.3636C53.1819 45.0217 52.0001 52.3377 50.6494 52.3377" stroke="black" stroke-linecap="round"/>
<path d="M54.8701 43.052C57.5714 39 62.7489 36.8614 65 37.1428C65.2814 34.8917 66.8571 30.7273 70.9091 32.0779C75.974 33.7662 76.8182 34.6105 77.6623 36.2987C78.4174 37.8089 83.5714 35.4546 83.5714 40.5195C83.5714 44.5715 82.7273 45.5844 81.0389 47.2728" stroke="black" stroke-linecap="round"/>
<path d="M86.1041 65C84.6972 64.7186 77.4936 62.9742 76.8183 61.6235C75.9741 59.9352 74.2858 61.6235 67.5326 61.6235C62.13 61.6235 58.5283 59.9351 57.4027 59.0909C56.2772 59.6537 53.8573 60.4415 53.1819 59.0909C52.3378 57.4026 48.117 49.8052 48.9612 47.2727" stroke="black" stroke-linecap="round"/>
<path d="M59.0911 45.5844C57.9656 43.8961 58.0781 42.039 60.7794 41.3636C64.1561 40.5195 65.0002 41.3636 67.5327 39.6753C70.0651 37.987 70.0651 36.2987 72.5976 36.2987C75.1301 36.2987 77.6625 38.8312 77.6625 41.3636C77.6625 43.8961 79.3508 47.2727 77.6625 48.961" stroke="black" stroke-linecap="round"/>
<path d="M73.4415 51.4936C70.6276 49.2426 63.8181 44.9092 59.0908 45.5846" stroke="black" stroke-linecap="round"/>
<path d="M76.8183 47.2727C72.0911 49.2987 68.0954 48.1169 66.6885 47.2727" stroke="black" stroke-linecap="round"/>
<path d="M60.7793 45.5844C61.3421 45.5844 64.4936 44.4025 65.8442 43.0519C67.5325 41.3636 69.2209 39.6752 71.7533 40.5194C74.2858 41.3636 76.8183 41.3636 75.9741 43.0519C75.1299 44.7402 75.9741 43.8959 73.4416 44.7402C71.4157 45.4156 68.3767 46.9914 66.6884 47.2727" stroke="black" stroke-linecap="round"/>
<path d="M96.234 73.4415C96.7968 74.2857 97.5847 77.4935 96.234 80.1948C94.5457 83.5714 92.0133 83.5714 91.1691 86.948C90.3249 90.3246 88.6366 94.5454 86.1042 97.0779C83.5717 99.6104 77.6626 102.987 73.4418 102.987C70.0652 102.987 68.3768 102.987 69.221 102.987" stroke="black" stroke-linecap="round"/>
<path d="M43.8962 43.0519C42.4893 44.7403 37.6495 48.961 36.2988 48.961C34.6105 48.961 34.6105 51.4935 32.078 54.026C29.5456 56.5584 28.7014 56.5584 28.7014 59.9351C28.7014 63.3117 27.8573 65 27.0131 65.8441C26.1689 66.6883 28.7014 66.6883 28.7014 70.9091C28.7014 75.1299 29.5456 71.7532 34.6105 80.1948C39.6755 88.6364 32.9222 75.1299 46.4287 85.2597C59.9352 95.3896 51.4936 90.3247 59.091 89.4805C65.169 88.8052 67.2512 92.013 67.5326 93.7013C68.6581 94.5454 71.078 97.0779 71.7534 100.455C72.4287 103.831 73.7231 103.55 74.2858 102.987" stroke="black" stroke-linecap="round"/>
<path d="M38.8311 62.4675C39.1124 62.1861 39.844 62.6363 40.5194 66.6882C41.3635 71.7532 40.5194 70.9091 43.0518 73.4415C45.0778 75.4675 50.0865 78.7878 52.3375 80.1948C54.87 81.6017 60.6103 84.7532 63.3116 86.1039C66.6882 87.7922 71.7531 92.8571 71.7531 95.3896C71.7531 97.922 76.8181 102.987 74.2856 103.831" stroke="black" stroke-linecap="round"/>
<path d="M90.3247 51.4935L92.0131 47.2727C95.3097 49.5803 100.455 53.1818 100.455 53.1818C100.455 53.1818 111.597 59.0909 108.896 62.4675C106.195 65.8441 105.52 65 104.675 62.4675C103.831 66.1255 101.13 73.4415 97.078 73.4415C92.0131 73.4415 90.3247 75.1298 88.6364 76.8182C86.9481 78.5065 75.9741 78.5065 75.9741 75.1298C75.9741 72.4285 66.407 71.7532 61.6234 71.7532C60.7793 71.1905 58.4156 70.7402 55.7143 73.4415C53.0131 76.1428 51.2122 77.9437 50.6494 78.5065" stroke="black" stroke-linecap="round"/>
<path d="M97.0781 59.0909C91.0002 63.1428 86.104 65.2814 84.4157 65.8441L70.9092 68.3766C67.814 67.8138 59.2599 69.8961 56.5586 72.5974" stroke="black" stroke-linecap="round"/>
<path d="M50.6494 78.5065C50.6494 75.974 49.8052 67.8701 46.4286 65.8442C42.2078 63.3117 40.5195 59.0909 40.5195 56.5585C40.5195 54.5325 43.3334 44.4589 44.7403 39.6753L46.4286 31.2338C46.9914 31.2338 49.6364 30.7273 55.7143 28.7013C63.3117 26.1688 59.091 25.3247 67.5325 27.013C76.3117 30.3896 84.1343 31.2338 86.9481 31.2338L90.3247 33.7663C90.8875 34.6104 91.8442 37.1429 91.1689 40.5195C90.4936 43.8961 84.697 50.6494 82.7273 53.1818" stroke="black" stroke-linecap="round"/>
<path d="M43.896 74.2857C43.896 74.2857 45.2866 65.339 47.2726 59.935C48.1387 57.5785 50.6492 52.3376 50.6492 52.3376" stroke="black" stroke-linecap="round"/>
<path d="M86.1038 65C84.9783 63.8745 80.7012 60.7791 79.3505 60.7791C77.9999 60.7791 74.2856 59.6536 72.5973 59.0908L59.0908 57.4025C56.8397 57.1211 52.1687 56.0518 51.4934 54.0259C50.6492 51.4934 48.9609 50.6492 48.9609 48.1168C48.9609 45.5843 49.8051 43.0518 51.4934 43.896" stroke="black" stroke-linecap="round"/>
<path d="M71.7534 59.0909C70.6279 57.1212 63.4806 51.1558 60.7793 49.8052C57.4027 48.1169 55.7144 44.7402 54.026 42.2078C52.3377 39.6753 50.6494 37.1428 51.4936 33.7662C52.3377 30.3896 55.7145 30.3896 57.4028 30.3896C59.0911 30.3896 69.221 31.2337 70.9093 32.0779" stroke="black" stroke-linecap="round"/>
<path d="M75.13 31.2338C77.8313 31.9091 79.6321 34.329 80.1949 35.4545L86.9481 37.1429C88.0737 37.1429 89.6494 37.8182 86.9481 40.5195C83.5715 43.8961 88.6364 42.2078 80.1949 48.1169C73.4416 52.8442 67.5325 52.9004 65.8442 53.1818" stroke="black" stroke-linecap="round"/>
<path d="M97.0781 75.1299C99.0478 74.0044 103.663 72.0909 106.364 73.4416C109.065 74.7922 107.489 76.8182 106.364 77.6624C105.238 77.381 102.818 76.987 102.143 77.6624C101.299 78.5065 100.455 87.7922 98.7665 89.4805C97.0781 91.1689 97.0781 92.8572 90.3249 99.6104C83.5716 106.364 87.7924 102.987 82.7275 102.987C77.6626 102.987 75.9742 104.675 70.0652 102.987C64.1561 101.299 61.6236 103.831 53.182 97.9221C44.7405 92.013 44.7405 90.3247 43.8963 87.7922C43.221 85.7663 43.6149 84.4156 43.8963 83.5715" stroke="black" stroke-linecap="round"/>
<path d="M73.4414 48.1169L74.2856 44.7402" stroke="black" stroke-linecap="round"/>
<path d="M66.6882 43.8961L68.3765 45.5844L73.4415 44.7402C73.4415 44.1775 72.4285 42.8831 68.3765 42.2078C66.3505 42.2078 66.4068 43.3333 66.6882 43.8961Z" stroke="black" stroke-linecap="round"/>
</svg>
