<svg width="30" height="29" viewBox="0 0 30 29" fill="none" xmlns="http://www.w3.org/2000/svg">
<path d="M28.3333 0.647949H1.66667C1.22464 0.647949 0.800716 0.810117 0.488155 1.09878C0.175595 1.38744 0 1.77895 0 2.18717V26.8148C0 27.223 0.175595 27.6145 0.488155 27.9032C0.800716 28.1918 1.22464 28.354 1.66667 28.354H16.025V17.641H12.1283V13.4466H16.025V10.3682C16.025 6.78946 18.3917 4.83926 21.8583 4.83926C23.0233 4.83618 24.19 4.89159 25.35 5.00396V8.72888H22.9583C21.0783 8.72888 20.7117 9.55698 20.7117 10.7684V13.4389H25.2067L24.6233 17.6333H20.71V28.354H28.3333C28.7754 28.354 29.1993 28.1918 29.5118 27.9032C29.8244 27.6145 30 27.223 30 26.8148V2.18717C30 1.77895 29.8244 1.38744 29.5118 1.09878C29.1993 0.810117 28.7754 0.647949 28.3333 0.647949Z" fill="white"/>
</svg>
