<svg width="28" height="36" viewBox="0 0 28 36" fill="none" xmlns="http://www.w3.org/2000/svg">
<path d="M12.985 35.6655C13.2812 35.883 13.636 36 14 36C14.364 36 14.7188 35.883 15.015 35.6655C15.547 35.2785 28.0506 25.9922 27.9998 14.4001C27.9998 6.46025 21.7192 0 14 0C6.28084 0 0.000154064 6.46025 0.000154064 14.3911C-0.0505954 25.9922 12.453 35.2785 12.985 35.6655ZM14 3.60003C19.7907 3.60003 24.4999 8.44387 24.4999 14.4091C24.5366 22.3976 16.821 29.5706 14 31.9233C11.1808 29.5688 3.46337 22.394 3.50012 14.4001C3.50012 8.44387 8.20931 3.60003 14 3.60003Z" fill="white"/>
</svg>
