<svg width="30" height="29" viewBox="0 0 30 29" fill="none" xmlns="http://www.w3.org/2000/svg">
<path d="M23.0075 8.76807C24.0016 8.76807 24.8075 8.0238 24.8075 7.10571C24.8075 6.18762 24.0016 5.44336 23.0075 5.44336C22.0134 5.44336 21.2075 6.18762 21.2075 7.10571C21.2075 8.0238 22.0134 8.76807 23.0075 8.76807Z" fill="white"/>
<path d="M14.9999 7.38721C13.4765 7.38721 11.9873 7.80441 10.7206 8.58605C9.45392 9.3677 8.46667 10.4787 7.88369 11.7785C7.3007 13.0783 7.14817 14.5086 7.44537 15.8885C7.74257 17.2684 8.47616 18.5359 9.55338 19.5308C10.6306 20.5256 12.0031 21.2031 13.4972 21.4776C14.9913 21.752 16.5401 21.6112 17.9475 21.0728C19.355 20.5344 20.5579 19.6226 21.4043 18.4528C22.2506 17.283 22.7024 15.9077 22.7024 14.5007C22.7024 12.6141 21.8909 10.8048 20.4464 9.47071C19.0019 8.13667 17.0427 7.38721 14.9999 7.38721ZM14.9999 19.1184C14.011 19.1184 13.0443 18.8476 12.222 18.3402C11.3998 17.8328 10.7589 17.1116 10.3805 16.2678C10.002 15.4241 9.90302 14.4956 10.0959 13.5999C10.2889 12.7041 10.7651 11.8813 11.4643 11.2355C12.1636 10.5898 13.0545 10.15 14.0244 9.97179C14.9943 9.79361 15.9997 9.88506 16.9133 10.2346C17.8269 10.5841 18.6078 11.1759 19.1572 11.9353C19.7066 12.6947 19.9999 13.5874 19.9999 14.5007C19.9999 15.7254 19.4731 16.8999 18.5354 17.7659C17.5977 18.6319 16.326 19.1184 14.9999 19.1184Z" fill="white"/>
<path d="M15 3.1438C19.005 3.1438 19.48 3.15766 21.0613 3.22461C22.0123 3.23504 22.9543 3.39631 23.8462 3.70139C24.4933 3.93192 25.081 4.285 25.5714 4.73792C26.0618 5.19083 26.4441 5.73355 26.6937 6.33115C27.0241 7.15486 27.1987 8.02487 27.21 8.9032C27.2825 10.3635 27.2975 10.8022 27.2975 14.5021C27.2975 18.202 27.2825 18.6384 27.21 20.0988C27.1987 20.9771 27.0241 21.8471 26.6937 22.6708C26.4441 23.2684 26.0618 23.8111 25.5714 24.264C25.081 24.717 24.4933 25.07 23.8462 25.3006C22.9543 25.6056 22.0123 25.7669 21.0613 25.7773C19.48 25.8443 19.005 25.8581 15 25.8581C10.995 25.8581 10.52 25.8443 8.93875 25.7773C7.9877 25.7669 7.04566 25.6056 6.15375 25.3006C5.50667 25.07 4.91902 24.717 4.4286 24.264C3.93818 23.8111 3.55587 23.2684 3.30625 22.6708C2.97591 21.8471 2.80129 20.9771 2.79 20.0988C2.7175 18.6384 2.7025 18.1997 2.7025 14.501C2.7025 10.8022 2.7175 10.3635 2.79 8.9032C2.80129 8.02487 2.97591 7.15486 3.30625 6.33115C3.55587 5.73355 3.93818 5.19083 4.4286 4.73792C4.91902 4.285 5.50667 3.93192 6.15375 3.70139C7.04566 3.39631 7.9877 3.23504 8.93875 3.22461C10.52 3.15766 10.995 3.1438 15 3.1438ZM15 0.647949C10.9262 0.647949 10.415 0.664111 8.815 0.731067C7.57097 0.754267 6.3402 0.972075 5.175 1.37523C4.1784 1.73114 3.27332 2.27542 2.51777 2.9732C1.76222 3.67098 1.17287 4.50685 0.7875 5.42724C0.350823 6.50371 0.114979 7.64077 0.09 8.79007C0.0175 10.2677 0 10.7376 0 14.501C0 18.2644 0.0175 18.7354 0.09 20.213C0.11512 21.3619 0.350962 22.4986 0.7875 23.5747C1.17287 24.4951 1.76222 25.331 2.51777 26.0288C3.27332 26.7265 4.1784 27.2708 5.175 27.6267C6.34059 28.03 7.5718 28.2478 8.81625 28.2709C10.4163 28.3378 10.9262 28.354 15 28.354C19.0737 28.354 19.585 28.3378 21.185 28.2709C22.4295 28.2478 23.6607 28.03 24.8263 27.6267C25.8228 27.2708 26.7279 26.7265 27.4835 26.0288C28.239 25.331 28.8284 24.4951 29.2138 23.5747C29.65 22.4982 29.8854 21.3611 29.91 20.2119C29.9825 18.7342 30 18.2644 30 14.501C30 10.7376 29.9825 10.2666 29.91 8.78891C29.8849 7.64 29.649 6.50334 29.2125 5.42724C28.8271 4.50685 28.2378 3.67098 27.4822 2.9732C26.7267 2.27542 25.8216 1.73114 24.825 1.37523C23.6593 0.972341 22.4281 0.754921 21.1838 0.732222C19.5837 0.662957 19.075 0.647949 15 0.647949Z" fill="white"/>
</svg>
