<svg width="26" height="40" viewBox="0 0 26 40" fill="none" xmlns="http://www.w3.org/2000/svg">
<path fill-rule="evenodd" clip-rule="evenodd" d="M20.5 2.5H5.5C4.83696 2.5 4.20107 2.76339 3.73223 3.23223C3.26339 3.70107 3 4.33696 3 5V35C3 35.663 3.26339 36.2989 3.73223 36.7678C4.20107 37.2366 4.83696 37.5 5.5 37.5H20.5C21.163 37.5 21.7989 37.2366 22.2678 36.7678C22.7366 36.2989 23 35.663 23 35V5C23 4.33696 22.7366 3.70107 22.2678 3.23223C21.7989 2.76339 21.163 2.5 20.5 2.5ZM5.5 0C4.17392 0 2.90215 0.526784 1.96447 1.46447C1.02678 2.40215 0.5 3.67392 0.5 5V35C0.5 36.3261 1.02678 37.5979 1.96447 38.5355C2.90215 39.4732 4.17392 40 5.5 40H20.5C21.8261 40 23.0979 39.4732 24.0355 38.5355C24.9732 37.5979 25.5 36.3261 25.5 35V5C25.5 3.67392 24.9732 2.40215 24.0355 1.46447C23.0979 0.526784 21.8261 0 20.5 0L5.5 0Z" fill="white"/>
<path fill-rule="evenodd" clip-rule="evenodd" d="M13 35C13.663 35 14.2989 34.7366 14.7678 34.2678C15.2366 33.7989 15.5 33.163 15.5 32.5C15.5 31.837 15.2366 31.2011 14.7678 30.7322C14.2989 30.2634 13.663 30 13 30C12.337 30 11.7011 30.2634 11.2322 30.7322C10.7634 31.2011 10.5 31.837 10.5 32.5C10.5 33.163 10.7634 33.7989 11.2322 34.2678C11.7011 34.7366 12.337 35 13 35Z" fill="white"/>
</svg>
