<svg width="31" height="30" viewBox="0 0 31 30" fill="none" xmlns="http://www.w3.org/2000/svg">
<path d="M14.6542 0.92334C12.2792 0.92334 6.40419 1.15423 3.27919 3.9249C1.0292 5.88745 0.154197 8.88901 0.0291969 12.4678C-0.220803 18.1246 1.1542 21.7033 3.40419 23.5505C3.90419 23.8968 5.15419 24.8203 7.52919 25.513V28.3991C7.52919 28.3991 7.52919 29.5536 8.27919 29.7845C8.40419 29.7845 8.52919 29.8999 8.65419 29.8999C9.40419 29.8999 10.0292 29.0918 10.9042 28.2837C11.6542 27.4756 12.2792 26.8983 12.6542 26.3211H15.4042C17.7792 26.3211 23.6542 26.0902 26.7792 23.3196C29.0292 21.2416 29.9042 18.24 29.9042 14.4303C30.0292 13.8531 30.0292 13.1605 30.0292 12.4678C29.9042 8.19634 28.5292 5.31023 26.6542 3.69401C25.9042 3.11678 22.6542 0.92334 15.6542 0.92334H14.6542ZM14.4042 3.11678H15.5292C22.1542 3.11678 24.6542 5.07934 24.9042 5.31023C26.4042 6.46467 27.2792 9.00445 27.4042 12.3523V12.8141C27.5292 13.5068 27.5292 14.084 27.5292 14.4303C27.4042 17.8937 26.6542 20.2026 25.1542 21.7033C22.5292 23.8968 17.0292 24.0122 15.5292 24.0122H13.1542L11.1542 26.0902L9.90419 27.3601L9.65419 27.7065C9.40419 27.9373 9.02919 28.3991 8.77919 28.5146V23.3196C6.27919 22.7423 5.27919 21.9342 5.02919 21.7033C3.27919 20.318 2.2792 16.9701 2.5292 12.4678V11.3133C2.77919 8.54267 3.52919 6.69556 4.77919 5.42567C7.40419 3.23223 12.9042 3.11678 14.4042 3.11678ZM14.2792 5.65656C13.6542 5.65656 13.6542 6.46467 14.2792 6.46467C18.9042 6.46467 22.9042 9.35079 22.9042 14.7767C22.9042 15.3539 23.7792 15.3539 23.7792 14.7767C23.7792 8.88901 19.5292 5.54112 14.2792 5.65656ZM9.32544 6.72442C9.04222 6.69308 8.75694 6.76516 8.53044 6.9253C7.28044 7.50252 6.02919 8.65927 6.40419 9.92916C6.40419 9.92916 6.65419 10.967 8.02919 13.1605C8.77919 14.1995 9.40419 15.123 10.0292 15.8157C10.6542 16.6238 11.6542 17.5473 12.6542 18.24C14.6542 19.7408 17.7792 21.2416 19.1542 21.5879C20.4042 21.9342 21.7792 20.7798 22.4042 19.6253C22.6542 19.1636 22.5292 18.5863 22.0292 18.24C21.2792 17.5473 20.0292 16.7392 19.1542 16.2775C18.5292 15.9311 17.7792 16.162 17.5292 16.5083L16.9042 17.201C16.6542 17.5473 16.0292 17.5473 16.0292 17.5473C11.9042 16.5083 10.7792 12.5832 10.7792 12.5832C10.7792 12.5832 10.7792 12.1215 11.1542 11.7751L11.9042 11.1979C12.2792 10.967 12.5292 10.2743 12.1542 9.69712C11.9042 9.35079 11.5292 8.65812 11.1542 8.31179C10.7792 7.85001 10.0292 7.0419 10.0292 7.0419C9.83954 6.86651 9.59181 6.75475 9.32544 6.72442ZM15.1542 7.96545C14.5292 7.85001 14.4042 8.77356 15.0292 8.77356C18.5292 9.00445 20.5292 11.1979 20.4042 13.9686C20.2792 14.5458 21.2792 14.5458 21.2792 13.9686C21.4042 10.7361 19.1542 8.0809 15.1542 7.96545ZM15.5292 10.1589C14.9042 10.0435 14.9042 10.967 15.5292 10.967C17.0292 10.967 17.7792 11.7751 17.7792 13.1605C17.9042 13.7377 18.7792 13.7377 18.7792 13.1605C18.6542 11.3133 17.5292 10.1589 15.5292 10.1589Z" fill="white"/>
</svg>
