<svg width="36" height="35" viewBox="0 0 36 35" fill="none" xmlns="http://www.w3.org/2000/svg">
<path d="M36 30.4304V4.57156C36 2.53979 34.194 0.877441 31.99 0.877441H4.01C1.71 0.877441 0 2.45298 0 4.57156V30.4304C0 32.5508 1.71 34.1245 4.01 34.1245H31.99C33.0513 34.1231 34.0688 33.7337 34.8202 33.0415C35.5716 32.3493 35.9958 31.4105 36 30.4304ZM28.368 20.4692C28.368 20.4692 30.632 22.5324 31.19 23.4891C31.206 23.5095 31.212 23.5279 31.218 23.5353C31.444 23.8863 31.502 24.1633 31.388 24.3665C31.2 24.7045 30.56 24.8744 30.342 24.8892H26.344C26.064 24.8892 25.484 24.8227 24.78 24.3739C24.24 24.0266 23.706 23.4522 23.186 22.8925C22.41 22.0614 21.738 21.341 21.062 21.341C20.9762 21.3408 20.8911 21.3539 20.81 21.3798C20.296 21.5313 19.644 22.2054 19.644 24.0063C19.644 24.5697 19.164 24.8911 18.824 24.8911H16.992C16.368 24.8911 13.118 24.6897 10.24 21.884C6.708 18.4485 3.536 11.5571 3.508 11.4962C3.308 11.051 3.722 10.8091 4.172 10.8091H8.212C8.754 10.8091 8.928 11.112 9.052 11.3835C9.192 11.692 9.72 12.9369 10.584 14.337C11.99 16.6144 12.856 17.5416 13.546 17.5416C13.675 17.5409 13.8017 17.5098 13.914 17.4511C14.816 16.9912 14.648 14.0211 14.608 13.4079C14.608 13.2915 14.606 12.0799 14.146 11.498C13.814 11.0769 13.252 10.9162 12.912 10.8553C13.0506 10.6788 13.2331 10.5357 13.444 10.4378C14.062 10.1534 15.176 10.1127 16.284 10.1127H16.9C18.102 10.1275 18.414 10.1996 18.848 10.3011C19.726 10.4951 19.744 11.0215 19.666 12.8131C19.644 13.3229 19.62 13.9011 19.62 14.5789C19.62 14.7248 19.614 14.8855 19.614 15.0518C19.586 15.9679 19.554 17.0041 20.254 17.4289C20.3446 17.4813 20.4491 17.5094 20.556 17.5102C20.8 17.5102 21.53 17.5102 23.508 14.3758C24.378 12.9923 25.048 11.3595 25.094 11.2376C25.1639 11.1058 25.2651 10.9903 25.39 10.8996C25.4925 10.8504 25.6066 10.8257 25.722 10.8276H30.472C30.992 10.8276 31.344 10.8996 31.41 11.0824C31.524 11.3761 31.388 12.272 29.218 14.9797L28.252 16.1619C26.284 18.5409 26.284 18.6628 28.368 20.4692Z" fill="white"/>
</svg>
