<svg width="34" height="31" viewBox="0 0 34 31" fill="none" xmlns="http://www.w3.org/2000/svg">
<path d="M24.6816 18.5411L21.4633 17.6945C21.2556 17.6395 21.0357 17.637 20.8266 17.6874C20.6176 17.7377 20.427 17.8391 20.2749 17.9808L19.4883 18.7166C19.3255 18.8689 19.1177 18.9734 18.891 19.0172C18.6642 19.061 18.4285 19.0421 18.2133 18.9629C16.6916 18.398 13.4883 15.7874 12.67 14.4806C12.5552 14.296 12.5028 14.084 12.5195 13.8717C12.5361 13.6595 12.621 13.4566 12.7633 13.2892L13.45 12.4734C13.5821 12.3171 13.6658 12.1305 13.6919 11.9337C13.7181 11.7368 13.6857 11.5371 13.5983 11.3559L12.245 8.54836C12.1684 8.39144 12.0535 8.25305 11.9093 8.14407C11.765 8.0351 11.5954 7.95851 11.4137 7.92032C11.232 7.88213 11.0431 7.88339 10.862 7.92399C10.6809 7.96459 10.5125 8.04343 10.37 8.15432C9.47164 8.85159 8.40497 9.90905 8.27664 11.0835C8.04831 13.1507 9.01497 15.7566 12.6716 18.8874C16.8966 22.5031 20.2816 22.9818 22.4833 22.4908C23.7333 22.2137 24.7332 21.1009 25.3616 20.1912C25.4621 20.0467 25.5244 19.8824 25.5437 19.7116C25.5629 19.5408 25.5385 19.3682 25.4723 19.2077C25.4062 19.0472 25.3002 18.9033 25.1628 18.7875C25.0255 18.6717 24.8607 18.5873 24.6816 18.5411Z" fill="white"/>
<path d="M15.8051 0.0193211C6.95507 0.404131 -0.0265905 7.16139 7.61352e-05 15.2839C0.00446046 17.6748 0.624281 20.0305 1.80841 22.1566L0.045076 30.0083C0.0235609 30.1065 0.0291947 30.2081 0.0614557 30.3037C0.0937168 30.3993 0.151564 30.4859 0.229648 30.5554C0.307732 30.6249 0.403531 30.6751 0.508188 30.7013C0.612845 30.7276 0.72298 30.7291 0.828409 30.7056L9.2184 28.8831C11.4405 29.8973 13.88 30.44 16.3584 30.4716C25.4034 30.5994 32.9434 24.0145 33.225 15.7257C33.5284 6.83661 25.5301 -0.407048 15.8051 0.0177816V0.0193211ZM25.8167 23.6728C24.6075 24.7855 23.1725 25.667 21.5937 26.2666C20.015 26.8661 18.3237 27.1721 16.6167 27.1669C14.6084 27.1726 12.6262 26.7468 10.8267 25.9232L9.6584 25.389L4.51341 26.5065L5.59674 21.6872L5.02007 20.6528C4.08524 18.9793 3.60047 17.1224 3.60674 15.2393C3.60674 12.0531 4.96007 9.05619 7.41674 6.80428C9.86539 4.56577 13.1713 3.30966 16.6167 3.30867C20.0934 3.30867 23.3601 4.5493 25.8167 6.80274C27.0271 7.90428 27.9875 9.21757 28.642 10.6659C29.2965 12.1142 29.6318 13.6684 29.6284 15.2378C29.6284 18.3963 28.2534 21.4409 25.8167 23.6743V23.6728Z" fill="white"/>
</svg>
